<?xml version="1.0" standalone="no"?>
<!DOCTYPE svg PUBLIC "-//W3C//DTD SVG 1.1//EN" "http://www.w3.org/Graphics/SVG/1.1/DTD/svg11.dtd" >
<svg xmlns="http://www.w3.org/2000/svg">
<metadata>
Created by FontPrep 20130207 at Thu Jul 13 10:20:23 2017
 By Louise Stroud
Copyright (c) 2017 by Artegra. All rights reserved.
</metadata>
<defs>
<font id="30e9a1b19682ad9876e4da4c8b3e5a3c" horiz-adv-x='1024' >
  <font-face 
    font-family="ArtegraSans-LightItalic"
    font-weight="300"
    font-style="italic"
    font-stretch="normal"
    units-per-em="2048"
    panose-1="2 0 5 3 4 0 0 9 0 3"
    ascent="1516"
    descent="-532"
    x-height="998"
    cap-height="1434"
    bbox="-261.062 -588 2957 2099"
    underline-thickness="102"
    underline-position="-103"
    unicode-range="U+0020-FE65"
  />
<missing-glyph horiz-adv-x="922" 
 />
    <glyph glyph-name="ff" unicode="ff" horiz-adv-x="1431" 
d="M844 1476q87 0 149 -31l-50 -92q-59 19 -128 19q-109 0 -161 -74t-77 -225l-14 -75h489l14 75q33 187 76 269q42 81 86 117q93 77 255 77q96 0 159 -34l-50 -92q-56 22 -119 22t-105 -16q-81 -32 -119 -116t-63 -227l-14 -75h309l-18 -104h-309l-157 -894h-120l157 894
h-489l-157 -894h-120l157 894h-211l18 104h211l14 75q43 236 136 320q93 83 251 83z" />
    <glyph glyph-name="fi" unicode="fi" horiz-adv-x="1152" 
d="M932 1432q-174 0 -249 -91t-106 -268l-14 -75h609l-175 -998h-120l157 894h-489l-157 -894h-120l157 894h-211l18 104h211l14 75q39 228 148 346q109 117 330 117t297 -69l-56 -88q-24 17 -90 35q-68 18 -154 18z" />
    <glyph glyph-name="fl" unicode="fl" horiz-adv-x="1218" 
d="M947 1432q-188 0 -264 -91q-75 -91 -106 -268l-14 -75h489l70 399q-74 35 -175 35zM1050 0q-103 0 -129 53t-6 167l118 674h-488l-157 -894h-120l157 894h-211l18 104h211l14 75q39 228 148 346q109 117 349 117q95 0 175 -26t123 -59l-217 -1231q-30 -116 33 -116h45
l-18 -104h-45z" />
    <glyph glyph-name="ffi" unicode="ffi" horiz-adv-x="1761" 
d="M844 1476q87 0 149 -31l-50 -92q-59 19 -128 19q-109 0 -161 -74t-77 -225l-14 -75h489l14 75q39 228 148 346q109 117 349 117q89 0 167 -19t111 -50l-56 -88q-25 17 -91 35t-152 18q-174 0 -250 -91q-75 -91 -106 -268l-14 -75h609l-175 -998h-120l157 894h-489
l-157 -894h-120l157 894h-489l-157 -894h-120l157 894h-211l18 104h211l14 75q43 236 136 320q93 83 251 83z" />
    <glyph glyph-name="ffl" unicode="ffl" horiz-adv-x="1827" 
d="M1556 1432q-188 0 -264 -91q-75 -91 -106 -268l-14 -75h489l70 399q-74 35 -175 35zM1659 0q-103 0 -129 53t-6 167l118 674h-488l-157 -894h-120l157 894h-489l-157 -894h-120l157 894h-211l18 104h211l14 75q43 236 136 320q93 83 241 83q97 0 159 -31l-50 -92
q-59 19 -128 19q-109 0 -161 -74t-77 -225l-14 -75h489l14 75q39 228 148 346q109 117 349 117q95 0 175 -26t123 -59l-217 -1231q-30 -116 33 -116h45l-18 -104h-45z" />
    <glyph glyph-name=".notdef" horiz-adv-x="922" 
 />
    <glyph glyph-name=".null" horiz-adv-x="0" 
 />
    <glyph glyph-name="nonmarkingreturn" horiz-adv-x="682" 
 />
    <glyph glyph-name="space" unicode=" " horiz-adv-x="573" 
 />
    <glyph glyph-name="exclam" unicode="!" horiz-adv-x="542" 
d="M322 170q40 0 62 -26t16 -64t-36 -64q-28 -26 -68 -26t-62 26t-14 65q6 37 34 63t68 26zM298 316l187 1118h126l-207 -1118h-106z" />
    <glyph glyph-name="quotedbl" unicode="&#x22;" horiz-adv-x="624" 
d="M553 1018l58 416h142l-88 -416h-112zM307 1018l55 416h143l-88 -416h-110z" />
    <glyph glyph-name="numbersign" unicode="#" horiz-adv-x="1287" 
d="M662 882l-111 -330h326l111 330h-326zM165 436l21 116h242l111 330h-220l20 116h238l147 436h123l-147 -436h326l147 436h123l-147 -436h225l-20 -116h-243l-111 -330h221l-21 -116h-239l-145 -436h-123l145 436h-326l-145 -436h-123l145 436h-224z" />
    <glyph glyph-name="dollar" unicode="$" horiz-adv-x="1250" 
d="M871 1338q-100 0 -182 -24q-83 -24 -145 -82t-76 -138t10 -130q49 -102 318 -157q268 -55 366 -153t71 -286q-26 -188 -180 -285q-153 -96 -361 -103l-34 -191h-116l35 195q-254 17 -449 153l87 101q208 -142 473 -142q162 0 276 70t138 203t-42 200q-65 67 -298 114
q-263 58 -354 155t-70 254q20 158 150 254t348 106l33 191h116l-34 -191q105 -7 203 -37t145 -56l46 -26l-88 -101q-73 50 -179 78t-207 28z" />
    <glyph glyph-name="uni0025" unicode="%" horiz-adv-x="1554" 
d="M1103 96q84 0 139 50t68 128t-24 128t-121 50t-139 -50t-68 -128t24 -128t121 -50zM1170 558q127 0 198 -83q72 -83 50 -204t-108 -201t-210 -80t-198 84t-52 204t108 200t212 80zM641 982q84 0 139 50t68 128t-24 128t-121 50t-139 -50t-68 -128t24 -128t121 -50z
M708 1444q127 0 198 -83q72 -83 50 -204t-108 -201t-210 -80t-198 84t-52 204t108 200t212 80zM1500 1434l-1055 -1434h-139l1055 1434h139z" />
    <glyph glyph-name="ampersand" unicode="&#x26;" horiz-adv-x="1427" 
d="M705 1287q-71 -51 -85 -193t52 -257l140 90q78 53 126 115t58 106q8 43 2 75q-6 31 -21 57t-49 42t-94 16q-58 0 -129 -51zM597 96q187 0 326 128q-166 179 -313 431q-160 -99 -222 -179q-63 -81 -65 -178q-2 -96 73 -149t201 -53zM1008 135q-174 -155 -401 -155
q-191 0 -304 80q-112 80 -106 245q7 211 253 391q42 31 107 73q-81 175 -61 341t118 256q98 88 245 88q146 0 213 -85t52 -195t-77 -190t-175 -157l-149 -102q118 -216 282 -399q83 128 141 301l127 -25q-84 -242 -182 -366q99 -103 237 -202l46 -34h-200q-80 53 -166 135z
" />
    <glyph glyph-name="quotesingle" unicode="'" horiz-adv-x="376" 
d="M307 1018l55 416h143l-87 -416h-111z" />
    <glyph glyph-name="parenleft" unicode="(" horiz-adv-x="821" 
d="M656 -204l-66 -104q-87 14 -186 112q-246 243 -157 784q85 530 423 786q111 84 229 110l26 -122q-142 -32 -284 -178q-203 -210 -267 -598t60 -602q57 -98 145 -152q33 -20 55 -28z" />
    <glyph glyph-name="parenright" unicode=")" horiz-adv-x="820" 
d="M368 1380l66 104q87 -14 186 -112q246 -243 157 -784q-85 -530 -423 -786q-111 -84 -229 -110l-26 122q142 32 284 178q203 210 267 598t-60 602q-57 98 -145 152q-33 20 -55 28z" />
    <glyph glyph-name="asterisk" unicode="*" horiz-adv-x="916" 
d="M713 745l-118 232l-194 -232l-102 79l212 217l-250 83l58 120l240 -95l40 285h136l-58 -285l271 96l23 -131l-282 -79l130 -215z" />
    <glyph glyph-name="plus" unicode="+" horiz-adv-x="1137" 
d="M1164 760l-21 -116h-408l-72 -408h-116l72 408h-408l21 116h408l71 408h116l-71 -408h408z" />
    <glyph glyph-name="comma" unicode="," horiz-adv-x="513" 
d="M53 -205l232 415h151l-264 -415h-119z" />
    <glyph glyph-name="hyphen" unicode="-" horiz-adv-x="842" 
d="M199 491l18 104h628l-18 -104h-628z" />
    <glyph glyph-name="period" unicode="." horiz-adv-x="422" 
d="M256 170q40 0 62 -26t16 -64t-36 -64q-28 -26 -68 -26t-62 26t-14 65q6 37 34 63t68 26z" />
    <glyph glyph-name="slash" unicode="/" horiz-adv-x="1037" 
d="M123 0l911 1434h132l-911 -1434h-132z" />
    <glyph glyph-name="zero" unicode="0" horiz-adv-x="1354" 
d="M693 96q138 0 252 88q219 169 284 533q83 471 -153 587q-68 34 -168 34t-192 -50t-158 -138q-190 -246 -202 -624q-10 -306 174 -396q68 -34 163 -34zM919 1454q101 0 177 -27t128 -77q107 -102 137 -267q29 -166 -1 -342q-30 -177 -86 -307t-140 -233t-200 -162
q-118 -59 -234 -59t-190 27q-76 27 -128 77q-107 102 -137 267t-3 326q28 160 68 268q40 107 99 201t135 162t174 107t201 39z" />
    <glyph glyph-name="one" unicode="1" horiz-adv-x="669" 
d="M325 1024l-70 90l406 320h97l-252 -1434h-126l218 1239z" />
    <glyph glyph-name="two" unicode="2" horiz-adv-x="1229" 
d="M1076 1270q-62 68 -225 68t-287 -122q-50 -49 -83 -103l-118 46q37 67 92 122q56 55 108 89q130 84 315 84q186 0 292 -100t76 -262q-20 -111 -84 -206t-194 -219l-602 -551h732l-20 -116h-930l16 92l727 671q115 107 165 181t64 148q18 110 -44 178z" />
    <glyph glyph-name="three" unicode="3" horiz-adv-x="1215" 
d="M1060 1266q-72 72 -221 72t-231 -50t-119 -101l-123 38q18 32 62 75q44 44 93 74t133 55t179 25q205 0 319 -101t85 -281q-13 -80 -52 -144t-85 -97q-93 -69 -164 -86l-30 -7q110 -23 192 -106t56 -244q-33 -202 -182 -305t-360 -103q-212 0 -338 90q-77 55 -102 139
l121 38q7 -21 32 -50q87 -101 301 -101q160 0 268 76t134 222q36 199 -158 256q-99 29 -261 29l21 116q214 0 338 73q50 29 90 83t53 127q21 116 -51 188z" />
    <glyph glyph-name="four" unicode="4" horiz-adv-x="1295" 
d="M381 503h564l130 734zM983 0h-126l68 386h-738l17 100l896 948h135l-164 -931h206l-20 -117h-206z" />
    <glyph glyph-name="five" unicode="5" horiz-adv-x="1276" 
d="M788 920q114 0 200 -37t134 -101q104 -141 64 -332q-37 -204 -171 -337t-373 -133q-194 0 -302 61t-138 106l-13 19l80 78q12 -19 50 -48q131 -100 341 -100q160 0 266 98t134 256q31 147 -40 250q-71 104 -254 104q-184 0 -374 -79q-44 -18 -66 -31l-22 -12l176 752h789
l-20 -116h-672l-108 -464q129 66 319 66z" />
    <glyph glyph-name="six" unicode="6" horiz-adv-x="1288" 
d="M782 824q-86 0 -164 -31q-79 -31 -130 -84q-102 -106 -126 -248q-17 -133 12 -193q30 -60 64 -96q74 -76 226 -76q272 0 388 231q55 109 49 241q-4 103 -81 180q-76 76 -238 76zM783 940q97 0 161 -16t109 -44q44 -28 79 -66q107 -114 90 -353q-19 -145 -104 -263
q-157 -218 -464 -218q-155 0 -249 65t-133 161q-39 97 -39 157q1 60 3 98q67 587 339 833t683 114l-76 -105q-201 68 -359 11q-157 -57 -265 -210t-160 -386q68 110 178 166t207 56z" />
    <glyph glyph-name="seven" unicode="7" horiz-adv-x="1165" 
d="M333 1318l20 116h921l-15 -87l-870 -1347h-145l850 1318h-761z" />
    <glyph glyph-name="eight" unicode="8" 
d="M756 808q150 0 256 68t128 194t-54 198q-78 70 -231 70q-195 0 -307 -123q-56 -62 -72 -146q-23 -129 54 -195t226 -66zM633 96q165 0 283 82t143 220q23 138 -63 216t-252 78t-282 -78q-118 -78 -142 -218q-24 -138 62 -219t251 -81zM626 -20q-100 0 -184 26
q-82 26 -144 77q-62 50 -92 132q-28 82 -9 197t107 210t212 139q-81 33 -133 118t-33 192q32 179 171 281t349 102q126 0 222 -46t146 -134q48 -90 28 -206t-94 -200q-74 -85 -184 -123q102 -39 159 -131t40 -207t-69 -195t-128 -131q-76 -49 -170 -75t-194 -26z" />
    <glyph glyph-name="nine" unicode="9" horiz-adv-x="1287" 
d="M756 610q86 0 165 31t130 84q102 106 126 248q17 133 -12 193t-63 96q-74 76 -227 76q-271 0 -387 -231q-55 -109 -50 -241q4 -103 81 -180q75 -76 237 -76zM756 494q-98 0 -162 16t-108 44t-79 66q-107 114 -90 353q19 145 104 263q157 218 464 218q155 0 249 -65
t133 -161q39 -97 39 -157q-1 -60 -3 -98q-67 -587 -339 -833t-683 -114l76 105q201 -68 359 -11t266 210t159 386q-68 -110 -178 -166t-207 -56z" />
    <glyph glyph-name="colon" unicode=":" horiz-adv-x="452" 
d="M404 1008q40 0 61 -26t15 -64t-34 -64t-69 -26q-39 0 -61 26t-16 65q6 37 36 63q28 26 68 26zM256 170q40 0 62 -26t16 -64t-36 -64q-28 -26 -68 -26t-62 26t-14 65q6 37 34 63t68 26z" />
    <glyph glyph-name="semicolon" unicode=";" horiz-adv-x="481" 
d="M426 1008q40 0 62 -26t16 -64t-36 -64q-28 -26 -68 -26t-62 26t-14 65q6 37 34 63t68 26zM-26 -205l232 415h151l-264 -415h-119z" />
    <glyph glyph-name="less" unicode="&#x3c;" horiz-adv-x="1147" 
d="M1051 94l-828 467l16 90l993 467l-24 -146l-812 -376l679 -366z" />
    <glyph glyph-name="equal" unicode="=" horiz-adv-x="953" 
d="M220 785l20 116h781l-20 -116h-781zM170 501l20 116h781l-20 -116h-781z" />
    <glyph glyph-name="greater" unicode="&#x3e;" horiz-adv-x="1146" 
d="M1148 561l-992 -467l24 146l811 376l-678 366l24 136l827 -467z" />
    <glyph glyph-name="question" unicode="?" horiz-adv-x="1126" 
d="M793 1454q81 0 149 -16t114 -42q100 -59 134 -151q34 -93 16 -173q-22 -144 -141 -260t-372 -150l-61 -346h-126l77 437q209 7 339 86t158 233q22 122 -54 194t-243 72q-224 0 -378 -193l-94 66q116 167 324 223q76 20 158 20zM540 170q40 0 62 -26t16 -64t-36 -64
q-28 -26 -68 -26t-62 26t-14 65q6 37 34 63t68 26z" />
    <glyph glyph-name="at" unicode="@" horiz-adv-x="1665" 
d="M1034 990q-120 0 -220 -94t-122 -220q-22 -124 20 -182t128 -58q209 0 305 326l56 208q-46 20 -167 20zM849 96q297 0 493 149l72 -99q-214 -166 -585 -166q-145 0 -267 55t-200 151q-80 96 -112 234t-4 298t106 296q78 138 190 234t253 152q143 54 291 54t270 -55
t200 -151q80 -96 112 -234t5 -290t-119 -245q-92 -92 -229 -92q-49 1 -85 19t-54 44q-35 55 -38 116q-37 -85 -95 -141q-106 -105 -235 -105q-86 0 -142 36q-152 99 -115 296q37 198 179 326t314 128t288 -60q-5 -22 -36 -142t-42 -182q-38 -219 81 -219q80 0 132 58t69 156
q32 181 -15 321t-167 220q-120 79 -287 79t-315 -78q-148 -77 -253 -221t-137 -324t15 -320t167 -219t295 -79z" />
    <glyph glyph-name="A" unicode="A" horiz-adv-x="1483" 
d="M972 1255l-409 -684h576zM494 455l-271 -455h-150l863 1434h116l358 -1434h-131l-111 455h-674z" />
    <glyph glyph-name="B" unicode="B" horiz-adv-x="1369" 
d="M914 808q130 0 224 64t116 192t-44 191t-206 63h-483l-90 -510h483zM792 116q154 0 257 75t127 215t-46 213q-71 73 -236 73h-483l-102 -576h483zM772 0h-609l252 1434h609q198 0 292 -105t65 -266q-20 -113 -96 -199t-172 -119q90 -29 152 -114q62 -86 39 -227
q-29 -180 -164 -292t-368 -112z" />
    <glyph glyph-name="C" unicode="C" horiz-adv-x="1390" 
d="M1307 96q-168 -116 -485 -116t-480 214q-94 124 -108 326q-6 94 17 224t93 266q70 134 177 233q105 99 251 155t315 56q275 0 423 -130l-77 -90q-137 104 -367 104q-140 0 -260 -50t-207 -135q-178 -178 -222 -436q-15 -86 -15 -163q0 -78 16 -148q31 -139 146 -224
q115 -86 335 -86q219 0 392 104z" />
    <glyph glyph-name="D" unicode="D" horiz-adv-x="1440" 
d="M635 116q357 0 538 245q107 145 144 356q31 154 0 296q-31 141 -147 223t-323 82h-326l-212 -1202h326zM615 0h-452l252 1434h452q292 0 450 -155q185 -181 128 -562q-57 -343 -265 -530t-565 -187z" />
    <glyph glyph-name="E" unicode="E" horiz-adv-x="1246" 
d="M428 791h756l-20 -116h-756l-99 -559h824l-20 -116h-950l252 1434h930l-20 -116h-804z" />
    <glyph glyph-name="F" unicode="F" horiz-adv-x="1236" 
d="M428 791h756l-20 -116h-756l-119 -675h-126l252 1434h930l-20 -116h-804z" />
    <glyph glyph-name="G" unicode="G" horiz-adv-x="1512" 
d="M852 96q109 0 229 26t203 75l83 468h-392l20 116h518l-113 -645q-223 -156 -559 -156t-499 214q-94 124 -108 326q-6 94 17 224t93 266q70 134 177 233q105 99 251 155t315 56q328 0 509 -168l-81 -90q-96 76 -198 109q-103 33 -247 33q-286 0 -467 -181
q-241 -241 -241 -603q0 -252 162 -372q116 -86 328 -86z" />
    <glyph glyph-name="H" unicode="H" horiz-adv-x="1405" 
d="M1255 792l113 642h126l-252 -1434h-126l119 676h-827l-119 -676h-126l252 1434h126l-113 -642h827z" />
    <glyph glyph-name="I" unicode="I" horiz-adv-x="452" 
d="M163 0l252 1434h126l-252 -1434h-126z" />
    <glyph glyph-name="J" unicode="J" horiz-adv-x="1088" 
d="M527 96q166 0 243 89t106 253l175 996h126l-175 -996q-41 -232 -157 -345t-320 -113t-299 110q-47 55 -63 129l114 38q57 -161 250 -161z" />
    <glyph glyph-name="K" unicode="K" horiz-adv-x="1297" 
d="M413 700l878 734h178l-746 -621l511 -813h-144l-460 733l-248 -205l-93 -528h-126l252 1434h126z" />
    <glyph glyph-name="L" unicode="L" horiz-adv-x="1108" 
d="M541 1434l-232 -1318h738l-20 -116h-864l252 1434h126z" />
    <glyph glyph-name="M" unicode="M" horiz-adv-x="1730" 
d="M1819 1434l-252 -1434h-126l217 1231l-733 -1231h-120l-300 1230l-216 -1230h-126l252 1434h167l307 -1263l751 1263h179z" />
    <glyph glyph-name="N" unicode="N" horiz-adv-x="1417" 
d="M163 0l252 1434h140l605 -1252l220 1252h126l-252 -1434h-141l-604 1252l-220 -1252h-126z" />
    <glyph glyph-name="O" unicode="O" horiz-adv-x="1662" 
d="M362 554q0 -78 16 -148q31 -139 146 -224q115 -86 323 -86q140 0 261 50t207 135q178 178 222 436q31 154 0 301t-146 234q-116 86 -343 86q-122 0 -242 -50t-207 -135q-178 -178 -222 -436q-15 -86 -15 -163zM856 -20q-140 0 -234 26t-161 74q-146 102 -198 272
q-52 171 -20 347q31 177 101 311t177 233q105 99 251 155t286 56t234 -26t162 -74q145 -100 197 -273q53 -173 16 -364q-55 -321 -274 -526q-105 -99 -251 -155t-286 -56z" />
    <glyph glyph-name="P" unicode="P" horiz-adv-x="1369" 
d="M1011 1434q193 0 301 -114t76 -315q-30 -200 -176 -314t-352 -114h-470l-101 -577h-126l252 1434h596zM991 1318h-470l-110 -625h470q157 1 255 83t124 230t-40 230t-229 82z" />
    <glyph glyph-name="Q" unicode="Q" horiz-adv-x="1662" 
d="M362 554q0 -78 16 -148q31 -139 146 -224q115 -86 323 -86q147 0 275 56l-137 206h145l102 -145q121 83 199 215t108 288t-2 302q-31 147 -146 234q-116 86 -343 86q-122 0 -242 -50t-207 -135q-178 -178 -222 -436q-15 -86 -15 -163zM827 -20q-322 0 -485 214
q-94 124 -108 326q-6 94 17 224t93 266q70 134 177 233q105 99 251 155t286 56t234 -26t162 -74q145 -100 197 -273q53 -173 18 -364t-129 -347t-240 -252l138 -194h-164l-87 131q-166 -75 -360 -75z" />
    <glyph glyph-name="R" unicode="R" horiz-adv-x="1341" 
d="M1020 1318h-499l-103 -584h499q129 0 217 83t110 210t-33 209q-56 82 -191 82zM1040 1434q178 0 268 -115t65 -285t-136 -278q-111 -110 -280 -133l253 -623h-133l-249 618h-431l-108 -618h-126l252 1434h625z" />
    <glyph glyph-name="S" unicode="S" horiz-adv-x="1243" 
d="M868 1338q-100 0 -182 -24t-144 -82t-80 -156t54 -164t309 -112q236 -46 334 -146t70 -285q-21 -129 -103 -219q-156 -170 -461 -170q-351 0 -537 160l84 98q180 -142 473 -142q163 0 277 70t137 203q24 133 -42 200q-65 67 -298 114q-369 77 -419 269q-16 60 -6 136
q22 172 166 269t386 97q171 0 282 -41q112 -41 152 -69l18 -13l-84 -99q-74 50 -180 78t-206 28z" />
    <glyph glyph-name="T" unicode="T" horiz-adv-x="1327" 
d="M330 1434h1146l-20 -116h-510l-232 -1318h-126l232 1318h-510z" />
    <glyph glyph-name="U" unicode="U" horiz-adv-x="1433" 
d="M740 96q210 0 339 132q128 132 169 366l148 840h126l-148 -840q-53 -300 -220 -457t-418 -157t-382 164q-130 164 -81 450l148 840h126l-148 -840q-41 -230 45 -364t296 -134z" />
    <glyph glyph-name="V" unicode="V" horiz-adv-x="1446" 
d="M461 1434l287 -1255l729 1255h148l-843 -1434h-118l-339 1434h136z" />
    <glyph glyph-name="W" unicode="W" horiz-adv-x="2050" 
d="M2229 1434l-723 -1434h-114l-147 1224l-577 -1224h-124l-219 1434h140l178 -1197l565 1197h134l143 -1197l600 1197h144z" />
    <glyph glyph-name="X" unicode="X" horiz-adv-x="1409" 
d="M924 750l422 -750h-149l-362 649l-589 -649h-173l686 750l-384 684h149l323 -583l528 583h173z" />
    <glyph glyph-name="Y" unicode="Y" horiz-adv-x="1388" 
d="M469 1434l343 -703l593 703h162l-705 -836l-105 -598h-126l105 598l-411 836h144z" />
    <glyph glyph-name="Z" unicode="Z" horiz-adv-x="1374" 
d="M362 116h879l-20 -116h-1078l12 71l1109 1247h-832l20 116h1031l-12 -71z" />
    <glyph glyph-name="bracketleft" unicode="[" horiz-adv-x="726" 
d="M514 1318l-271 -1524h306l-20 -117h-432l311 1757h437l-20 -116h-311z" />
    <glyph glyph-name="backslash" unicode="\" horiz-adv-x="1053" 
d="M513 1434l407 -1434h-128l-407 1434h128z" />
    <glyph glyph-name="bracketright" unicode="]" horiz-adv-x="726" 
d="M388 -207l271 1524h-306l20 117h432l-311 -1757h-437l20 116h311z" />
    <glyph glyph-name="asciicircum" unicode="^" horiz-adv-x="1004" 
d="M782 1434l241 -568h-110l-186 415l-332 -415h-130l441 568h76z" />
    <glyph glyph-name="underscore" unicode="_" horiz-adv-x="1154" 
d="M81 -238l18 104h908l-18 -104h-908z" />
    <glyph glyph-name="grave" unicode="`" horiz-adv-x="607" 
d="M529 1434l173 -281h-141l-206 281h174z" />
    <glyph glyph-name="a" unicode="a" 
d="M618 84q164 0 288 117q122 117 154 296t-56 298q-86 119 -250 119t-286 -117t-154 -296t54 -298t250 -119zM595 -20q-206 0 -322 146q-117 146 -83 375t192 373t384 144q137 0 225 -72t116 -178l41 230h119l-176 -998h-119l36 205q-61 -101 -165 -163t-248 -62z" />
    <glyph glyph-name="b" unicode="b" horiz-adv-x="1226" 
d="M792 914q-164 0 -288 -117q-122 -117 -154 -296t56 -298q86 -119 250 -119t286 117t154 296t-54 298t-250 119zM815 1018q206 0 322 -146q117 -146 83 -375t-192 -373t-384 -144q-137 0 -225 72t-116 178l-40 -230h-120l267 1516h120l-128 -723q61 101 165 163t248 62z
" />
    <glyph glyph-name="c" unicode="c" horiz-adv-x="1061" 
d="M633 84q172 0 305 98l63 -90q-145 -112 -375 -112t-350 147q-122 147 -82 377t202 372t396 142t346 -133l-85 -71q-97 100 -273 100t-304 -119t-159 -296q-41 -251 111 -359q80 -56 205 -56z" />
    <glyph glyph-name="d" unicode="d" horiz-adv-x="1234" 
d="M618 84q164 0 288 117q122 117 154 296t-56 298q-86 119 -250 119t-286 -117t-154 -296t54 -298t250 -119zM595 -20q-206 0 -322 146q-117 146 -83 375t192 373t384 144q137 0 225 -72t116 -178l132 748h119l-267 -1516h-119l36 205q-61 -101 -165 -163t-248 -62z" />
    <glyph glyph-name="e" unicode="e" horiz-adv-x="1152" 
d="M737 914q-153 0 -265 -108t-141 -255h684q27 139 -38 252q-29 51 -91 81t-149 30zM754 1018q216 0 318 -148t52 -423h-812q-27 -137 42 -252q30 -51 92 -81t144 -30q198 0 364 96l53 -90q-161 -110 -427 -110q-220 0 -320 143t-68 373q34 230 190 376t372 146z" />
    <glyph glyph-name="f" unicode="f" horiz-adv-x="822" 
d="M880 1536q90 0 153 -34l-50 -92q-56 22 -119 22t-105 -16q-81 -32 -119 -116t-63 -227l-14 -75h309l-18 -104h-309l-157 -894h-120l157 894h-211l18 104h211l14 75q33 187 76 269q43 81 87 117q44 37 106 57q64 20 154 20z" />
    <glyph glyph-name="g" unicode="g" horiz-adv-x="1232" 
d="M624 84q164 0 288 117q122 117 154 296t-56 298q-86 119 -250 119t-286 -117t-154 -296t54 -298t250 -119zM519 -532q-269 0 -414 113l66 95q161 -104 359 -104t304 104t144 324l36 205q-61 -101 -165 -163t-248 -62q-206 0 -322 146q-117 146 -83 375t192 373t384 144
q137 0 225 -72t116 -178l40 230h120l-175 -998q-80 -532 -579 -532z" />
    <glyph glyph-name="h" unicode="h" horiz-adv-x="1151" 
d="M757 1018q206 0 299 -122t55 -340l-98 -556h-120l98 556q29 168 -31 263t-221 95t-255 -96t-123 -262l-98 -556h-120l267 1516h120l-124 -705q49 93 145 150t206 57z" />
    <glyph glyph-name="i" unicode="i" horiz-adv-x="426" 
d="M442 1373q38 1 59 -25t15 -62t-34 -60t-66 -25t-58 25t-14 62t34 60q26 24 64 25zM143 0l175 998h120l-175 -998h-120z" />
    <glyph glyph-name="j" unicode="j" horiz-adv-x="459" 
d="M-89 -428q49 0 79 12t52 27q22 16 40 47t29 56t22 68q11 42 16 70t14 77l188 1069h120l-188 -1069q-34 -190 -72 -269q-39 -80 -78 -116q-84 -76 -227 -76q-91 0 -146 30l51 94q51 -20 100 -20zM476 1373q38 1 58 -25t14 -62t-34 -60t-64 -25q-38 -1 -59 25t-15 62t34 60
t66 25z" />
    <glyph glyph-name="k" unicode="k" horiz-adv-x="1014" 
d="M143 0l267 1516h120l-175 -989l608 471h179l-517 -401l367 -597h-136l-323 526l-206 -159l-64 -367h-120z" />
    <glyph glyph-name="l" unicode="l" horiz-adv-x="500" 
d="M344 0q-103 0 -129 53t-6 167l229 1296h120l-229 -1296q-13 -75 -4 -95t37 -21h45l-18 -104h-45z" />
    <glyph glyph-name="m" unicode="m" horiz-adv-x="1744" 
d="M718 1018q270 0 319 -227q40 80 102 131q116 96 251 96q192 0 274 -116t40 -347l-97 -555h-120l97 555q64 359 -212 359q-142 0 -226 -97t-114 -262l-97 -555h-120l97 555q64 359 -212 359q-142 0 -226 -97t-114 -262l-97 -555h-120l175 998h120l-29 -167q38 79 123 133
t186 54z" />
    <glyph glyph-name="n" unicode="n" horiz-adv-x="1151" 
d="M757 1018q206 0 299 -122t55 -340l-98 -556h-120l98 556q29 168 -31 263t-221 95t-255 -96t-123 -262l-98 -556h-120l176 998h120l-33 -187q49 93 145 150t206 57z" />
    <glyph glyph-name="o" unicode="o" horiz-adv-x="1227" 
d="M633 84q175 0 303 119t158 296q44 249 -110 359q-79 56 -204 56q-176 0 -304 -119t-159 -296q-41 -251 111 -359q80 -56 205 -56zM786 1018q228 0 349 -147t82 -377t-202 -372t-391 -142t-348 147q-122 147 -82 377t202 372t390 142z" />
    <glyph glyph-name="p" unicode="p" horiz-adv-x="1226" 
d="M790 914q-164 0 -286 -117t-154 -296t54 -298t251 -119t287 117t153 296t-55 298t-250 119zM814 1018q206 0 322 -146t82 -375t-190 -373q-158 -144 -385 -144q-137 0 -225 72t-116 178l-134 -762h-119l269 1530h119l-36 -205q61 101 165 163t248 62z" />
    <glyph glyph-name="q" unicode="q" horiz-adv-x="1226" 
d="M618 84q164 0 288 117q122 117 154 296t-56 298q-86 119 -250 119t-286 -117t-154 -296t54 -298t250 -119zM595 -20q-206 0 -322 146q-117 146 -83 375t192 373t384 144q137 0 225 -72t116 -178l40 230h120l-269 -1530h-120l130 737q-61 -101 -165 -163t-248 -62z" />
    <glyph glyph-name="r" unicode="r" horiz-adv-x="835" 
d="M739 914q-157 0 -253 -96t-125 -262l-98 -556h-120l175 998h120l-32 -187q57 95 150 151q92 56 204 56t198 -46l-77 -93q-62 35 -142 35z" />
    <glyph glyph-name="s" unicode="s" horiz-adv-x="940" 
d="M634 914q-253 0 -282 -160q-13 -75 43 -116q56 -40 228 -74t250 -103t59 -204t-136 -206t-311 -71q-249 0 -385 116l63 89q143 -101 340 -101q279 0 309 174q16 86 -42 130t-234 79q-176 33 -248 105t-55 188t119 187t300 71q129 0 214 -30t120 -60l-63 -89
q-116 75 -289 75z" />
    <glyph glyph-name="t" unicode="t" horiz-adv-x="826" 
d="M602 84q49 0 108 19l24 -99q-60 -24 -166 -24t-168 50t-73 142t10 220l88 502h-211l18 104h211l53 299h120l-53 -299h309l-18 -104h-309l-79 -451q-35 -200 -15 -265t71 -83q31 -11 80 -11z" />
    <glyph glyph-name="u" unicode="u" horiz-adv-x="1150" 
d="M577 -20q-206 0 -299 122t-55 340l98 556h120l-98 -556q-29 -168 31 -263t221 -95t255 96t123 262l98 556h120l-176 -998h-120l33 187q-49 -93 -145 -150t-206 -57z" />
    <glyph glyph-name="v" unicode="v" horiz-adv-x="1074" 
d="M480 0l-243 998h129l199 -856l499 856h141l-593 -998h-132z" />
    <glyph glyph-name="w" unicode="w" horiz-adv-x="1580" 
d="M1062 0l-121 793l-399 -793h-124l-181 998h128l138 -824l415 824h106l125 -824l428 824h134l-531 -998h-118z" />
    <glyph glyph-name="x" unicode="x" horiz-adv-x="1068" 
d="M713 526l324 -526h-144l-262 439l-416 -439h-162l507 526l-289 472h144l229 -385l363 385h162z" />
    <glyph glyph-name="y" unicode="y" horiz-adv-x="1079" 
d="M128 -429q36 -1 56 7t37 24q43 37 64 66t43 65l157 267l-243 998h129l199 -856l499 856h141l-765 -1287q-83 -141 -153 -192t-162 -51q-93 0 -151 36l62 92q51 -25 87 -25z" />
    <glyph glyph-name="z" unicode="z" horiz-adv-x="1072" 
d="M123 0l10 61l794 833h-611l18 104h799l-10 -60l-794 -834h647l-18 -104h-835z" />
    <glyph glyph-name="braceleft" unicode="{" horiz-adv-x="814" 
d="M381 586q193 -85 133 -420q-59 -336 162 -336l-21 -116q-156 0 -230 124t-37 334q24 129 8 186q-14 58 -32 85q-44 68 -179 94l20 114q133 23 213 98q81 74 118 281q37 208 138 326t285 118l-21 -116q-116 0 -183 -91t-97 -257q-59 -338 -277 -424z" />
    <glyph glyph-name="bar" unicode="|" horiz-adv-x="412" 
d="M49 -532l346 1966h126l-346 -1966h-126z" />
    <glyph glyph-name="braceright" unicode="}" horiz-adv-x="813" 
d="M617 602q-193 85 -133 420q59 336 -162 336l21 116q156 0 230 -124t37 -334q-24 -129 -8 -186q14 -58 32 -85q44 -68 179 -94l-20 -114q-133 -23 -213 -98q-81 -74 -118 -281q-37 -208 -138 -326t-285 -118l21 116q116 0 183 91t97 257q59 338 277 424z" />
    <glyph glyph-name="asciitilde" unicode="~" horiz-adv-x="1020" 
d="M454 795q-34 -1 -64 -33q-32 -32 -42 -64l-9 -32h-123q36 179 182 229q40 14 98 14t101 -27q42 -27 80 -83q39 -55 48 -65q32 -34 80 -33q47 1 79 33t42 64l9 32h123q-36 -179 -182 -229q-40 -14 -88 -14q-48 -1 -86 15t-56 35q-20 19 -36 40t-28 41q-14 20 -22 29
q-8 10 -22 23t-32 19t-52 6z" />
    <glyph glyph-name="uni00A0" unicode="&#xa0;" horiz-adv-x="573" 
 />
    <glyph glyph-name="exclamdown" unicode="&#xa1;" horiz-adv-x="463" 
d="M338 732q-40 0 -62 26t-16 64t36 64q28 26 68 26t62 -26t14 -65q-6 -37 -34 -63t-68 -26zM362 586l-187 -1118h-126l207 1118h106z" />
    <glyph glyph-name="cent" unicode="&#xa2;" horiz-adv-x="1061" 
d="M633 84q172 0 305 98l63 -90q-133 -104 -346 -111l-35 -201h-110l36 205q-190 25 -290 167t-62 353q37 211 180 350t353 159l36 204h110l-36 -202q201 -13 301 -131l-85 -71q-97 100 -273 100t-304 -119t-159 -296q-41 -251 111 -359q80 -56 205 -56z" />
    <glyph glyph-name="sterling" unicode="&#xa3;" horiz-adv-x="1378" 
d="M1003 1454q97 0 167 -21q119 -36 182 -108q63 -73 84 -141l-98 -49q-56 147 -214 189q-54 14 -118 14q-182 0 -290 -102q-132 -124 -144 -350q-3 -52 -3 -86v-35h508l-20 -116h-488q2 -196 -8 -259q-22 -150 -150 -274h815l-20 -116h-970l16 93q154 153 182 325
q10 66 9 231h-159l20 116h139q0 147 12 212t35 128t68 129t105 112q59 48 151 78t189 30z" />
    <glyph glyph-name="currency" unicode="&#xa4;" horiz-adv-x="991" 
d="M399 1072q0 -115 81 -196t196 -81t196 81t81 196t-81 196t-196 81t-196 -81t-81 -196zM674 1454q126 0 228 -75l122 122l79 -80l-122 -122q76 -100 76 -227t-76 -228l122 -121l-78 -79l-122 122q-103 -76 -229 -76t-227 75l-122 -122l-79 80l121 122q-75 101 -74 227
q0 126 75 228l-121 122l78 79l122 -123q101 76 227 76z" />
    <glyph glyph-name="yen" unicode="&#xa5;" horiz-adv-x="1348" 
d="M803 380h334l-21 -114h-333l-46 -266h-126l46 266h-333l21 114h332l19 104h-333l20 114h333l-411 836h144l343 -703l593 703h162l-705 -836h333l-20 -114h-333z" />
    <glyph glyph-name="brokenbar" unicode="&#xa6;" horiz-adv-x="412" 
d="M49 -532l137 777h126l-137 -777h-126zM259 658l136 776h126l-136 -776h-126z" />
    <glyph glyph-name="section" unicode="&#xa7;" horiz-adv-x="1322" 
d="M823 678q-203 41 -305 100q-149 -71 -175 -214t40 -211q65 -67 298 -114q172 -38 273 -96q151 73 176 216t-40 210q-64 68 -267 109zM919 1454q171 0 281 -40t154 -70l17 -13l-84 -99q-73 50 -179 78t-207 28q-100 0 -182 -24q-83 -24 -145 -82t-80 -156t56 -164
q72 -66 308 -112t334 -146t68 -294t-208 -297q73 -88 54 -229q-22 -172 -166 -269t-386 -97q-171 0 -282 41q-112 41 -152 69l-18 13l84 99q74 -50 180 -78t206 -28t182 24t144 82t80 156t-54 164t-309 112q-236 46 -334 146t-69 294t208 296q-72 88 -51 245t165 254t385 97
z" />
    <glyph glyph-name="dieresis" unicode="&#xa8;" horiz-adv-x="756" 
d="M798 1373q38 1 59 -25t15 -62t-34 -60t-66 -25t-58 25t-14 62t34 60q26 24 64 25zM456 1373q38 1 59 -25t15 -62t-34 -60t-66 -25t-58 25t-14 62t34 60q26 24 64 25z" />
    <glyph glyph-name="copyright" unicode="&#xa9;" horiz-adv-x="1687" 
d="M348 717q0 -126 49 -241q49 -114 133 -198t198 -133q115 -49 241 -49t241 49q114 49 198 133t133 198q49 115 49 241t-49 241q-49 114 -133 198t-198 133q-115 49 -241 49t-241 -49q-114 -49 -198 -133t-133 -198q-49 -115 -49 -241zM233 717q1 151 59 287t156 234
t236 158q136 58 286 58t286 -58t236 -158q98 -98 156 -234t59 -287q-1 -151 -59 -287t-156 -234t-236 -158q-136 -58 -286 -58t-286 58t-236 158q-98 98 -156 234t-59 287zM575 717q1 174 115 290t280 116t286 -108l-72 -77q-48 42 -95 61t-113 19q-132 0 -206 -86t-73 -215
q-1 -129 73 -215t206 -86q66 0 113 19t95 61l72 -77q-120 -108 -286 -108t-280 116t-115 290z" />
    <glyph glyph-name="ordfeminine" unicode="&#xaa;" horiz-adv-x="696" 
d="M476 814q90 0 155 60q66 60 85 165l9 51q-148 12 -233 -9q-84 -22 -119 -55q-35 -34 -45 -90t24 -89t124 -33zM723 1302q-32 32 -131 32t-179 -34l-26 -12l-38 99q39 21 112 39t139 18q160 0 218 -69t28 -237l-75 -424h-113l23 128q-75 -138 -231 -138q-120 0 -186 62
t-47 182q19 121 128 179q109 59 249 61q70 0 145 -5q16 87 -16 119z" />
    <glyph glyph-name="guillemotleft" unicode="&#xab;" horiz-adv-x="1325" 
d="M714 632l710 487l-26 -157l-535 -366l406 -356l-26 -147l-538 487zM236 632l710 487l-26 -157l-535 -366l406 -356l-26 -147l-538 487z" />
    <glyph glyph-name="logicalnot" unicode="&#xac;" horiz-adv-x="1151" 
d="M212 691l20 116h953l-91 -516h-126l71 400h-827z" />
    <glyph glyph-name="uni00AD" unicode="&#xad;" horiz-adv-x="974" 
d="M216 573l20 116h762l-20 -116h-762z" />
    <glyph glyph-name="registered" unicode="&#xae;" horiz-adv-x="1072" 
d="M767 1190h-116l-28 -160h116q38 0 59 23t27 57q14 80 -58 80zM778 1252q62 0 92 -42t22 -96t-42 -92q-34 -36 -82 -48l79 -192h-71l-73 186h-91l-33 -186h-66l83 470h182zM326 1012q0 -154 109 -264t264 -109q155 -1 264 109t109 264t-109 264t-264 109q-155 1 -264 -109
t-109 -264zM258 1012q0 182 130 312t312 130t312 -130t130 -312t-130 -312t-312 -130t-312 130t-130 312z" />
    <glyph glyph-name="macron" unicode="&#xaf;" horiz-adv-x="892" 
d="M337 1330l18 104h686l-18 -104h-686z" />
    <glyph glyph-name="degree" unicode="&#xb0;" horiz-adv-x="560" 
d="M460 1091q61 1 104 39t54 95q10 57 -20 95t-91 39q-61 -1 -104 -39t-53 -95t19 -95q30 -38 91 -39zM516 1454q98 0 156 -68t40 -164t-90 -160t-170 -64t-155 67t-40 163t89 160q72 66 170 66z" />
    <glyph glyph-name="plusminus" unicode="&#xb1;" horiz-adv-x="1111" 
d="M1076 263l-21 -116h-932l21 116h932zM1186 890l-20 -116h-408l-72 -408h-116l72 408h-408l20 116h408l72 408h116l-72 -408h408z" />
    <glyph glyph-name="twosuperior" unicode="&#xb2;" horiz-adv-x="576" 
d="M530 1444q111 0 164 -56t40 -145q-13 -87 -79 -161q-24 -26 -67 -69l-201 -189h284l-20 -110h-472l14 77q299 282 314 297q93 91 102 141q19 105 -78 105t-164 -124l-102 46q25 54 69 100q85 88 196 88z" />
    <glyph glyph-name="threesuperior" unicode="&#xb3;" horiz-adv-x="591" 
d="M441 814q131 0 149 109q10 64 -36 85t-156 21l19 110q194 0 214 113q9 40 -17 61t-72 21t-88 -21t-65 -59l-91 61q32 49 92 89t161 40t155 -55t40 -127q-23 -133 -133 -180q51 -15 76 -57t14 -107q-38 -214 -273 -214q-143 0 -207 88q-13 18 -19 34l96 57q44 -69 141 -69
z" />
    <glyph glyph-name="acute" unicode="&#xb4;" horiz-adv-x="597" 
d="M301 1153l271 281h174l-304 -281h-141z" />
    <glyph glyph-name="mu" unicode="&#xb5;" horiz-adv-x="1147" 
d="M574 -20q-108 0 -181 56t-98 151l-126 -719h-120l269 1530h120l-98 -556q-28 -162 40 -260t212 -98q146 0 248 98t130 260l98 556h120l-175 -998h-120l32 187q-57 -95 -150 -151t-201 -56z" />
    <glyph glyph-name="paragraph" unicode="&#xb6;" horiz-adv-x="1212" 
d="M707 1318q-116 0 -197 -82t-100 -195t32 -195t167 -82h137l98 554h-137zM727 1434h614l-20 -116h-119l-232 -1318h-126l232 1318h-106l-232 -1318h-126l114 648h-137q-101 0 -177 55t-111 145q-34 90 -19 193q24 167 145 280t300 113z" />
    <glyph glyph-name="periodcentered" unicode="&#xb7;" horiz-adv-x="422" 
d="M356 750q40 0 62 -26t16 -64t-36 -64q-28 -26 -68 -26t-62 26t-14 65q6 37 34 63t68 26z" />
    <glyph glyph-name="cedilla" unicode="&#xb8;" horiz-adv-x="574" 
d="M4 -413l56 83q68 -34 124 -33q103 3 127 80q11 39 -11 59t-83 22q-61 1 -115 -11l132 249h107l-85 -161q81 1 127 -39q45 -40 29 -114t-62 -116t-106 -54q-128 -24 -240 35z" />
    <glyph glyph-name="onesuperior" unicode="&#xb9;" horiz-adv-x="350" 
d="M316 1171l-65 84l222 179h79l-127 -720h-113l94 530z" />
    <glyph glyph-name="ordmasculine" unicode="&#xba;" horiz-adv-x="768" 
d="M527 814q221 0 267 260t-175 260t-267 -260t175 -260zM516 704q-162 0 -232 100t-44 272t126 270q102 98 264 98t232 -100t44 -272t-126 -270q-102 -98 -264 -98z" />
    <glyph glyph-name="guillemotright" unicode="&#xbb;" horiz-adv-x="1325" 
d="M326 1119l538 -487l-9 -52l-710 -487l26 157l534 366l-405 356zM804 1119l538 -487l-9 -52l-710 -487l26 157l534 366l-405 356z" />
    <glyph glyph-name="onequarter" unicode="&#xbc;" horiz-adv-x="1464" 
d="M935 275h185l43 246zM1184 0h-113l29 165h-343l15 83l439 472h100l-78 -445h103l-20 -110h-103zM240 0l1075 1434h133l-1075 -1434h-133zM472 1171l-65 84l222 179h79l-127 -720h-113l94 530z" />
    <glyph glyph-name="onehalf" unicode="&#xbd;" horiz-adv-x="1484" 
d="M1237 730q111 0 164 -56t40 -145q-13 -87 -79 -161q-24 -26 -67 -69l-201 -189h284l-20 -110h-472l14 77q299 282 314 297q93 91 102 141q19 105 -78 105t-164 -124l-102 46q25 54 69 100q85 88 196 88zM240 0l1075 1434h133l-1075 -1434h-133zM472 1171l-65 84l222 179
h79l-127 -720h-113l94 530z" />
    <glyph glyph-name="threequarters" unicode="&#xbe;" horiz-adv-x="1511" 
d="M972 275h185l43 246zM1221 0h-113l29 165h-343l15 83l439 472h100l-78 -445h103l-20 -110h-103zM510 814q131 0 149 109q11 64 -35 85t-157 21l19 110q194 0 214 113q8 40 -18 61t-71 21q-46 0 -88 -21t-65 -59l-91 61q31 49 91 89t162 40q100 0 154 -55t42 -127
q-23 -133 -134 -180q51 -15 76 -57t14 -107q-38 -214 -273 -214q-143 0 -207 88q-13 18 -19 34l96 57q44 -69 141 -69zM287 0l1075 1434h133l-1075 -1434h-133z" />
    <glyph glyph-name="questiondown" unicode="&#xbf;" horiz-adv-x="967" 
d="M412 -552q-82 0 -150 16t-113 42q-100 59 -134 151q-34 93 -16 173q22 144 141 260t372 150l61 346h126l-77 -437q-208 -7 -338 -86t-159 -233q-21 -122 55 -194t242 -72q224 0 378 193l94 -66q-116 -167 -324 -223q-76 -20 -158 -20zM664 732q-40 0 -61 26t-15 64t34 64
t69 26q39 0 61 -26t16 -65q-6 -37 -36 -63q-28 -26 -68 -26z" />
    <glyph glyph-name="Agrave" unicode="&#xc0;" horiz-adv-x="1483" 
d="M890 1817l173 -281h-141l-206 281h174zM972 1255l-409 -684h576zM494 455l-271 -455h-150l863 1434h116l358 -1434h-131l-111 455h-674z" />
    <glyph glyph-name="Aacute" unicode="&#xc1;" horiz-adv-x="1483" 
d="M941 1536l271 281h174l-304 -281h-141zM972 1255l-409 -684h576zM494 455l-271 -455h-150l863 1434h116l358 -1434h-131l-111 455h-674z" />
    <glyph glyph-name="Acircumflex" unicode="&#xc2;" horiz-adv-x="1483" 
d="M1077 1847l198 -311h-97l-137 185l-201 -185h-117l306 311h48zM972 1255l-409 -684h576zM494 455l-271 -455h-150l863 1434h116l358 -1434h-131l-111 455h-674z" />
    <glyph glyph-name="Atilde" unicode="&#xc3;" horiz-adv-x="1483" 
d="M913 1671q-17 -1 -33 -21t-22 -41l-6 -21h-116q14 121 110 172q40 21 82 21t77 -18t60 -50q25 -33 40 -50t38 -17t39 21t22 41l5 21h116q-15 -121 -111 -172q-40 -21 -81 -21t-71 14t-44 30t-30 36l-24 30t-21 17q-13 8 -30 8zM972 1255l-409 -684h576zM494 455
l-271 -455h-150l863 1434h116l358 -1434h-131l-111 455h-674z" />
    <glyph glyph-name="Adieresis" unicode="&#xc4;" horiz-adv-x="1483" 
d="M1212 1728q38 0 58 -26t14 -61q-6 -37 -34 -61t-64 -24q-38 0 -59 26t-15 61q6 37 34 61t66 24zM870 1728q38 0 58 -26t14 -61q-6 -37 -34 -61t-64 -24q-38 0 -59 26t-15 61q6 37 34 61t66 24zM972 1255l-409 -684h576zM494 455l-271 -455h-150l863 1434h116l358 -1434
h-131l-111 455h-674z" />
    <glyph glyph-name="Aring" unicode="&#xc5;" horiz-adv-x="1483" 
d="M1022 1619q44 -1 76 27t38 70t-14 68q-20 27 -64 27q-44 1 -76 -27t-38 -70t14 -68q20 -27 64 -27zM1068 1895q78 0 120 -53q44 -52 32 -130t-72 -127q-58 -49 -136 -49t-120 52q-44 52 -32 131q12 78 72 127q58 49 136 49zM972 1255l-409 -684h576zM494 455l-271 -455
h-150l863 1434h116l358 -1434h-131l-111 455h-674z" />
    <glyph glyph-name="AE" unicode="&#xc6;" horiz-adv-x="2130" 
d="M1261 1218l-492 -581h390zM1312 791h756l-20 -116h-756l-99 -559h824l-20 -116h-950l91 521h-467l-442 -521h-156l1215 1434h941l-20 -116h-804z" />
    <glyph glyph-name="Ccedilla" unicode="&#xc7;" horiz-adv-x="1390" 
d="M1087 1454q275 0 423 -130l-77 -90q-137 104 -367 104q-140 0 -260 -50t-207 -135q-178 -178 -222 -436q-15 -86 -15 -163q0 -78 16 -148q31 -139 146 -224q115 -86 335 -86q219 0 392 104l56 -104q-158 -108 -447 -115l-55 -106q81 1 127 -39t30 -114t-64 -116
q-46 -42 -106 -54q-128 -25 -239 35l56 83q68 -34 124 -33q103 3 127 80q12 39 -10 59t-84 22q-61 1 -115 -11l104 196q-195 16 -323 118t-172 261q-46 159 -16 336q30 178 100 312t177 233q105 99 251 155t315 56z" />
    <glyph glyph-name="Egrave" unicode="&#xc8;" horiz-adv-x="1246" 
d="M814 1817l173 -281h-141l-206 281h174zM428 791h756l-20 -116h-756l-99 -559h824l-20 -116h-950l252 1434h930l-20 -116h-804z" />
    <glyph glyph-name="Eacute" unicode="&#xc9;" horiz-adv-x="1246" 
d="M820 1536l271 281h174l-304 -281h-141zM428 791h756l-20 -116h-756l-99 -559h824l-20 -116h-950l252 1434h930l-20 -116h-804z" />
    <glyph glyph-name="Ecircumflex" unicode="&#xca;" horiz-adv-x="1246" 
d="M985 1847l198 -311h-97l-137 185l-201 -185h-117l306 311h48zM428 791h756l-20 -116h-756l-99 -559h824l-20 -116h-950l252 1434h930l-20 -116h-804z" />
    <glyph glyph-name="Edieresis" unicode="&#xcb;" horiz-adv-x="1246" 
d="M1110 1728q38 0 59 -26t15 -61q-6 -37 -34 -61t-66 -24t-58 26t-14 61q6 37 34 61q26 24 64 24zM768 1728q38 0 59 -26t15 -61q-6 -37 -34 -61t-66 -24t-58 26t-14 61q6 37 34 61q26 24 64 24zM428 791h756l-20 -116h-756l-99 -559h824l-20 -116h-950l252 1434h930
l-20 -116h-804z" />
    <glyph glyph-name="Igrave" unicode="&#xcc;" horiz-adv-x="443" 
d="M400 1817l173 -281h-141l-206 281h174zM163 0l252 1434h126l-252 -1434h-126z" />
    <glyph glyph-name="Iacute" unicode="&#xcd;" horiz-adv-x="443" 
d="M428 1536l271 281h174l-304 -281h-141zM163 0l252 1434h126l-252 -1434h-126z" />
    <glyph glyph-name="Icircumflex" unicode="&#xce;" horiz-adv-x="433" 
d="M575 1847l198 -311h-97l-137 185l-201 -185h-117l306 311h48zM163 0l252 1434h126l-252 -1434h-126z" />
    <glyph glyph-name="Idieresis" unicode="&#xcf;" horiz-adv-x="441" 
d="M696 1708q38 0 59 -26t15 -61q-6 -37 -34 -61t-66 -24t-58 26t-14 61q6 37 34 61q26 24 64 24zM354 1708q38 0 59 -26t15 -61q-6 -37 -34 -61t-66 -24t-58 26t-14 61q6 37 34 61q26 24 64 24zM163 0l252 1434h126l-252 -1434h-126z" />
    <glyph glyph-name="Eth" unicode="&#xd0;" horiz-adv-x="1529" 
d="M724 116q357 0 538 245q107 145 144 356q31 154 0 296q-31 141 -147 223q-116 81 -323 82h-326l-96 -543h307l-20 -116h-307l-96 -543h326zM956 1434q292 0 450 -155q185 -181 128 -562q-56 -343 -264 -530t-566 -187h-452l116 659h-200l20 116h200l116 659h452z" />
    <glyph glyph-name="Ntilde" unicode="&#xd1;" horiz-adv-x="1417" 
d="M882 1671q-18 -1 -34 -21t-22 -41l-5 -21h-116q15 121 111 172q40 21 81 21q42 0 77 -18t60 -50q25 -33 40 -50t38 -17t39 21t21 41l6 21h116q-14 -121 -110 -172q-40 -21 -82 -21t-72 14t-44 30t-30 36t-23 30q-8 10 -21 17q-13 8 -30 8zM163 0l252 1434h140l605 -1252
l220 1252h126l-252 -1434h-141l-604 1252l-220 -1252h-126z" />
    <glyph glyph-name="Ograve" unicode="&#xd2;" horiz-adv-x="1662" 
d="M1006 1817l173 -281h-141l-206 281h174zM362 554q0 -78 16 -148q31 -139 146 -224q115 -86 323 -86q140 0 261 50t207 135q178 178 222 436q31 154 0 301t-146 234q-116 86 -343 86q-122 0 -242 -50t-207 -135q-178 -178 -222 -436q-15 -86 -15 -163zM856 -20
q-140 0 -234 26t-161 74q-146 102 -198 272q-52 171 -20 347q31 177 101 311t177 233q105 99 251 155t286 56t234 -26t162 -74q145 -100 197 -273q53 -173 16 -364q-55 -321 -274 -526q-105 -99 -251 -155t-286 -56z" />
    <glyph glyph-name="Oacute" unicode="&#xd3;" horiz-adv-x="1662" 
d="M1033 1536l271 281h174l-304 -281h-141zM362 554q0 -78 16 -148q31 -139 146 -224q115 -86 323 -86q140 0 261 50t207 135q178 178 222 436q31 154 0 301t-146 234q-116 86 -343 86q-122 0 -242 -50t-207 -135q-178 -178 -222 -436q-15 -86 -15 -163zM856 -20
q-140 0 -234 26t-161 74q-146 102 -198 272q-52 171 -20 347q31 177 101 311t177 233q105 99 251 155t286 56t234 -26t162 -74q145 -100 197 -273q53 -173 16 -364q-55 -321 -274 -526q-105 -99 -251 -155t-286 -56z" />
    <glyph glyph-name="Ocircumflex" unicode="&#xd4;" horiz-adv-x="1662" 
d="M1179 1847l198 -311h-97l-137 185l-201 -185h-117l306 311h48zM362 554q0 -78 16 -148q31 -139 146 -224q115 -86 323 -86q140 0 261 50t207 135q178 178 222 436q31 154 0 301t-146 234q-116 86 -343 86q-122 0 -242 -50t-207 -135q-178 -178 -222 -436
q-15 -86 -15 -163zM856 -20q-140 0 -234 26t-161 74q-146 102 -198 272q-52 171 -20 347q31 177 101 311t177 233q105 99 251 155t286 56t234 -26t162 -74q145 -100 197 -273q53 -173 16 -364q-55 -321 -274 -526q-105 -99 -251 -155t-286 -56z" />
    <glyph glyph-name="Otilde" unicode="&#xd5;" horiz-adv-x="1662" 
d="M1005 1671q-17 -1 -33 -21t-22 -41l-6 -21h-116q14 121 110 172q40 21 82 21t77 -18t60 -50q25 -33 40 -50t38 -17t39 21t22 41l5 21h116q-15 -121 -111 -172q-40 -21 -81 -21t-71 14t-44 30t-30 36l-24 30t-21 17q-13 8 -30 8zM362 554q0 -78 16 -148q31 -139 146 -224
q115 -86 323 -86q140 0 261 50t207 135q178 178 222 436q31 154 0 301t-146 234q-116 86 -343 86q-122 0 -242 -50t-207 -135q-178 -178 -222 -436q-15 -86 -15 -163zM856 -20q-140 0 -234 26t-161 74q-146 102 -198 272q-52 171 -20 347q31 177 101 311t177 233
q105 99 251 155t286 56t234 -26t162 -74q145 -100 197 -273q53 -173 16 -364q-55 -321 -274 -526q-105 -99 -251 -155t-286 -56z" />
    <glyph glyph-name="Odieresis" unicode="&#xd6;" horiz-adv-x="1662" 
d="M1304 1728q38 0 58 -26t14 -61q-6 -37 -34 -61t-64 -24q-38 0 -59 26t-15 61q6 37 34 61t66 24zM962 1728q38 0 58 -26t14 -61q-6 -37 -34 -61t-64 -24q-38 0 -59 26t-15 61q6 37 34 61t66 24zM362 554q0 -78 16 -148q31 -139 146 -224q115 -86 323 -86q140 0 261 50
t207 135q178 178 222 436q31 154 0 301t-146 234q-116 86 -343 86q-122 0 -242 -50t-207 -135q-178 -178 -222 -436q-15 -86 -15 -163zM856 -20q-140 0 -234 26t-161 74q-146 102 -198 272q-52 171 -20 347q31 177 101 311t177 233q105 99 251 155t286 56t234 -26t162 -74
q145 -100 197 -273q53 -173 16 -364q-55 -321 -274 -526q-105 -99 -251 -155t-286 -56z" />
    <glyph glyph-name="multiply" unicode="&#xd7;" horiz-adv-x="1109" 
d="M760 660l271 -329l-95 -86l-274 332l-388 -331l-84 93l393 334l-267 324l96 85l268 -326l394 335l83 -93z" />
    <glyph glyph-name="Oslash" unicode="&#xd8;" horiz-adv-x="1662" 
d="M1056 1338q-130 0 -250 -50t-207 -135q-178 -178 -222 -436q-32 -178 3 -318t146 -218l751 1126q-91 31 -221 31zM855 96q132 0 253 50t207 135q178 178 222 436q32 181 -4 321t-150 218l-751 -1128q91 -32 223 -32zM840 -20q-156 0 -276 46l-58 -87h-141l94 142
q-138 93 -193 261q-56 168 -24 350t102 318q70 134 177 233q105 99 251 155t302 56t272 -45l57 86h139l-92 -139q141 -94 197 -262q57 -168 25 -352t-102 -318t-177 -233q-105 -99 -251 -155t-302 -56z" />
    <glyph glyph-name="Ugrave" unicode="&#xd9;" horiz-adv-x="1433" 
d="M925 1817l173 -281h-141l-206 281h174zM740 96q210 0 339 132q128 132 169 366l148 840h126l-148 -840q-53 -300 -220 -457t-418 -157t-382 164q-130 164 -81 450l148 840h126l-148 -840q-41 -230 45 -364t296 -134z" />
    <glyph glyph-name="Uacute" unicode="&#xda;" horiz-adv-x="1433" 
d="M890 1536l271 281h174l-304 -281h-141zM740 96q210 0 339 132q128 132 169 366l148 840h126l-148 -840q-53 -300 -220 -457t-418 -157t-382 164q-130 164 -81 450l148 840h126l-148 -840q-41 -230 45 -364t296 -134z" />
    <glyph glyph-name="Ucircumflex" unicode="&#xdb;" horiz-adv-x="1433" 
d="M1067 1847l198 -311h-97l-137 185l-201 -185h-117l306 311h48zM740 96q210 0 339 132q128 132 169 366l148 840h126l-148 -840q-53 -300 -220 -457t-418 -157t-382 164q-130 164 -81 450l148 840h126l-148 -840q-41 -230 45 -364t296 -134z" />
    <glyph glyph-name="Udieresis" unicode="&#xdc;" horiz-adv-x="1433" 
d="M1192 1728q38 0 59 -26t15 -61q-6 -37 -34 -61t-66 -24t-58 26t-14 61q6 37 34 61q26 24 64 24zM850 1728q38 0 59 -26t15 -61q-6 -37 -34 -61t-66 -24t-58 26t-14 61q6 37 34 61q26 24 64 24zM740 96q210 0 339 132q128 132 169 366l148 840h126l-148 -840
q-53 -300 -220 -457t-418 -157t-382 164q-130 164 -81 450l148 840h126l-148 -840q-41 -230 45 -364t296 -134z" />
    <glyph glyph-name="Yacute" unicode="&#xdd;" horiz-adv-x="1388" 
d="M876 1536l271 281h174l-304 -281h-141zM469 1434l343 -703l593 703h162l-705 -836l-105 -598h-126l105 598l-411 836h144z" />
    <glyph glyph-name="Thorn" unicode="&#xde;" horiz-adv-x="1018" 
d="M709 1001h-264l-100 -568h264q197 0 277 180q76 169 11 299q-21 40 -69 64t-119 25zM729 1117q93 0 161 -33q68 -32 104 -88q80 -125 50 -279q-28 -184 -146 -292t-310 -108h-264l-55 -317h-126l252 1434h126l-56 -317h264z" />
    <glyph glyph-name="germandbls" unicode="&#xdf;" horiz-adv-x="1270" 
d="M722 96q150 0 250 77t126 222t-49 223q-74 78 -226 77h-196l21 116h194q96 0 194 62q97 62 120 192q22 129 -49 201t-239 72q-99 0 -135 -13q-37 -13 -68 -29t-54 -39q-119 -114 -166 -372l-156 -885h-126l156 885q84 484 401 553q73 16 169 16q213 0 317 -111t75 -281
q-19 -106 -91 -188t-163 -117q113 -43 165 -139t30 -228q-30 -186 -162 -298t-332 -112t-293 68l20 116q117 -68 267 -68z" />
    <glyph glyph-name="agrave" unicode="&#xe0;" 
d="M618 84q164 0 288 117q122 117 154 296t-56 298q-86 119 -250 119t-286 -117t-154 -296t54 -298t250 -119zM595 -20q-206 0 -322 146q-117 146 -83 375t192 373t384 144q137 0 225 -72t116 -178l41 230h119l-176 -998h-119l36 205q-61 -101 -165 -163t-248 -62zM710 1434
l173 -281h-141l-206 281h174z" />
    <glyph glyph-name="aacute" unicode="&#xe1;" 
d="M618 84q164 0 288 117q122 117 154 296t-56 298q-86 119 -250 119t-286 -117t-154 -296t54 -298t250 -119zM595 -20q-206 0 -322 146q-117 146 -83 375t192 373t384 144q137 0 225 -72t116 -178l41 230h119l-176 -998h-119l36 205q-61 -101 -165 -163t-248 -62zM736 1153
l271 281h174l-304 -281h-141z" />
    <glyph glyph-name="acircumflex" unicode="&#xe2;" 
d="M618 84q164 0 288 117q122 117 154 296t-56 298q-86 119 -250 119t-286 -117t-154 -296t54 -298t250 -119zM595 -20q-206 0 -322 146q-117 146 -83 375t192 373t384 144q137 0 225 -72t116 -178l41 230h119l-176 -998h-119l36 205q-61 -101 -165 -163t-248 -62zM875 1434
l198 -311h-97l-137 185l-201 -185h-117l306 311h48z" />
    <glyph glyph-name="atilde" unicode="&#xe3;" 
d="M618 84q164 0 288 117q122 117 154 296t-56 298q-86 119 -250 119t-286 -117t-154 -296t54 -298t250 -119zM595 -20q-206 0 -322 146q-117 146 -83 375t192 373t384 144q137 0 225 -72t116 -178l41 230h119l-176 -998h-119l36 205q-61 -101 -165 -163t-248 -62zM721 1324
q-17 0 -33 -21t-22 -41l-6 -21h-116q14 121 110 172q40 21 82 21t77 -18t60 -50t40 -50t38 -17t39 21t22 41l5 21h116q-15 -121 -111 -172q-40 -21 -81 -21q-41 1 -71 15t-44 29t-30 35l-24 30t-21 18t-30 8z" />
    <glyph glyph-name="adieresis" unicode="&#xe4;" 
d="M618 84q164 0 288 117q122 117 154 296t-56 298q-86 119 -250 119t-286 -117t-154 -296t54 -298t250 -119zM595 -20q-206 0 -322 146q-117 146 -83 375t192 373t384 144q137 0 225 -72t116 -178l41 230h119l-176 -998h-119l36 205q-61 -101 -165 -163t-248 -62z
M1016 1373q38 1 58 -25t14 -62t-34 -60t-64 -25q-38 -1 -59 25t-15 62t34 60t66 25zM674 1373q38 1 58 -25t14 -62t-34 -60t-64 -25q-38 -1 -59 25t-15 62t34 60t66 25z" />
    <glyph glyph-name="aring" unicode="&#xe5;" 
d="M618 84q164 0 288 117q122 117 154 296t-56 298q-86 119 -250 119t-286 -117t-154 -296t54 -298t250 -119zM595 -20q-206 0 -322 146q-117 146 -83 375t192 373t384 144q137 0 225 -72t116 -178l41 230h119l-176 -998h-119l36 205q-61 -101 -165 -163t-248 -62zM820 1218
q44 0 76 28t38 68q6 42 -14 69t-64 27t-76 -28t-38 -68q-6 -42 14 -69t64 -27zM866 1494q78 0 120 -53q44 -53 32 -131t-72 -126q-58 -49 -136 -49q-78 1 -120 53q-44 52 -32 130t72 127q58 49 136 49z" />
    <glyph glyph-name="ae" unicode="&#xe6;" horiz-adv-x="1892" 
d="M1477 914q-153 0 -265 -108t-141 -255h684q27 139 -38 252q-29 51 -91 81t-149 30zM486 84q198 0 306 118t130 235l19 111q-321 30 -519 -64q-118 -56 -138 -170t38 -172t164 -58zM745 1018q287 0 328 -197q78 93 186 145t232 52q219 0 321 -148t52 -423h-812
q-27 -137 42 -252q30 -51 92 -81t144 -30q193 0 362 99l55 -93q-179 -110 -435 -110q-140 0 -232 62t-130 177q-176 -239 -478 -239q-186 0 -273 112q-63 81 -41 214q52 307 537 339q127 8 262 -5q27 150 -21 212t-212 62t-332 -71l-38 96q174 79 391 79z" />
    <glyph glyph-name="ccedilla" unicode="&#xe7;" horiz-adv-x="1061" 
d="M792 1018q234 0 346 -133l-85 -71q-97 100 -273 100t-304 -119t-159 -296q-41 -251 111 -359q80 -56 205 -56q172 0 305 98l63 -90q-134 -104 -348 -111l-55 -106q81 1 127 -39q45 -40 29 -114t-62 -116t-106 -54q-128 -25 -240 35l56 83q68 -34 124 -33q103 3 127 80
q11 39 -11 59t-83 22q-61 1 -115 -11l104 198q-191 23 -291 165q-99 142 -61 364q38 220 200 362t396 142z" />
    <glyph glyph-name="egrave" unicode="&#xe8;" horiz-adv-x="1152" 
d="M699 1434l173 -281h-141l-206 281h174zM737 914q-153 0 -265 -108t-141 -255h684q27 139 -38 252q-29 51 -91 81t-149 30zM754 1018q216 0 318 -148t52 -423h-812q-27 -137 42 -252q30 -51 92 -81t144 -30q198 0 364 96l53 -90q-161 -110 -427 -110q-220 0 -320 143
t-68 373q34 230 190 376t372 146z" />
    <glyph glyph-name="eacute" unicode="&#xe9;" horiz-adv-x="1172" 
d="M716 1153l271 281h174l-304 -281h-141zM737 914q-153 0 -265 -108t-141 -255h684q27 139 -38 252q-29 51 -91 81t-149 30zM754 1018q216 0 318 -148t52 -423h-812q-27 -137 42 -252q30 -51 92 -81t144 -30q198 0 364 96l53 -90q-161 -110 -427 -110q-220 0 -320 143
t-68 373q34 230 190 376t372 146z" />
    <glyph glyph-name="ecircumflex" unicode="&#xea;" horiz-adv-x="1152" 
d="M858 1434l198 -311h-97l-137 185l-201 -185h-117l306 311h48zM737 914q-153 0 -265 -108t-141 -255h684q27 139 -38 252q-29 51 -91 81t-149 30zM754 1018q216 0 318 -148t52 -423h-812q-27 -137 42 -252q30 -51 92 -81t144 -30q198 0 364 96l53 -90q-161 -110 -427 -110
q-220 0 -320 143t-68 373q34 230 190 376t372 146z" />
    <glyph glyph-name="edieresis" unicode="&#xeb;" horiz-adv-x="1152" 
d="M992 1373q38 1 58 -25t14 -62t-34 -60t-64 -25q-38 -1 -59 25t-15 62t34 60t66 25zM650 1373q38 1 58 -25t14 -62t-34 -60t-64 -25q-38 -1 -59 25t-15 62t34 60t66 25zM737 914q-153 0 -265 -108t-141 -255h684q27 139 -38 252q-29 51 -91 81t-149 30zM754 1018
q216 0 318 -148t52 -423h-812q-27 -137 42 -252q30 -51 92 -81t144 -30q198 0 364 96l53 -90q-161 -110 -427 -110q-220 0 -320 143t-68 373q34 230 190 376t372 146z" />
    <glyph glyph-name="igrave" unicode="&#xec;" horiz-adv-x="449" 
d="M324 1434l173 -281h-141l-206 281h174zM166 0l175 998h120l-175 -998h-120z" />
    <glyph glyph-name="iacute" unicode="&#xed;" horiz-adv-x="423" 
d="M338 1153l271 281h174l-304 -281h-141zM143 0l175 998h120l-175 -998h-120z" />
    <glyph glyph-name="icircumflex" unicode="&#xee;" horiz-adv-x="435" 
d="M497 1434l198 -311h-97l-137 185l-201 -185h-117l306 311h48zM161 0l175 998h120l-175 -998h-120z" />
    <glyph glyph-name="idieresis" unicode="&#xef;" horiz-adv-x="408" 
d="M614 1373q38 1 58 -25t14 -62t-34 -60t-64 -25q-38 -1 -59 25t-15 62t34 60t66 25zM272 1373q38 1 58 -25t14 -62t-34 -60t-64 -25q-38 -1 -59 25t-15 62t34 60t66 25zM143 0l175 998h120l-175 -998h-120z" />
    <glyph glyph-name="eth" unicode="&#xf0;" horiz-adv-x="1257" 
d="M620 84q164 0 286 117t154 296t-54 298t-251 119t-287 -117t-153 -296t55 -298t250 -119zM596 -20q-206 0 -322 146t-82 375t190 373q158 144 385 144q136 0 224 -72t116 -177q23 324 -96 498l-202 -131l-45 84l184 119q-101 89 -266 118l46 99q193 -27 318 -153l184 120
l46 -84l-169 -110q93 -137 109 -367t-42 -473q-91 -377 -391 -479q-89 -30 -187 -30z" />
    <glyph glyph-name="ntilde" unicode="&#xf1;" horiz-adv-x="1148" 
d="M691 1324q-17 0 -33 -21t-22 -41l-6 -21h-116q14 121 110 172q40 21 82 21t77 -18t60 -50t40 -50t38 -17t39 21t22 41l5 21h116q-15 -121 -111 -172q-40 -21 -81 -21q-41 1 -71 15t-44 29t-30 35l-24 30t-21 18t-30 8zM757 1018q206 0 299 -122t55 -340l-98 -556h-120
l98 556q29 168 -31 263t-221 95t-255 -96t-123 -262l-98 -556h-120l176 998h120l-33 -187q49 93 145 150t206 57z" />
    <glyph glyph-name="ograve" unicode="&#xf2;" horiz-adv-x="1227" 
d="M736 1434l173 -281h-141l-206 281h174zM633 84q175 0 303 119t158 296q44 249 -110 359q-79 56 -204 56q-176 0 -304 -119t-159 -296q-41 -251 111 -359q80 -56 205 -56zM786 1018q228 0 349 -147t82 -377t-202 -372t-391 -142t-348 147q-122 147 -82 377t202 372
t390 142z" />
    <glyph glyph-name="oacute" unicode="&#xf3;" horiz-adv-x="1227" 
d="M752 1153l271 281h174l-304 -281h-141zM633 84q175 0 303 119t158 296q44 249 -110 359q-79 56 -204 56q-176 0 -304 -119t-159 -296q-41 -251 111 -359q80 -56 205 -56zM786 1018q228 0 349 -147t82 -377t-202 -372t-391 -142t-348 147q-122 147 -82 377t202 372
t390 142z" />
    <glyph glyph-name="ocircumflex" unicode="&#xf4;" horiz-adv-x="1227" 
d="M894 1434l198 -311h-97l-137 185l-201 -185h-117l306 311h48zM633 84q175 0 303 119t158 296q44 249 -110 359q-79 56 -204 56q-176 0 -304 -119t-159 -296q-41 -251 111 -359q80 -56 205 -56zM786 1018q228 0 349 -147t82 -377t-202 -372t-391 -142t-348 147
q-122 147 -82 377t202 372t390 142z" />
    <glyph glyph-name="otilde" unicode="&#xf5;" horiz-adv-x="1227" 
d="M732 1324q-18 0 -34 -21t-22 -41l-5 -21h-116q15 121 111 172q40 21 81 21q42 0 77 -18t60 -50t40 -50t38 -17t39 21t21 41l6 21h116q-14 -121 -110 -172q-40 -21 -82 -21q-42 1 -72 15t-44 29t-30 35t-23 30q-8 10 -21 18t-30 8zM633 84q175 0 303 119t158 296
q44 249 -110 359q-79 56 -204 56q-176 0 -304 -119t-159 -296q-41 -251 111 -359q80 -56 205 -56zM786 1018q228 0 349 -147t82 -377t-202 -372t-391 -142t-348 147q-122 147 -82 377t202 372t390 142z" />
    <glyph glyph-name="odieresis" unicode="&#xf6;" horiz-adv-x="1227" 
d="M1028 1373q38 1 59 -25t15 -62t-34 -60t-66 -25t-58 25t-14 62t34 60q26 24 64 25zM686 1373q38 1 59 -25t15 -62t-34 -60t-66 -25t-58 25t-14 62t34 60q26 24 64 25zM633 84q175 0 303 119t158 296q44 249 -110 359q-79 56 -204 56q-176 0 -304 -119t-159 -296
q-41 -251 111 -359q80 -56 205 -56zM786 1018q228 0 349 -147t82 -377t-202 -372t-391 -142t-348 147q-122 147 -82 377t202 372t390 142z" />
    <glyph glyph-name="divide" unicode="&#xf7;" horiz-adv-x="917" 
d="M550 519q40 1 64 -27q22 -28 15 -68t-37 -66q-30 -27 -72 -27q-40 -1 -63 27t-15 68t38 66q30 27 70 27zM634 995q40 1 64 -27q22 -28 15 -68t-37 -66q-30 -27 -72 -27q-40 -1 -63 27t-15 68t38 66q30 27 70 27zM211 605l21 116h712l-21 -116h-712z" />
    <glyph glyph-name="oslash" unicode="&#xf8;" horiz-adv-x="1227" 
d="M780 914q-176 0 -304 -119t-159 -296q-40 -231 89 -343l494 742q-56 16 -120 16zM633 84q175 0 303 119t158 296q20 111 -4 201t-90 146l-497 -743q54 -19 130 -19zM794 1018q89 0 168 -28l46 69h134l-80 -120q96 -68 138 -183t18 -257q-40 -235 -203 -377t-396 -142
q-94 0 -178 30l-47 -71h-133l82 124q-94 69 -134 183t-16 253q41 235 203 377t398 142z" />
    <glyph glyph-name="ugrave" unicode="&#xf9;" horiz-adv-x="1150" 
d="M709 1434l173 -281h-141l-206 281h174zM577 -20q-206 0 -299 122t-55 340l98 556h120l-98 -556q-29 -168 31 -263t221 -95t255 96t123 262l98 556h120l-176 -998h-120l33 187q-49 -93 -145 -150t-206 -57z" />
    <glyph glyph-name="uacute" unicode="&#xfa;" horiz-adv-x="1150" 
d="M696 1153l271 281h174l-304 -281h-141zM577 -20q-206 0 -299 122t-55 340l98 556h120l-98 -556q-29 -168 31 -263t221 -95t255 96t123 262l98 556h120l-176 -998h-120l33 187q-49 -93 -145 -150t-206 -57z" />
    <glyph glyph-name="ucircumflex" unicode="&#xfb;" horiz-adv-x="1150" 
d="M857 1434l198 -311h-97l-137 185l-201 -185h-117l306 311h48zM577 -20q-206 0 -299 122t-55 340l98 556h120l-98 -556q-29 -168 31 -263t221 -95t255 96t123 262l98 556h120l-176 -998h-120l33 187q-49 -93 -145 -150t-206 -57z" />
    <glyph glyph-name="udieresis" unicode="&#xfc;" horiz-adv-x="1150" 
d="M992 1373q38 1 58 -25t14 -62t-34 -60t-64 -25q-38 -1 -59 25t-15 62t34 60t66 25zM650 1373q38 1 58 -25t14 -62t-34 -60t-64 -25q-38 -1 -59 25t-15 62t34 60t66 25zM577 -20q-206 0 -299 122t-55 340l98 556h120l-98 -556q-29 -168 31 -263t221 -95t255 96t123 262
l98 556h120l-176 -998h-120l33 187q-49 -93 -145 -150t-206 -57z" />
    <glyph glyph-name="yacute" unicode="&#xfd;" horiz-adv-x="1079" 
d="M651 1153l271 281h174l-304 -281h-141zM128 -429q36 -1 56 7t37 24q43 37 64 66t43 65l157 267l-243 998h129l199 -856l499 856h141l-765 -1287q-83 -141 -153 -192t-162 -51q-93 0 -151 36l62 92q51 -25 87 -25z" />
    <glyph glyph-name="thorn" unicode="&#xfe;" horiz-adv-x="1227" 
d="M792 914q-164 0 -286 -117t-154 -296t54 -298t251 -119t287 117t153 296t-55 298t-250 119zM816 1018q206 0 322 -146t82 -375t-190 -373q-158 -144 -385 -144q-137 0 -225 72t-116 178l-135 -762h-120l362 2048h120l-128 -723q61 101 165 163t248 62z" />
    <glyph glyph-name="ydieresis" unicode="&#xff;" horiz-adv-x="1079" 
d="M956 1373q38 1 59 -25t15 -62t-34 -60t-66 -25t-58 25t-14 62t34 60q26 24 64 25zM614 1373q38 1 59 -25t15 -62t-34 -60t-66 -25t-58 25t-14 62t34 60q26 24 64 25zM128 -429q36 -1 56 7t37 24q43 37 64 66t43 65l157 267l-243 998h129l199 -856l499 856h141l-765 -1287
q-83 -141 -153 -192t-162 -51q-93 0 -151 36l62 92q51 -25 87 -25z" />
    <glyph glyph-name="Amacron" unicode="&#x100;" horiz-adv-x="1483" 
d="M666 1536l18 104h686l-18 -104h-686zM972 1255l-409 -684h576zM494 455l-271 -455h-150l863 1434h116l358 -1434h-131l-111 455h-674z" />
    <glyph glyph-name="amacron" unicode="&#x101;" 
d="M618 84q164 0 288 117q122 117 154 296t-56 298q-86 119 -250 119t-286 -117t-154 -296t54 -298t250 -119zM595 -20q-206 0 -322 146q-117 146 -83 375t192 373t384 144q137 0 225 -72t116 -178l41 230h119l-176 -998h-119l36 205q-61 -101 -165 -163t-248 -62zM521 1330
l18 104h686l-18 -104h-686z" />
    <glyph glyph-name="Abreve" unicode="&#x102;" horiz-adv-x="1483" 
d="M1019 1556q-65 0 -113 16q-140 46 -174 206h96q40 -131 196 -131t242 131h104q-78 -152 -223 -201q-62 -21 -128 -21zM972 1255l-409 -684h576zM494 455l-271 -455h-150l863 1434h116l358 -1434h-131l-111 455h-674z" />
    <glyph glyph-name="abreve" unicode="&#x103;" 
d="M618 84q164 0 288 117q122 117 154 296t-56 298q-86 119 -250 119t-286 -117t-154 -296t54 -298t250 -119zM595 -20q-206 0 -322 146q-117 146 -83 375t192 373t384 144q137 0 225 -72t116 -178l41 230h119l-176 -998h-119l36 205q-61 -101 -165 -163t-248 -62zM852 1212
q-66 0 -114 16q-140 46 -173 206h96q41 -131 197 -131t241 131h104q-78 -152 -223 -201q-62 -21 -128 -21z" />
    <glyph glyph-name="Aogonek" unicode="&#x104;" horiz-adv-x="1483" 
d="M972 1255l-409 -684h576zM1344 -265h19l-20 -110q-120 -12 -190 46t-48 157q11 50 41 86t79 59t83 27h-29l-111 455h-674l-271 -455h-150l863 1434h116l358 -1434q-67 -6 -112 -34q-112 -70 -94 -160q7 -35 26 -45q47 -26 114 -26z" />
    <glyph glyph-name="aogonek" unicode="&#x105;" 
d="M618 84q164 0 288 117q122 117 154 296t-56 298q-86 119 -250 119t-286 -117t-154 -296t54 -298t250 -119zM1025 -265h19l-20 -110q-120 -12 -190 46t-48 157q10 48 39 84t78 60t84 28h-15l36 205q-61 -101 -165 -163t-248 -62q-206 0 -322 146q-117 146 -83 375t192 373
t384 144q137 0 225 -72t116 -178l41 230h119l-176 -998q-67 -6 -112 -34q-113 -70 -95 -160q7 -35 27 -45q47 -26 114 -26z" />
    <glyph glyph-name="Cacute" unicode="&#x106;" horiz-adv-x="1390" 
d="M1035 1536l271 281h174l-304 -281h-141zM1307 96q-168 -116 -485 -116t-480 214q-94 124 -108 326q-6 94 17 224t93 266q70 134 177 233q105 99 251 155t315 56q275 0 423 -130l-77 -90q-137 104 -367 104q-140 0 -260 -50t-207 -135q-178 -178 -222 -436
q-15 -86 -15 -163q0 -78 16 -148q31 -139 146 -224q115 -86 335 -86q219 0 392 104z" />
    <glyph glyph-name="cacute" unicode="&#x107;" horiz-adv-x="1092" 
d="M747 1153l271 281h174l-304 -281h-141zM633 84q172 0 305 98l63 -90q-145 -112 -375 -112t-350 147q-122 147 -82 377t202 372t396 142t346 -133l-85 -71q-97 100 -273 100t-304 -119t-159 -296q-41 -251 111 -359q80 -56 205 -56z" />
    <glyph glyph-name="Ccircumflex" unicode="&#x108;" horiz-adv-x="1390" 
d="M1180 1847l198 -311h-97l-137 185l-201 -185h-117l306 311h48zM1307 96q-168 -116 -485 -116t-480 214q-94 124 -108 326q-6 94 17 224t93 266q70 134 177 233q105 99 251 155t315 56q275 0 423 -130l-77 -90q-137 104 -367 104q-140 0 -260 -50t-207 -135
q-178 -178 -222 -436q-15 -86 -15 -163q0 -78 16 -148q31 -139 146 -224q115 -86 335 -86q219 0 392 104z" />
    <glyph glyph-name="ccircumflex" unicode="&#x109;" horiz-adv-x="1061" 
d="M906 1434l198 -311h-97l-137 185l-201 -185h-117l306 311h48zM633 84q172 0 305 98l63 -90q-145 -112 -375 -112t-350 147q-122 147 -82 377t202 372t396 142t346 -133l-85 -71q-97 100 -273 100t-304 -119t-159 -296q-41 -251 111 -359q80 -56 205 -56z" />
    <glyph glyph-name="Cdotaccent" unicode="&#x10a;" horiz-adv-x="1390" 
d="M1124 1728q38 0 58 -26t14 -61q-6 -37 -34 -61t-64 -24q-38 0 -59 26t-15 61q6 37 34 61t66 24zM1307 96q-168 -116 -485 -116t-480 214q-94 124 -108 326q-6 94 17 224t93 266q70 134 177 233q105 99 251 155t315 56q275 0 423 -130l-77 -90q-137 104 -367 104
q-140 0 -260 -50t-207 -135q-178 -178 -222 -436q-15 -86 -15 -163q0 -78 16 -148q31 -139 146 -224q115 -86 335 -86q219 0 392 104z" />
    <glyph glyph-name="cdotaccent" unicode="&#x10b;" horiz-adv-x="1061" 
d="M858 1373q38 1 59 -25t15 -62t-34 -60t-66 -25t-58 25t-14 62t34 60q26 24 64 25zM633 84q172 0 305 98l63 -90q-145 -112 -375 -112t-350 147q-122 147 -82 377t202 372t396 142t346 -133l-85 -71q-97 100 -273 100t-304 -119t-159 -296q-41 -251 111 -359
q80 -56 205 -56z" />
    <glyph glyph-name="Ccaron" unicode="&#x10c;" horiz-adv-x="1390" 
d="M1431 1847l-306 -311h-48l-198 311h97l137 -185l201 185h117zM1307 96q-168 -116 -485 -116t-480 214q-94 124 -108 326q-6 94 17 224t93 266q70 134 177 233q105 99 251 155t315 56q275 0 423 -130l-77 -90q-137 104 -367 104q-140 0 -260 -50t-207 -135
q-178 -178 -222 -436q-15 -86 -15 -163q0 -78 16 -148q31 -139 146 -224q115 -86 335 -86q219 0 392 104z" />
    <glyph glyph-name="ccaron" unicode="&#x10d;" horiz-adv-x="1066" 
d="M1143 1434l-306 -311h-48l-198 311h97l137 -185l201 185h117zM633 84q172 0 305 98l63 -90q-145 -112 -375 -112t-350 147q-122 147 -82 377t202 372t396 142t346 -133l-85 -71q-97 100 -273 100t-304 -119t-159 -296q-41 -251 111 -359q80 -56 205 -56z" />
    <glyph glyph-name="Dcaron" unicode="&#x10e;" horiz-adv-x="1440" 
d="M1166 1847l-306 -311h-48l-198 311h97l137 -185l201 185h117zM635 116q357 0 538 245q107 145 144 356q31 154 0 296q-31 141 -147 223t-323 82h-326l-212 -1202h326zM615 0h-452l252 1434h452q292 0 450 -155q185 -181 128 -562q-57 -343 -265 -530t-565 -187z" />
    <glyph glyph-name="dcaron" unicode="&#x10f;" horiz-adv-x="1312" 
d="M1347 1100l171 416h141l-203 -416h-109zM765 914q-171 0 -293 -117t-154 -299t50 -298q80 -116 250 -116t292 117t154 298t-48 298t-251 117zM600 -20q-218 0 -332 144t-74 375q42 231 206 375t383 144q125 0 216 -70t115 -167l130 735h120l-267 -1516h-120l38 217
q-59 -97 -175 -167t-240 -70z" />
    <glyph glyph-name="Dcroat" unicode="&#x110;" horiz-adv-x="1529" 
d="M724 116q357 0 538 245q107 145 144 356q31 154 0 296q-31 141 -147 223q-116 81 -323 82h-326l-96 -543h307l-20 -116h-307l-96 -543h326zM704 0h-452l116 659h-200l20 116h200l116 659h452q292 0 450 -155q185 -181 128 -562q-56 -343 -264 -530t-566 -187z" />
    <glyph glyph-name="dcroat" unicode="&#x111;" horiz-adv-x="1296" 
d="M618 84q164 0 288 117q122 117 154 296t-56 298q-86 119 -250 119t-286 -117t-154 -296t54 -298t250 -119zM595 -20q-206 0 -322 146q-117 146 -83 375t192 373t384 144q137 0 225 -72t116 -178l71 404h-271l18 104h272l42 240h119l-42 -240h206l-18 -104h-207
l-206 -1172h-119l36 205q-61 -101 -165 -163t-248 -62z" />
    <glyph glyph-name="Emacron" unicode="&#x112;" horiz-adv-x="1246" 
d="M555 1536l18 104h686l-18 -104h-686zM428 791h756l-20 -116h-756l-99 -559h824l-20 -116h-950l252 1434h930l-20 -116h-804z" />
    <glyph glyph-name="emacron" unicode="&#x113;" horiz-adv-x="1156" 
d="M472 1330l18 104h686l-18 -104h-686zM737 914q-153 0 -265 -108t-141 -255h684q27 139 -38 252q-29 51 -91 81t-149 30zM754 1018q216 0 318 -148t52 -423h-812q-27 -137 42 -252q30 -51 92 -81t144 -30q198 0 364 96l53 -90q-161 -110 -427 -110q-220 0 -320 143
t-68 373q34 230 190 376t372 146z" />
    <glyph glyph-name="Ebreve" unicode="&#x114;" horiz-adv-x="1246" 
d="M918 1556q-66 0 -114 16q-140 46 -173 206h96q41 -131 197 -131t241 131h104q-78 -152 -223 -201q-62 -21 -128 -21zM428 791h756l-20 -116h-756l-99 -559h824l-20 -116h-950l252 1434h930l-20 -116h-804z" />
    <glyph glyph-name="ebreve" unicode="&#x115;" horiz-adv-x="1163" 
d="M801 1212q-65 0 -113 16q-140 46 -174 206h96q40 -131 196 -131t242 131h104q-78 -152 -223 -201q-62 -21 -128 -21zM737 914q-153 0 -265 -108t-141 -255h684q27 139 -38 252q-29 51 -91 81t-149 30zM754 1018q216 0 318 -148t52 -423h-812q-27 -137 42 -252
q30 -51 92 -81t144 -30q198 0 364 96l53 -90q-161 -110 -427 -110q-220 0 -320 143t-68 373q34 230 190 376t372 146z" />
    <glyph glyph-name="Edotaccent" unicode="&#x116;" horiz-adv-x="1246" 
d="M940 1728q38 0 58 -26t14 -61q-6 -37 -34 -61t-64 -24q-38 0 -59 26t-15 61q6 37 34 61t66 24zM428 791h756l-20 -116h-756l-99 -559h824l-20 -116h-950l252 1434h930l-20 -116h-804z" />
    <glyph glyph-name="edotaccent" unicode="&#x117;" horiz-adv-x="1152" 
d="M820 1373q38 1 59 -25t15 -62t-34 -60t-66 -25t-58 25t-14 62t34 60q26 24 64 25zM737 914q-153 0 -265 -108t-141 -255h684q27 139 -38 252q-29 51 -91 81t-149 30zM754 1018q216 0 318 -148t52 -423h-812q-27 -137 42 -252q30 -51 92 -81t144 -30q198 0 364 96l53 -90
q-161 -110 -427 -110q-220 0 -320 143t-68 373q34 230 190 376t372 146z" />
    <glyph glyph-name="Eogonek" unicode="&#x118;" horiz-adv-x="1246" 
d="M1047 -265h19l-20 -110q-120 -12 -190 46t-48 157q10 50 40 86t80 59q49 23 83 27h-848l252 1434h930l-20 -116h-804l-93 -527h756l-20 -116h-756l-99 -559h824l-20 -116q-118 -16 -177 -88q-41 -50 -32 -95t29 -56q47 -26 114 -26z" />
    <glyph glyph-name="eogonek" unicode="&#x119;" horiz-adv-x="1152" 
d="M737 914q-153 0 -265 -108t-141 -255h684q27 139 -38 252q-29 51 -91 81t-149 30zM590 84q198 0 364 96l53 -90q-104 -71 -267 -97q-154 -39 -170 -147q-9 -65 33 -88t84 -23h43l-20 -110q-120 -12 -190 46t-48 159q22 102 137 151q-9 -1 -29 -1q-220 0 -320 143t-68 373
q34 230 190 376t372 146t318 -148t52 -423h-812q-27 -137 42 -252q30 -51 92 -81t144 -30z" />
    <glyph glyph-name="Ecaron" unicode="&#x11a;" horiz-adv-x="1246" 
d="M1238 1847l-306 -311h-48l-198 311h97l137 -185l201 185h117zM428 791h756l-20 -116h-756l-99 -559h824l-20 -116h-950l252 1434h930l-20 -116h-804z" />
    <glyph glyph-name="ecaron" unicode="&#x11b;" horiz-adv-x="1152" 
d="M1109 1434l-306 -311h-48l-198 311h97l137 -185l201 185h117zM737 914q-153 0 -265 -108t-141 -255h684q27 139 -38 252q-29 51 -91 81t-149 30zM754 1018q216 0 318 -148t52 -423h-812q-27 -137 42 -252q30 -51 92 -81t144 -30q198 0 364 96l53 -90q-161 -110 -427 -110
q-220 0 -320 143t-68 373q34 230 190 376t372 146z" />
    <glyph glyph-name="Gcircumflex" unicode="&#x11c;" horiz-adv-x="1512" 
d="M1188 1847l198 -311h-97l-137 185l-201 -185h-117l306 311h48zM852 96q109 0 229 26t203 75l83 468h-392l20 116h518l-113 -645q-223 -156 -559 -156t-499 214q-94 124 -108 326q-6 94 17 224t93 266q70 134 177 233q105 99 251 155t315 56q328 0 509 -168l-81 -90
q-96 76 -198 109q-103 33 -247 33q-286 0 -467 -181q-241 -241 -241 -603q0 -252 162 -372q116 -86 328 -86z" />
    <glyph glyph-name="gcircumflex" unicode="&#x11d;" horiz-adv-x="1232" 
d="M879 1434l198 -311h-97l-137 185l-201 -185h-117l306 311h48zM624 84q164 0 288 117q122 117 154 296t-56 298q-86 119 -250 119t-286 -117t-154 -296t54 -298t250 -119zM519 -532q-269 0 -414 113l66 95q161 -104 359 -104t304 104t144 324l36 205q-61 -101 -165 -163
t-248 -62q-206 0 -322 146q-117 146 -83 375t192 373t384 144q137 0 225 -72t116 -178l40 230h120l-175 -998q-80 -532 -579 -532z" />
    <glyph glyph-name="Gbreve" unicode="&#x11e;" horiz-adv-x="1512" 
d="M1122 1556q-66 0 -114 16q-140 46 -173 206h96q41 -131 197 -131t241 131h104q-78 -152 -223 -201q-62 -21 -128 -21zM852 96q109 0 229 26t203 75l83 468h-392l20 116h518l-113 -645q-223 -156 -559 -156t-499 214q-94 124 -108 326q-6 94 17 224t93 266q70 134 177 233
q105 99 251 155t315 56q328 0 509 -168l-81 -90q-96 76 -198 109q-103 33 -247 33q-286 0 -467 -181q-241 -241 -241 -603q0 -252 162 -372q116 -86 328 -86z" />
    <glyph glyph-name="gbreve" unicode="&#x11f;" horiz-adv-x="1232" 
d="M824 1212q-66 0 -114 16q-140 46 -173 206h96q41 -131 197 -131t241 131h104q-78 -152 -223 -201q-62 -21 -128 -21zM624 84q164 0 288 117q122 117 154 296t-56 298q-86 119 -250 119t-286 -117t-154 -296t54 -298t250 -119zM519 -532q-269 0 -414 113l66 95
q161 -104 359 -104t304 104t144 324l36 205q-61 -101 -165 -163t-248 -62q-206 0 -322 146q-117 146 -83 375t192 373t384 144q137 0 225 -72t116 -178l40 230h120l-175 -998q-80 -532 -579 -532z" />
    <glyph glyph-name="Gdotaccent" unicode="&#x120;" horiz-adv-x="1512" 
d="M1146 1728q38 0 59 -26t15 -61q-6 -37 -34 -61t-66 -24t-58 26t-14 61q6 37 34 61q26 24 64 24zM852 96q109 0 229 26t203 75l83 468h-392l20 116h518l-113 -645q-223 -156 -559 -156t-499 214q-94 124 -108 326q-6 94 17 224t93 266q70 134 177 233q105 99 251 155
t315 56q328 0 509 -168l-81 -90q-96 76 -198 109q-103 33 -247 33q-286 0 -467 -181q-241 -241 -241 -603q0 -252 162 -372q116 -86 328 -86z" />
    <glyph glyph-name="gdotaccent" unicode="&#x121;" horiz-adv-x="1232" 
d="M842 1373q38 1 59 -25t15 -62t-34 -60t-66 -25t-58 25t-14 62t34 60q26 24 64 25zM624 84q164 0 288 117q122 117 154 296t-56 298q-86 119 -250 119t-286 -117t-154 -296t54 -298t250 -119zM519 -532q-269 0 -414 113l66 95q161 -104 359 -104t304 104t144 324l36 205
q-61 -101 -165 -163t-248 -62q-206 0 -322 146q-117 146 -83 375t192 373t384 144q137 0 225 -72t116 -178l40 230h120l-175 -998q-80 -532 -579 -532z" />
    <glyph glyph-name="Gcommaaccent" unicode="&#x122;" horiz-adv-x="1512" 
d="M523 -532l231 416h150l-262 -416h-119zM852 96q109 0 229 26t203 75l83 468h-392l20 116h518l-113 -645q-223 -156 -559 -156t-499 214q-94 124 -108 326q-6 94 17 224t93 266q70 134 177 233q105 99 251 155t315 56q328 0 509 -168l-81 -90q-96 76 -198 109
q-103 33 -247 33q-286 0 -467 -181q-241 -241 -241 -603q0 -252 162 -372q116 -86 328 -86z" />
    <glyph glyph-name="gcommaaccent" unicode="&#x123;" horiz-adv-x="1232" 
d="M1102 1516l-231 -416h-150l262 416h119zM624 84q164 0 288 117q122 117 154 296t-56 298q-86 119 -250 119t-286 -117t-154 -296t54 -298t250 -119zM519 -532q-269 0 -414 113l66 95q161 -104 359 -104t304 104t144 324l36 205q-61 -101 -165 -163t-248 -62
q-206 0 -322 146q-117 146 -83 375t192 373t384 144q137 0 225 -72t116 -178l40 230h120l-175 -998q-80 -532 -579 -532z" />
    <glyph glyph-name="Hcircumflex" unicode="&#x124;" horiz-adv-x="1405" 
d="M1050 1847l198 -311h-97l-137 185l-201 -185h-117l306 311h48zM1255 792l113 642h126l-252 -1434h-126l119 676h-827l-119 -676h-126l252 1434h126l-113 -642h827z" />
    <glyph glyph-name="hcircumflex" unicode="&#x125;" horiz-adv-x="1153" 
d="M926 1847l198 -311h-97l-137 185l-201 -185h-117l306 311h48zM757 1018q206 0 299 -122t55 -340l-98 -556h-120l98 556q29 168 -31 263t-221 95t-255 -96t-123 -262l-98 -556h-120l267 1516h120l-124 -705q49 93 145 150t206 57z" />
    <glyph glyph-name="Hbar" unicode="&#x126;" horiz-adv-x="1606" 
d="M545 792h827l41 236h-827zM290 1028l20 113h170l52 293h126l-52 -293h827l52 293h126l-52 -293h172l-20 -113h-172l-180 -1028h-126l119 676h-827l-119 -676h-126l180 1028h-170z" />
    <glyph glyph-name="hbar" unicode="&#x127;" horiz-adv-x="1211" 
d="M817 1018q206 0 299 -122t55 -340l-98 -556h-120l98 556q29 168 -31 263t-221 95t-255 -96t-123 -262l-98 -556h-120l206 1172h-203l18 104h204l42 240h120l-42 -240h273l-18 -104h-274l-63 -361q49 93 145 150t206 57z" />
    <glyph glyph-name="Itilde" unicode="&#x128;" horiz-adv-x="453" 
d="M401 1671q-17 -1 -33 -21t-22 -41l-6 -21h-116q14 121 110 172q40 21 82 21t77 -18t60 -50q25 -31 40 -49t38 -18t39 21t22 41l5 21h116q-15 -121 -111 -172q-40 -21 -81 -21t-71 14t-44 30t-30 36l-24 30t-21 17q-13 8 -30 8zM163 0l252 1434h126l-252 -1434h-126z" />
    <glyph glyph-name="itilde" unicode="&#x129;" horiz-adv-x="412" 
d="M147 0l175 998h120l-175 -998h-120zM320 1324q-18 0 -34 -21t-22 -41l-5 -21h-116q15 121 111 172q40 21 81 21q42 0 77 -18t60 -50t40 -50t38 -17t39 21t21 41l6 21h116q-14 -121 -110 -172q-40 -21 -82 -21q-42 1 -72 15t-44 29t-30 35t-23 30q-8 10 -21 18t-30 8z" />
    <glyph glyph-name="uni012A" unicode="&#x12a;" horiz-adv-x="467" 
d="M163 1536l18 104h686l-18 -104h-686zM172 0l252 1434h126l-252 -1434h-126z" />
    <glyph glyph-name="imacron" unicode="&#x12b;" horiz-adv-x="507" 
d="M143 1330l18 104h686l-18 -104h-686zM192 0l175 998h120l-175 -998h-120z" />
    <glyph glyph-name="Ibreve" unicode="&#x12c;" horiz-adv-x="458" 
d="M507 1556q-65 0 -113 16q-140 46 -174 206h96q40 -131 196 -131t242 131h104q-78 -152 -223 -201q-62 -21 -128 -21zM163 0l252 1434h126l-252 -1434h-126z" />
    <glyph glyph-name="uni012D" unicode="&#x12d;" horiz-adv-x="431" 
d="M430 1212q-66 0 -114 16q-140 46 -173 206h96q41 -131 197 -131t241 131h104q-78 -152 -223 -201q-62 -21 -128 -21zM150 0l175 998h120l-175 -998h-120z" />
    <glyph glyph-name="Iogonek" unicode="&#x12e;" horiz-adv-x="463" 
d="M234 -265h19l-20 -110q-120 -12 -190 46t-48 157q11 50 41 86t79 59t83 27h-24l252 1434h126l-252 -1434q-118 -16 -177 -88q-41 -50 -32 -95t29 -56q47 -26 114 -26z" />
    <glyph glyph-name="iogonek" unicode="&#x12f;" horiz-adv-x="463" 
d="M480 1373q38 1 58 -25t14 -62t-34 -60t-64 -25q-38 -1 -59 25t-15 62t34 60t66 25zM234 -265h19l-20 -110q-120 -12 -190 46t-48 157q11 50 41 86t79 59t83 27h-18l175 998h120l-175 -998q-118 -16 -177 -88q-41 -50 -32 -95t29 -56q47 -26 114 -26z" />
    <glyph glyph-name="Idotaccent" unicode="&#x130;" horiz-adv-x="472" 
d="M528 1728q38 0 58 -26t14 -61q-6 -37 -34 -61t-64 -24q-38 0 -59 26t-15 61q6 37 34 61t66 24zM163 0l252 1434h126l-252 -1434h-126z" />
    <glyph glyph-name="dotlessi" unicode="&#x131;" horiz-adv-x="397" 
d="M143 0l175 998h120l-175 -998h-120z" />
    <glyph glyph-name="IJ" unicode="&#x132;" horiz-adv-x="1390" 
d="M829 96q166 0 243 89t106 253l175 996h126l-175 -996q-41 -232 -157 -345t-320 -113t-299 110q-47 55 -63 129l114 38q57 -161 250 -161zM163 0l252 1434h126l-252 -1434h-126z" />
    <glyph glyph-name="ij" unicode="&#x133;" horiz-adv-x="842" 
d="M294 -428q50 0 80 12t51 27q21 16 39 47t30 56q11 25 22 68q11 42 16 70t14 77l188 1069h120l-188 -1069q-34 -190 -72 -269q-39 -80 -78 -116q-84 -77 -227 -76q-91 0 -146 30l51 94q51 -20 100 -20zM858 1373q38 1 59 -25t15 -62t-34 -60t-66 -25t-58 25t-14 62t34 60
q26 24 64 25zM452 1373q38 1 58 -25t14 -62t-34 -60t-64 -25q-38 -1 -59 25t-15 62t34 60t66 25zM152 0l175 998h120l-175 -998h-120z" />
    <glyph glyph-name="Jcircumflex" unicode="&#x134;" horiz-adv-x="1052" 
d="M1201 1847l198 -311h-97l-137 185l-201 -185h-117l306 311h48zM527 96q166 0 243 89t106 253l175 996h126l-175 -996q-41 -232 -157 -345t-320 -113t-299 110q-47 55 -63 129l114 38q57 -161 250 -161z" />
    <glyph glyph-name="jcircumflex" unicode="&#x135;" horiz-adv-x="546" 
d="M556 1434l198 -311h-97l-137 185l-201 -185h-117l306 311h48zM-29 -428q49 0 79 12t52 27q22 16 40 47t29 56t22 68q11 42 16 70t14 77l188 1069h120l-188 -1069q-34 -190 -72 -269q-39 -80 -78 -116q-84 -76 -227 -76q-91 0 -146 30l51 94q51 -20 100 -20z" />
    <glyph glyph-name="Kcommaaccent" unicode="&#x136;" horiz-adv-x="1297" 
d="M328 -532l231 416h150l-262 -416h-119zM413 700l878 734h178l-746 -621l511 -813h-144l-460 733l-248 -205l-93 -528h-126l252 1434h126z" />
    <glyph glyph-name="kcommaaccent" unicode="&#x137;" horiz-adv-x="1014" 
d="M200 -532l231 416h150l-262 -416h-119zM143 0l267 1516h120l-175 -989l608 471h179l-517 -401l367 -597h-136l-323 526l-206 -159l-64 -367h-120z" />
    <glyph glyph-name="kgreenlandic" unicode="&#x138;" horiz-adv-x="1286" 
d="M1338 1434l-23 -128q-139 -2 -291 -125q-83 -67 -210 -189t-177 -161q135 -91 287 -301t249 -530h-137q-87 275 -228 478t-268 279l-137 -107l-114 -650h-126l252 1434h126l-109 -621q146 105 382 332q75 72 158 140q173 141 366 149z" />
    <glyph glyph-name="Lacute" unicode="&#x139;" horiz-adv-x="1108" 
d="M436 1536l271 281h174l-304 -281h-141zM541 1434l-232 -1318h738l-20 -116h-864l252 1434h126z" />
    <glyph glyph-name="lacute" unicode="&#x13a;" horiz-adv-x="420" 
d="M438 1576l271 281h174l-304 -281h-141zM344 0q-103 0 -129 53t-6 167l229 1296h120l-229 -1296q-13 -75 -4 -95t37 -21h45l-18 -104h-45z" />
    <glyph glyph-name="Lcommaaccent" unicode="&#x13b;" horiz-adv-x="1108" 
d="M286 -532l231 416h150l-262 -416h-119zM541 1434l-232 -1318h738l-20 -116h-864l252 1434h126z" />
    <glyph glyph-name="lcommaaccent" unicode="&#x13c;" horiz-adv-x="573" 
d="M49 -532l231 416h150l-262 -416h-119zM417 0q-103 0 -129 53t-6 167l229 1296h120l-229 -1296q-13 -75 -4 -95t37 -21h45l-18 -104h-45z" />
    <glyph glyph-name="Lcaron" unicode="&#x13d;" horiz-adv-x="1108" 
d="M554 1018l171 416h141l-203 -416h-109zM541 1434l-232 -1318h738l-20 -116h-864l252 1434h126z" />
    <glyph glyph-name="lcaron" unicode="&#x13e;" horiz-adv-x="479" 
d="M514 1100l171 416h141l-203 -416h-109zM316 0q-103 0 -129 53t-6 167l229 1296h120l-229 -1296q-30 -116 33 -116h45l-18 -104h-45z" />
    <glyph glyph-name="Ldot" unicode="&#x13f;" horiz-adv-x="1108" 
d="M910 820q38 0 59 -26t15 -61q-6 -37 -34 -61t-66 -24t-58 26t-14 61q6 37 34 61q26 24 64 24zM541 1434l-232 -1318h738l-20 -116h-864l252 1434h126z" />
    <glyph glyph-name="ldot" unicode="&#x140;" horiz-adv-x="660" 
d="M706 880q38 0 58 -26t14 -61q-6 -37 -34 -61t-64 -24q-38 0 -59 26t-15 61q6 37 34 61t66 24zM344 0q-103 0 -129 53t-6 167l229 1296h120l-229 -1296q-13 -75 -4 -95t37 -21h45l-18 -104h-45z" />
    <glyph glyph-name="Lslash" unicode="&#x141;" horiz-adv-x="1160" 
d="M468 726l-107 -610h738l-20 -116h-864l115 656l-203 -103l31 151l198 100l111 630h126l-99 -560l213 108l-31 -151z" />
    <glyph glyph-name="lslash" unicode="&#x142;" horiz-adv-x="514" 
d="M371 0q-103 0 -129 53t-6 167l85 481l-197 -103l24 145l199 104l118 669h120l-107 -600l198 103l-23 -144l-200 -105l-97 -550q-13 -75 -4 -95t37 -21h45l-18 -104h-45z" />
    <glyph glyph-name="Nacute" unicode="&#x143;" horiz-adv-x="1417" 
d="M870 1536l271 281h174l-304 -281h-141zM163 0l252 1434h140l605 -1252l220 1252h126l-252 -1434h-141l-604 1252l-220 -1252h-126z" />
    <glyph glyph-name="nacute" unicode="&#x144;" horiz-adv-x="1184" 
d="M713 1153l271 281h174l-304 -281h-141zM757 1018q206 0 299 -122t55 -340l-98 -556h-120l98 556q29 168 -31 263t-221 95t-255 -96t-123 -262l-98 -556h-120l176 998h120l-33 -187q49 93 145 150t206 57z" />
    <glyph glyph-name="Ncommaaccent" unicode="&#x145;" horiz-adv-x="1417" 
d="M387 -532l231 416h150l-262 -416h-119zM163 0l252 1434h140l605 -1252l220 1252h126l-252 -1434h-141l-604 1252l-220 -1252h-126z" />
    <glyph glyph-name="ncommaaccent" unicode="&#x146;" horiz-adv-x="1148" 
d="M258 -532l231 416h150l-262 -416h-119zM757 1018q206 0 299 -122t55 -340l-98 -556h-120l98 556q29 168 -31 263t-221 95t-255 -96t-123 -262l-98 -556h-120l176 998h120l-33 -187q49 93 145 150t206 57z" />
    <glyph glyph-name="Ncaron" unicode="&#x147;" horiz-adv-x="1417" 
d="M1308 1847l-306 -311h-48l-198 311h97l137 -185l201 185h117zM163 0l252 1434h140l605 -1252l220 1252h126l-252 -1434h-141l-604 1252l-220 -1252h-126z" />
    <glyph glyph-name="ncaron" unicode="&#x148;" horiz-adv-x="1148" 
d="M1106 1434l-306 -311h-48l-198 311h97l137 -185l201 185h117zM757 1018q206 0 299 -122t55 -340l-98 -556h-120l98 556q29 168 -31 263t-221 95t-255 -96t-123 -262l-98 -556h-120l176 998h120l-33 -187q49 93 145 150t206 57z" />
    <glyph glyph-name="napostrophe" unicode="&#x149;" horiz-adv-x="1262" 
d="M200 1018l231 416h150l-262 -416h-119zM868 1018q206 0 299 -122t55 -340l-98 -556h-120l98 556q30 168 -30 263t-222 95t-256 -96t-122 -262l-98 -556h-120l176 998h120l-33 -187q49 93 145 150t206 57z" />
    <glyph glyph-name="Eng" unicode="&#x14a;" horiz-adv-x="1417" 
d="M786 -532q-94 0 -172 44t-116 122l98 74q73 -124 214 -124t209 92q69 92 96 250l13 74h-15l-604 1252l-220 -1252h-126l252 1434h140l605 -1252l220 1252h126l-265 -1508q-41 -236 -151 -347t-304 -111z" />
    <glyph glyph-name="eng" unicode="&#x14b;" horiz-adv-x="1148" 
d="M739 914q-161 0 -255 -96t-123 -262l-98 -556h-120l176 998h120l-33 -187q49 93 145 150t206 57q206 0 299 -122t55 -340l-110 -627q-34 -190 -72 -269q-39 -80 -78 -116q-84 -76 -227 -76q-91 0 -146 30l51 94q51 -20 100 -20t79 12t52 27q22 16 40 47t29 56t22 68
q11 42 16 70t14 77l110 627q29 168 -31 263t-221 95z" />
    <glyph glyph-name="Omacron" unicode="&#x14c;" horiz-adv-x="1662" 
d="M758 1536l18 104h686l-18 -104h-686zM362 554q0 -78 16 -148q31 -139 146 -224q115 -86 323 -86q140 0 261 50t207 135q178 178 222 436q31 154 0 301t-146 234q-116 86 -343 86q-122 0 -242 -50t-207 -135q-178 -178 -222 -436q-15 -86 -15 -163zM856 -20
q-140 0 -234 26t-161 74q-146 102 -198 272q-52 171 -20 347q31 177 101 311t177 233q105 99 251 155t286 56t234 -26t162 -74q145 -100 197 -273q53 -173 16 -364q-55 -321 -274 -526q-105 -99 -251 -155t-286 -56z" />
    <glyph glyph-name="omacron" unicode="&#x14d;" horiz-adv-x="1227" 
d="M509 1330l18 104h686l-18 -104h-686zM633 84q175 0 303 119t158 296q44 249 -110 359q-79 56 -204 56q-176 0 -304 -119t-159 -296q-41 -251 111 -359q80 -56 205 -56zM786 1018q228 0 349 -147t82 -377t-202 -372t-391 -142t-348 147q-122 147 -82 377t202 372t390 142z
" />
    <glyph glyph-name="Obreve" unicode="&#x14e;" horiz-adv-x="1662" 
d="M1110 1555q-66 -1 -114 15q-140 46 -173 207h96q41 -131 197 -131t241 131h104q-78 -152 -223 -201q-62 -21 -128 -21zM362 554q0 -78 16 -148q31 -139 146 -224q115 -86 323 -86q140 0 261 50t207 135q178 178 222 436q31 154 0 301t-146 234q-116 86 -343 86
q-122 0 -242 -50t-207 -135q-178 -178 -222 -436q-15 -86 -15 -163zM856 -20q-140 0 -234 26t-161 74q-146 102 -198 272q-52 171 -20 347q31 177 101 311t177 233q105 99 251 155t286 56t234 -26t162 -74q145 -100 197 -273q53 -173 16 -364q-55 -321 -274 -526
q-105 -99 -251 -155t-286 -56z" />
    <glyph glyph-name="obreve" unicode="&#x14f;" horiz-adv-x="1227" 
d="M838 1212q-66 0 -114 16q-140 46 -173 206h96q41 -131 197 -131t241 131h104q-78 -152 -223 -201q-62 -21 -128 -21zM633 84q175 0 303 119t158 296q44 249 -110 359q-79 56 -204 56q-176 0 -304 -119t-159 -296q-41 -251 111 -359q80 -56 205 -56zM786 1018
q228 0 349 -147t82 -377t-202 -372t-391 -142t-348 147q-122 147 -82 377t202 372t390 142z" />
    <glyph glyph-name="Ohungarumlaut" unicode="&#x150;" horiz-adv-x="1662" 
d="M904 1536l169 346h150l-200 -346h-119zM1156 1536l167 346h151l-200 -346h-118zM362 554q0 -78 16 -148q31 -139 146 -224q115 -86 323 -86q140 0 261 50t207 135q178 178 222 436q31 154 0 301t-146 234q-116 86 -343 86q-122 0 -242 -50t-207 -135q-178 -178 -222 -436
q-15 -86 -15 -163zM856 -20q-140 0 -234 26t-161 74q-146 102 -198 272q-52 171 -20 347q31 177 101 311t177 233q105 99 251 155t286 56t234 -26t162 -74q145 -100 197 -273q53 -173 16 -364q-55 -321 -274 -526q-105 -99 -251 -155t-286 -56z" />
    <glyph glyph-name="ohungarumlaut" unicode="&#x151;" horiz-adv-x="1227" 
d="M614 1170l169 346h150l-200 -346h-119zM866 1170l167 346h151l-200 -346h-118zM633 84q175 0 303 119t158 296q44 249 -110 359q-79 56 -204 56q-176 0 -304 -119t-159 -296q-41 -251 111 -359q80 -56 205 -56zM786 1018q228 0 349 -147t82 -377t-202 -372t-391 -142
t-348 147q-122 147 -82 377t202 372t390 142z" />
    <glyph glyph-name="OE" unicode="&#x152;" horiz-adv-x="2186" 
d="M1023 1338q-133 0 -249 -50t-200 -134q-175 -178 -220 -437q-48 -321 126 -499q119 -122 313 -122q193 0 355 114l180 1028q-105 100 -305 100zM794 -20q-153 0 -271 59q-117 59 -191 158t-103 235t-3 286t98 284t176 234t246 160q142 58 265 58q235 0 340 -90l12 70h942
l-20 -116h-816l-93 -527h768l-20 -116h-768l-99 -559h836l-20 -116h-962l11 66q-175 -86 -328 -86z" />
    <glyph glyph-name="oe" unicode="&#x153;" horiz-adv-x="2054" 
d="M1639 914q-153 0 -265 -108t-141 -255h684q27 139 -38 252q-29 51 -91 81t-149 30zM633 84q175 0 303 119t158 296q44 249 -110 359q-79 56 -204 56q-176 0 -304 -119t-159 -296q-41 -251 111 -359q80 -56 205 -56zM619 -20q-221 0 -343 147t-82 377t202 372t398 142
q144 0 250 -67t151 -183q77 118 197 184t261 66q219 0 321 -148t52 -423h-812q-27 -137 42 -252q30 -51 92 -81t144 -30q198 0 364 96l53 -90q-161 -110 -427 -110q-147 0 -241 65t-131 183q-82 -118 -209 -183t-282 -65z" />
    <glyph glyph-name="Racute" unicode="&#x154;" horiz-adv-x="1341" 
d="M759 1536l271 281h174l-304 -281h-141zM1020 1318h-499l-103 -584h499q129 0 217 83t110 210t-33 209q-56 82 -191 82zM1040 1434q178 0 268 -115t65 -285t-136 -278q-111 -110 -280 -133l253 -623h-133l-249 618h-431l-108 -618h-126l252 1434h625z" />
    <glyph glyph-name="racute" unicode="&#x155;" horiz-adv-x="840" 
d="M558 1153l271 281h174l-304 -281h-141zM739 914q-157 0 -253 -96t-125 -262l-98 -556h-120l175 998h120l-32 -187q57 95 150 151q92 56 204 56t198 -46l-77 -93q-62 35 -142 35z" />
    <glyph glyph-name="Rcommaaccent" unicode="&#x156;" horiz-adv-x="1341" 
d="M298 -532l231 416h150l-262 -416h-119zM1020 1318h-499l-103 -584h499q129 0 217 83t110 210t-33 209q-56 82 -191 82zM1040 1434q178 0 268 -115t65 -285t-136 -278q-111 -110 -280 -133l253 -623h-133l-249 618h-431l-108 -618h-126l252 1434h625z" />
    <glyph glyph-name="rcommaaccent" unicode="&#x157;" horiz-adv-x="885" 
d="M-70 -532l231 416h150l-262 -416h-119zM789 914q-157 0 -253 -96t-125 -262l-98 -556h-120l175 998h120l-32 -187q57 95 150 151q92 56 204 56t198 -46l-77 -93q-62 35 -142 35z" />
    <glyph glyph-name="Rcaron" unicode="&#x158;" horiz-adv-x="1341" 
d="M1210 1847l-306 -311h-48l-198 311h97l137 -185l201 185h117zM1020 1318h-499l-103 -584h499q129 0 217 83t110 210t-33 209q-56 82 -191 82zM1040 1434q178 0 268 -115t65 -285t-136 -278q-111 -110 -280 -133l253 -623h-133l-249 618h-431l-108 -618h-126l252 1434h625
z" />
    <glyph glyph-name="rcaron" unicode="&#x159;" horiz-adv-x="861" 
d="M984 1434l-306 -311h-48l-198 311h97l137 -185l201 185h117zM739 914q-157 0 -253 -96t-125 -262l-98 -556h-120l175 998h120l-32 -187q57 95 150 151q92 56 204 56t198 -46l-77 -93q-62 35 -142 35z" />
    <glyph glyph-name="Sacute" unicode="&#x15a;" horiz-adv-x="1243" 
d="M820 1536l271 281h174l-304 -281h-141zM868 1338q-100 0 -182 -24t-144 -82t-80 -156t54 -164t309 -112q236 -46 334 -146t70 -285q-21 -129 -103 -219q-156 -170 -461 -170q-351 0 -537 160l84 98q180 -142 473 -142q163 0 277 70t137 203q24 133 -42 200
q-65 67 -298 114q-369 77 -419 269q-16 60 -6 136q22 172 166 269t386 97q171 0 282 -41q112 -41 152 -69l18 -13l-84 -99q-74 50 -180 78t-206 28z" />
    <glyph glyph-name="sacute" unicode="&#x15b;" horiz-adv-x="944" 
d="M599 1153l271 281h174l-304 -281h-141zM634 914q-253 0 -282 -160q-13 -75 43 -116q56 -40 228 -74t250 -103t59 -204t-136 -206t-311 -71q-249 0 -385 116l63 89q143 -101 340 -101q279 0 309 174q16 86 -42 130t-234 79q-176 33 -248 105t-55 188t119 187t300 71
q129 0 214 -30t120 -60l-63 -89q-116 75 -289 75z" />
    <glyph glyph-name="Scircumflex" unicode="&#x15c;" horiz-adv-x="1243" 
d="M983 1847l198 -311h-97l-137 185l-201 -185h-117l306 311h48zM868 1338q-100 0 -182 -24t-144 -82t-80 -156t54 -164t309 -112q236 -46 334 -146t70 -285q-21 -129 -103 -219q-156 -170 -461 -170q-351 0 -537 160l84 98q180 -142 473 -142q163 0 277 70t137 203
q24 133 -42 200q-65 67 -298 114q-369 77 -419 269q-16 60 -6 136q22 172 166 269t386 97q171 0 282 -41q112 -41 152 -69l18 -13l-84 -99q-74 50 -180 78t-206 28z" />
    <glyph glyph-name="scircumflex" unicode="&#x15d;" horiz-adv-x="940" 
d="M756 1434l198 -311h-97l-137 185l-201 -185h-117l306 311h48zM634 914q-253 0 -282 -160q-13 -75 43 -116q56 -40 228 -74t250 -103t59 -204t-136 -206t-311 -71q-249 0 -385 116l63 89q143 -101 340 -101q279 0 309 174q16 86 -42 130t-234 79q-176 33 -248 105t-55 188
t119 187t300 71q129 0 214 -30t120 -60l-63 -89q-116 75 -289 75z" />
    <glyph glyph-name="Scedilla" unicode="&#x15e;" horiz-adv-x="1243" 
d="M685 96q163 0 277 70t137 203q24 133 -42 200q-65 67 -298 114q-369 77 -419 269q-16 60 -6 136q22 172 166 269t386 97q171 0 282 -41q112 -41 152 -69l18 -13l-84 -99q-74 50 -180 78t-206 28t-182 -24t-144 -82t-80 -156t54 -164t309 -112q236 -46 334 -146
q97 -100 69 -286t-174 -283q-146 -98 -360 -104l-55 -106q81 1 127 -39t30 -114t-64 -116q-46 -42 -106 -54q-128 -25 -239 35l56 83q68 -34 124 -33q103 3 127 80q12 39 -10 59t-84 22q-61 1 -115 -11l103 195q-296 16 -460 158l84 98q180 -142 473 -142z" />
    <glyph glyph-name="scedilla" unicode="&#x15f;" horiz-adv-x="940" 
d="M503 84q279 0 309 174q16 86 -42 130t-234 79q-176 33 -248 105t-55 188t119 187t300 71q129 0 214 -30t120 -60l-63 -89q-116 75 -289 75q-253 0 -282 -160q-13 -75 43 -116q56 -40 228 -74t250 -103q77 -69 59 -198t-118 -199t-267 -82l-56 -107q81 1 127 -39t30 -114
t-64 -116q-46 -42 -106 -54q-128 -25 -239 35l56 83q68 -34 124 -33q103 3 127 80q12 39 -10 59t-84 22q-61 1 -115 -11l103 194q-217 11 -340 115l63 89q143 -101 340 -101z" />
    <glyph glyph-name="Scaron" unicode="&#x160;" horiz-adv-x="1243" 
d="M1227 1847l-306 -311h-48l-198 311h97l137 -185l201 185h117zM868 1338q-100 0 -182 -24t-144 -82t-80 -156t54 -164t309 -112q236 -46 334 -146t70 -285q-21 -129 -103 -219q-156 -170 -461 -170q-351 0 -537 160l84 98q180 -142 473 -142q163 0 277 70t137 203
q24 133 -42 200q-65 67 -298 114q-369 77 -419 269q-16 60 -6 136q22 172 166 269t386 97q171 0 282 -41q112 -41 152 -69l18 -13l-84 -99q-74 50 -180 78t-206 28z" />
    <glyph glyph-name="scaron" unicode="&#x161;" horiz-adv-x="952" 
d="M998 1434l-306 -311h-48l-198 311h97l137 -185l201 185h117zM634 914q-253 0 -282 -160q-13 -75 43 -116q56 -40 228 -74t250 -103t59 -204t-136 -206t-311 -71q-249 0 -385 116l63 89q143 -101 340 -101q279 0 309 174q16 86 -42 130t-234 79q-176 33 -248 105t-55 188
t119 187t300 71q129 0 214 -30t120 -60l-63 -89q-116 75 -289 75z" />
    <glyph glyph-name="Tcommaaccent" unicode="&#x162;" horiz-adv-x="1327" 
d="M323 -532l231 416h150l-262 -416h-119zM330 1434h1146l-20 -116h-510l-232 -1318h-126l232 1318h-510z" />
    <glyph glyph-name="tcommaaccent" unicode="&#x163;" horiz-adv-x="826" 
d="M602 84q49 0 108 19l24 -99q-60 -24 -166 -24t-168 50t-73 142t10 220l88 502h-211l18 104h211l53 299h120l-53 -299h309l-18 -104h-309l-79 -451q-35 -200 -15 -265t71 -83q31 -11 80 -11zM224 -532l231 416h150l-262 -416h-119z" />
    <glyph glyph-name="Tcaron" unicode="&#x164;" horiz-adv-x="1327" 
d="M1251 1847l-306 -311h-48l-198 311h97l137 -185l201 185h117zM330 1434h1146l-20 -116h-510l-232 -1318h-126l232 1318h-510z" />
    <glyph glyph-name="tcaron" unicode="&#x165;" horiz-adv-x="905" 
d="M628 84q49 0 108 19l24 -99q-60 -24 -166 -24t-168 50t-73 142t10 220l88 502h-211l18 104h211l53 299h120l-53 -299h309l-18 -104h-309l-79 -451q-35 -200 -15 -265t71 -83q31 -11 80 -11zM926 1018l170 416h141l-202 -416h-109z" />
    <glyph glyph-name="Tbar" unicode="&#x166;" horiz-adv-x="1327" 
d="M330 1434h1146l-20 -116h-510l-73 -414h330l-21 -116h-330l-138 -788h-126l138 788h-330l21 116h330l73 414h-510z" />
    <glyph glyph-name="tbar" unicode="&#x167;" horiz-adv-x="824" 
d="M600 84q49 0 108 19l24 -99q-60 -24 -166 -24t-168 50t-73 142t10 220l27 157h-211l19 104h210l43 241h-211l18 104h211l53 299h120l-53 -299h309l-18 -104h-309l-43 -241h310l-19 -104h-309l-18 -106q-35 -200 -15 -265t71 -83q31 -11 80 -11z" />
    <glyph glyph-name="Utilde" unicode="&#x168;" horiz-adv-x="1433" 
d="M893 1671q-17 -1 -33 -21t-22 -41l-6 -21h-116q14 121 110 172q40 21 82 21t77 -18t60 -50q25 -33 40 -50t38 -17t39 21t22 41l5 21h116q-15 -121 -111 -172q-40 -21 -81 -21t-71 14t-44 30t-30 36l-24 30t-21 17q-13 8 -30 8zM740 96q210 0 339 132q128 132 169 366
l148 840h126l-148 -840q-53 -300 -220 -457t-418 -157t-382 164q-130 164 -81 450l148 840h126l-148 -840q-41 -230 45 -364t296 -134z" />
    <glyph glyph-name="utilde" unicode="&#x169;" horiz-adv-x="1150" 
d="M695 1324q-17 0 -33 -21t-22 -41l-6 -21h-116q14 121 110 172q40 21 82 21t77 -18t60 -50t40 -50t38 -17t39 21t22 41l5 21h116q-15 -121 -111 -172q-40 -21 -81 -21q-41 1 -71 15t-44 29t-30 35l-24 30t-21 18t-30 8zM577 -20q-206 0 -299 122t-55 340l98 556h120
l-98 -556q-29 -168 31 -263t221 -95t255 96t123 262l98 556h120l-176 -998h-120l33 187q-49 -93 -145 -150t-206 -57z" />
    <glyph glyph-name="Umacron" unicode="&#x16a;" horiz-adv-x="1433" 
d="M646 1536l18 104h686l-18 -104h-686zM740 96q210 0 339 132q128 132 169 366l148 840h126l-148 -840q-53 -300 -220 -457t-418 -157t-382 164q-130 164 -81 450l148 840h126l-148 -840q-41 -230 45 -364t296 -134z" />
    <glyph glyph-name="umacron" unicode="&#x16b;" horiz-adv-x="1150" 
d="M473 1330l18 104h686l-18 -104h-686zM577 -20q-206 0 -299 122t-55 340l98 556h120l-98 -556q-29 -168 31 -263t221 -95t255 96t123 262l98 556h120l-176 -998h-120l33 187q-49 -93 -145 -150t-206 -57z" />
    <glyph glyph-name="Ubreve" unicode="&#x16c;" horiz-adv-x="1433" 
d="M999 1556q-65 0 -113 16q-140 46 -174 206h96q40 -131 196 -131t242 131h104q-78 -152 -223 -201q-62 -21 -128 -21zM740 96q210 0 339 132q128 132 169 366l148 840h126l-148 -840q-53 -300 -220 -457t-418 -157t-382 164q-130 164 -81 450l148 840h126l-148 -840
q-41 -230 45 -364t296 -134z" />
    <glyph glyph-name="ubreve" unicode="&#x16d;" horiz-adv-x="1150" 
d="M801 1212q-65 0 -113 16q-140 46 -174 206h96q40 -131 196 -131t242 131h104q-78 -152 -223 -201q-62 -21 -128 -21zM577 -20q-206 0 -299 122t-55 340l98 556h120l-98 -556q-29 -168 31 -263t221 -95t255 96t123 262l98 556h120l-176 -998h-120l33 187
q-49 -93 -145 -150t-206 -57z" />
    <glyph glyph-name="Uring" unicode="&#x16e;" horiz-adv-x="1433" 
d="M1002 1619q44 -1 76 27t38 70t-14 68q-20 27 -64 27q-44 1 -76 -27t-38 -70t14 -68q20 -27 64 -27zM1048 1895q78 0 120 -53q44 -52 32 -130t-72 -127q-58 -49 -136 -49t-120 52q-44 52 -32 131q12 78 72 127q58 49 136 49zM740 96q210 0 339 132q128 132 169 366
l148 840h126l-148 -840q-53 -300 -220 -457t-418 -157t-382 164q-130 164 -81 450l148 840h126l-148 -840q-41 -230 45 -364t296 -134z" />
    <glyph glyph-name="uring" unicode="&#x16f;" horiz-adv-x="1150" 
d="M787 1178q43 0 75 28t39 68q7 42 -13 69t-65 27q-43 0 -75 -28t-39 -68q-7 -42 13 -69t65 -27zM832 1454q78 0 122 -53t30 -131q-12 -78 -70 -126q-58 -49 -136 -49q-78 1 -122 53t-30 130q12 78 70 127t136 49zM577 -20q-206 0 -299 122t-55 340l98 556h120l-98 -556
q-29 -168 31 -263t221 -95t255 96t123 262l98 556h120l-176 -998h-120l33 187q-49 -93 -145 -150t-206 -57z" />
    <glyph glyph-name="Uhungarumlaut" unicode="&#x170;" horiz-adv-x="1433" 
d="M783 1576l169 346h150l-200 -346h-119zM1035 1576l167 346h151l-200 -346h-118zM740 96q210 0 339 132q128 132 169 366l148 840h126l-148 -840q-53 -300 -220 -457t-418 -157t-382 164q-130 164 -81 450l148 840h126l-148 -840q-41 -230 45 -364t296 -134z" />
    <glyph glyph-name="uhungarumlaut" unicode="&#x171;" horiz-adv-x="1150" 
d="M583 1170l169 346h150l-200 -346h-119zM835 1170l167 346h151l-200 -346h-118zM577 -20q-206 0 -299 122t-55 340l98 556h120l-98 -556q-29 -168 31 -263t221 -95t255 96t123 262l98 556h120l-176 -998h-120l33 187q-49 -93 -145 -150t-206 -57z" />
    <glyph glyph-name="Uogonek" unicode="&#x172;" horiz-adv-x="1433" 
d="M740 96q210 0 339 132q128 132 169 366l148 840h126l-148 -840q-46 -260 -178 -413t-342 -189q-79 -20 -119 -62q-41 -42 -45 -74t0 -50t10 -28q8 -12 22 -20t24 -12t30 -8q27 -4 54 -3h19l-20 -110q-120 -12 -190 46t-48 159q22 102 136 150h-8q-235 0 -365 164t-81 450
l148 840h126l-148 -840q-41 -230 45 -364t296 -134z" />
    <glyph glyph-name="uogonek" unicode="&#x173;" horiz-adv-x="1150" 
d="M577 -20q-206 0 -299 122t-55 340l98 556h120l-98 -556q-29 -168 31 -263t221 -95t255 96t123 262l98 556h120l-176 -998q-35 -3 -86 -23q-106 -42 -120 -131q-9 -65 33 -88t84 -23h43l-20 -110q-120 -12 -190 46t-48 157q11 50 41 86t79 59t83 27h-19l33 187
q-49 -93 -145 -150t-206 -57z" />
    <glyph glyph-name="Wcircumflex" unicode="&#x174;" horiz-adv-x="2050" 
d="M1371 1847l198 -311h-97l-137 185l-201 -185h-117l306 311h48zM2229 1434l-723 -1434h-114l-147 1224l-577 -1224h-124l-219 1434h140l178 -1197l565 1197h134l143 -1197l600 1197h144z" />
    <glyph glyph-name="wcircumflex" unicode="&#x175;" horiz-adv-x="1580" 
d="M1072 1434l198 -311h-97l-137 185l-201 -185h-117l306 311h48zM1062 0l-121 793l-399 -793h-124l-181 998h128l138 -824l415 824h106l125 -824l428 824h134l-531 -998h-118z" />
    <glyph glyph-name="Ycircumflex" unicode="&#x176;" horiz-adv-x="1388" 
d="M1042 1847l198 -311h-97l-137 185l-201 -185h-117l306 311h48zM469 1434l343 -703l593 703h162l-705 -836l-105 -598h-126l105 598l-411 836h144z" />
    <glyph glyph-name="ycircumflex" unicode="&#x177;" horiz-adv-x="1079" 
d="M822 1434l198 -311h-97l-137 185l-201 -185h-117l306 311h48zM128 -429q36 -1 56 7t37 24q43 37 64 66t43 65l157 267l-243 998h129l199 -856l499 856h141l-765 -1287q-83 -141 -153 -192t-162 -51q-93 0 -151 36l62 92q51 -25 87 -25z" />
    <glyph glyph-name="Ydieresis" unicode="&#x178;" horiz-adv-x="1388" 
d="M1164 1708q38 0 58 -26t14 -61q-6 -37 -34 -61t-64 -24q-38 0 -59 26t-15 61q6 37 34 61t66 24zM822 1708q38 0 58 -26t14 -61q-6 -37 -34 -61t-64 -24q-38 0 -59 26t-15 61q6 37 34 61t66 24zM469 1434l343 -703l593 703h162l-705 -836l-105 -598h-126l105 598l-411 836
h144z" />
    <glyph glyph-name="Zacute" unicode="&#x179;" horiz-adv-x="1374" 
d="M858 1536l271 281h174l-304 -281h-141zM362 116h879l-20 -116h-1078l12 71l1109 1247h-832l20 116h1031l-12 -71z" />
    <glyph glyph-name="zacute" unicode="&#x17a;" horiz-adv-x="1072" 
d="M646 1153l271 281h174l-304 -281h-141zM123 0l10 61l794 833h-611l18 104h799l-10 -60l-794 -834h647l-18 -104h-835z" />
    <glyph glyph-name="Zdotaccent" unicode="&#x17b;" horiz-adv-x="1374" 
d="M984 1728q38 0 58 -26t14 -61q-6 -37 -34 -61t-64 -24q-38 0 -59 26t-15 61q6 37 34 61t66 24zM362 116h879l-20 -116h-1078l12 71l1109 1247h-832l20 116h1031l-12 -71z" />
    <glyph glyph-name="zdotaccent" unicode="&#x17c;" horiz-adv-x="1072" 
d="M776 1373q38 1 58 -25t14 -62t-34 -60t-64 -25q-38 -1 -59 25t-15 62t34 60t66 25zM123 0l10 61l794 833h-611l18 104h799l-10 -60l-794 -834h647l-18 -104h-835z" />
    <glyph glyph-name="Zcaron" unicode="&#x17d;" horiz-adv-x="1374" 
d="M1282 1847l-306 -311h-48l-198 311h97l137 -185l201 185h117zM362 116h879l-20 -116h-1078l12 71l1109 1247h-832l20 116h1031l-12 -71z" />
    <glyph glyph-name="zcaron" unicode="&#x17e;" horiz-adv-x="1072" 
d="M1064 1434l-306 -311h-48l-198 311h97l137 -185l201 185h117zM123 0l10 61l794 833h-611l18 104h799l-10 -60l-794 -834h647l-18 -104h-835z" />
    <glyph glyph-name="longs" unicode="&#x17f;" horiz-adv-x="697" 
d="M755 1536q90 0 153 -34l-50 -92q-56 22 -119 22t-105 -16q-81 -32 -119 -116t-63 -227l-189 -1073h-120l189 1073q33 187 76 269q42 81 86 117q44 37 108 57t153 20z" />
    <glyph glyph-name="uni0180" unicode="&#x180;" horiz-adv-x="1316" 
d="M882 914q-164 0 -288 -117q-122 -117 -154 -296t56 -298q86 -119 250 -119t286 117t154 296t-54 298t-250 119zM905 1018q206 0 322 -146q117 -146 83 -375t-192 -373t-384 -144q-137 0 -225 72t-116 178l-40 -230h-120l206 1172h-205l18 104h206l42 240h120l-43 -240
h272l-18 -104h-272l-67 -379q61 101 165 163t248 62z" />
    <glyph glyph-name="uni0181" unicode="&#x181;" horiz-adv-x="1614" 
d="M1159 808q129 0 223 64t116 192t-42 191q-66 63 -207 63h-483l-90 -510h483zM1037 116q154 0 257 75q104 75 128 215t-47 213t-236 73h-483l-102 -576h483zM1017 0h-609l231 1318h-56q-110 0 -154 -47t-60 -146h-126q27 149 97 217q48 47 84 62q77 30 179 30h666
q197 0 291 -105t66 -266q-20 -113 -96 -199t-172 -119q90 -29 152 -114q62 -86 39 -227q-29 -180 -164 -292t-368 -112z" />
    <glyph glyph-name="uni0182" unicode="&#x182;" horiz-adv-x="1262" 
d="M749 116q197 0 275 179q74 170 12 299q-43 88 -187 88h-440l-100 -566h440zM869 798q121 0 199 -56q150 -108 113 -343q-29 -183 -143 -291t-309 -108h-566l252 1434h855l-20 -116h-729l-92 -520h440z" />
    <glyph glyph-name="uni0183" unicode="&#x183;" horiz-adv-x="1298" 
d="M812 914q-164 0 -288 -117q-122 -117 -154 -296t56 -298q86 -119 250 -119t286 117t154 296t-54 298t-250 119zM835 1018q206 0 322 -146q117 -146 83 -375t-192 -373t-384 -144q-137 0 -225 72t-116 178l-40 -230h-120l253 1434h863l-18 -104h-745l-94 -537
q61 101 165 163t248 62z" />
    <glyph glyph-name="uni0184" unicode="&#x184;" horiz-adv-x="1242" 
d="M770 116q134 0 220 87t109 215q33 176 -75 258q-56 44 -148 44h-439l-106 -604h439zM897 836q121 0 203 -57q165 -115 127 -361q-31 -196 -157 -307t-320 -111h-565l182 1034h-185l367 400h14l-105 -598h439z" />
    <glyph glyph-name="uni0185" unicode="&#x185;" horiz-adv-x="1268" 
d="M834 914q-164 0 -288 -117q-122 -117 -154 -296t56 -298q86 -119 250 -119t286 117t154 296t-54 298t-250 119zM857 1018q206 0 322 -146q117 -146 83 -375t-192 -373t-384 -144q-137 0 -225 72t-116 178l-40 -230h-120l196 1116h-185l368 400h8l-128 -723
q61 101 165 163t248 62z" />
    <glyph glyph-name="uni0186" unicode="&#x186;" horiz-adv-x="1390" 
d="M335 1338q168 116 485 116t480 -214q94 -124 108 -326q6 -94 -17 -224t-93 -266q-70 -134 -177 -233q-105 -99 -251 -155t-315 -56q-275 0 -423 130l77 90q137 -104 367 -104q140 0 260 50t207 135q178 178 222 436q15 86 15 163q0 78 -16 148q-31 139 -146 224
q-115 86 -335 86q-219 0 -392 -104z" />
    <glyph glyph-name="uni0187" unicode="&#x187;" horiz-adv-x="1465" 
d="M362 554q0 -78 16 -148q31 -139 146 -224q115 -86 335 -86q219 0 392 104l56 -104q-168 -116 -485 -116t-480 214q-94 124 -108 326q-6 94 17 224t93 266q70 134 177 233q105 99 251 155t332 56t324 -74l15 89q30 182 241 182l-21 -116q-1 -1 -9 1q-15 3 -51 -12
q-36 -14 -45 -57l-48 -273q-199 144 -444 144q-140 0 -260 -50t-207 -135q-178 -178 -222 -436q-15 -86 -15 -163z" />
    <glyph glyph-name="uni0188" unicode="&#x188;" horiz-adv-x="1117" 
d="M633 84q172 0 305 98l63 -90q-145 -112 -375 -112t-350 147q-122 147 -82 377t202 372t398 142q147 0 248 -54l8 50q35 189 235 189l-19 -104q-47 1 -72 -19t-34 -68l-37 -228q-135 130 -327 130t-320 -119t-159 -296q-41 -251 111 -359q80 -56 205 -56z" />
    <glyph glyph-name="uni0189" unicode="&#x189;" horiz-adv-x="1529" 
d="M724 116q357 0 538 245q107 145 144 356q31 154 0 296q-31 141 -147 223q-116 81 -323 82h-326l-96 -543h307l-20 -116h-307l-96 -543h326zM704 0h-452l116 659h-200l20 116h200l116 659h452q292 0 450 -155q185 -181 128 -562q-56 -343 -264 -530t-566 -187z" />
    <glyph glyph-name="uni018A" unicode="&#x18a;" horiz-adv-x="1685" 
d="M880 116q357 0 538 245q107 145 144 356q31 154 0 296q-31 141 -147 223t-323 82h-326l-212 -1202h326zM860 0h-452l231 1318h-56q-110 0 -154 -47t-60 -146h-126q27 149 97 217q48 47 84 62q77 30 179 30h509q292 0 450 -155q185 -181 128 -562q-56 -343 -264 -530
t-566 -187z" />
    <glyph glyph-name="uni018B" unicode="&#x18b;" horiz-adv-x="1200" 
d="M511 116h440l100 566h-440q-137 0 -211 -78t-95 -205q-22 -105 24 -195q20 -40 67 -64t115 -24zM491 0q-113 0 -189 56q-153 112 -123 343q24 187 144 293t308 106h440l92 520h-729l20 116h855l-252 -1434h-566z" />
    <glyph glyph-name="uni018C" unicode="&#x18c;" horiz-adv-x="1235" 
d="M618 84q164 0 288 117q122 117 154 296t-56 298q-86 119 -250 119t-286 -117t-154 -296t54 -298t250 -119zM595 -20q-206 0 -322 146q-117 146 -83 375t192 373t384 144q137 0 225 -72t116 -178l99 562h-743l18 104h863l-253 -1434h-119l36 205q-61 -101 -165 -163
t-248 -62z" />
    <glyph glyph-name="uni018D" unicode="&#x18d;" horiz-adv-x="1195" 
d="M601 84q175 0 303 119t158 296q44 249 -110 359q-79 56 -204 56q-176 0 -304 -119t-159 -296q-41 -251 111 -359q80 -56 205 -56zM754 1018q228 0 349 -147t82 -377t-202 -372t-396 -142q-24 0 -68 4l386 -460l-10 -56h-761l18 103h563l-460 542q-136 149 -95 385
q42 236 204 378t390 142z" />
    <glyph glyph-name="uni018E" unicode="&#x18e;" horiz-adv-x="1216" 
d="M330 791h756l93 527h-804l20 116h930l-252 -1434h-950l20 116h824l99 559h-756z" />
    <glyph glyph-name="uni018F" unicode="&#x18f;" horiz-adv-x="1594" 
d="M821 96q242 0 409 140t234 426h-1086q-34 -286 84 -426t359 -140zM1051 1454q211 0 348 -94t186 -260t12 -383q-59 -345 -263 -541t-523 -196t-466 216t-72 582h1212q58 560 -445 560q-278 0 -513 -145l-52 103q227 158 576 158z" />
    <glyph glyph-name="uni0190" unicode="&#x190;" horiz-adv-x="1197" 
d="M622 -20q-211 0 -342 102q-64 50 -94 132t-16 172q14 89 44 148q90 175 326 235q-96 25 -162 108t-51 207q21 174 165 272t344 98q202 0 328 -77q79 -48 118 -120l-99 -68q-9 17 -41 48q-107 101 -313 101q-155 0 -257 -74t-118 -184t72 -172q137 -95 372 -95l-21 -116
q-389 -1 -522 -169q-43 -54 -55 -125q-25 -141 65 -224t267 -83q235 0 407 149l80 -91q-171 -174 -497 -174z" />
    <glyph glyph-name="uni0191" unicode="&#x191;" horiz-adv-x="1291" 
d="M483 791h756l-20 -116h-756l-159 -900q-21 -117 -48 -158q-53 -81 -122 -115q-70 -34 -184 -34l20 117q132 0 178 95q19 40 30 95l292 1659h930l-20 -116h-804z" />
    <glyph glyph-name="florin" unicode="&#x192;" horiz-adv-x="1107" 
d="M1136 1434h147l-42 -116h-134q-179 0 -245 -197l-43 -123h282l-40 -116h-282l-389 -1113q-33 -92 -68 -142q-112 -159 -338 -159h-144l43 116h129q185 0 251 192q2 4 2 5l385 1101h-279l40 116h279l47 136q31 91 59 126q70 91 148 133q78 41 192 41z" />
    <glyph glyph-name="uni0193" unicode="&#x193;" horiz-adv-x="1549" 
d="M852 96q109 0 229 26t203 75l83 468h-392l20 116h518l-113 -645q-223 -156 -559 -156t-499 214q-94 124 -108 326q-6 94 17 224t93 266q70 134 177 233q105 99 251 155t315 56q250 0 407 -93q97 267 335 267l-20 -116q-51 0 -91 -24t-73 -73q-32 -50 -45 -105l-4 -24
l-81 -90q-96 76 -198 109q-103 33 -247 33q-286 0 -467 -181q-241 -241 -241 -603q0 -252 162 -372q116 -86 328 -86z" />
    <glyph glyph-name="uni0194" unicode="&#x194;" horiz-adv-x="1452" 
d="M652 -416q30 0 50 32t29 77q17 96 -27 186q-76 -89 -93 -186q-9 -45 1 -77t40 -32zM525 -483q-56 49 -33 176q23 126 165 307l-332 1434h137l288 -1279l738 1279h143l-836 -1434q39 -106 52 -170t5 -126q-8 -61 -24 -102t-38 -66q-21 -24 -48 -40q-48 -28 -105 -28
q-56 0 -112 49z" />
    <glyph glyph-name="uni0195" unicode="&#x195;" horiz-adv-x="1897" 
d="M1342 84q162 0 256 96t122 262l98 556h120l-98 -556q-81 -462 -516 -462q-200 0 -296 122t-58 340l21 114q29 168 -31 263t-221 95t-255 -96t-123 -262l-98 -556h-120l267 1516h120l-124 -705q49 93 145 150t206 57q201 0 297 -122t57 -340l-21 -114q-30 -168 30 -263
t222 -95z" />
    <glyph glyph-name="uni0196" unicode="&#x196;" horiz-adv-x="493" 
d="M374 116h45l-20 -116h-45q-136 0 -148 100q-6 51 7 120l214 1214h126l-214 -1214q-13 -54 -7 -79t42 -25z" />
    <glyph glyph-name="uni0197" unicode="&#x197;" horiz-adv-x="699" 
d="M431 852l102 582h126l-103 -582h185l-21 -116h-184l-129 -736h-126l129 736h-184l21 116h184z" />
    <glyph glyph-name="uni0198" unicode="&#x198;" horiz-adv-x="1297" 
d="M163 0l198 1127q17 93 44 145q87 162 311 162l-20 -116q-107 0 -152 -57t-57 -134l-74 -425l876 732h180l-746 -621l511 -813h-144l-460 733l-248 -205l-93 -528h-126z" />
    <glyph glyph-name="uni0199" unicode="&#x199;" horiz-adv-x="1014" 
d="M718 1530q84 0 138 -26l-52 -98q-46 20 -98 20t-82 -12t-52 -27q-22 -16 -40 -47t-29 -56t-22 -68q-11 -42 -16 -70t-14 -77l-96 -542l608 471h179l-517 -401l367 -597h-136l-323 526l-206 -159l-64 -367h-120l188 1069q34 190 72 269q39 80 78 116t96 56t141 20z" />
    <glyph glyph-name="uni019A" unicode="&#x19a;" horiz-adv-x="557" 
d="M392 0q-103 0 -129 53t-6 167l101 573h-183l19 104h182l110 619h120l-110 -619h184l-19 -104h-183l-101 -573q-13 -75 -4 -95t37 -21h45l-18 -104h-45z" />
    <glyph glyph-name="uni019B" unicode="&#x19b;" horiz-adv-x="1124" 
d="M480 1427q-44 0 -104 -25l-30 92q68 36 140 36t106 -17q58 -29 88 -88q29 -59 48 -138v-1l240 100l28 -103l-243 -101l288 -1182h-123l-199 856l-499 -856h-137l593 998l-32 139l-236 -97l-27 103l239 99v2q-28 113 -62 148t-78 35z" />
    <glyph glyph-name="uni019C" unicode="&#x19c;" horiz-adv-x="1793" 
d="M567 -20q-197 0 -272 136t-31 388l164 930h126l-164 -930q-72 -408 197 -408q165 0 263 176q56 100 78 232l164 930h126l-164 -930q-72 -408 194 -408q94 0 168 60q135 110 176 348l164 930h126l-252 -1434h-126l24 140q-111 -160 -299 -160t-262 150q-20 40 -28 87
q-127 -237 -372 -237z" />
    <glyph glyph-name="uni019D" unicode="&#x19d;" horiz-adv-x="1472" 
d="M178 -225l292 1659h140l605 -1252l220 1252h126l-252 -1434h-141l-604 1252l-260 -1477q-21 -117 -48 -158q-53 -81 -122 -115q-70 -34 -184 -34l20 117q132 0 178 95q20 40 30 95z" />
    <glyph glyph-name="uni019E" unicode="&#x19e;" horiz-adv-x="1148" 
d="M757 1018q206 0 299 -122t55 -340l-192 -1088h-120l192 1088q29 168 -31 263t-221 95t-255 -96t-123 -262l-98 -556h-120l176 998h120l-33 -187q49 93 145 150t206 57z" />
    <glyph glyph-name="uni019F" unicode="&#x19f;" horiz-adv-x="1662" 
d="M854 96q124 0 240 44q115 44 199 122q172 159 231 397h-1156q-20 -213 38 -332q112 -231 448 -231zM1049 1338q-115 0 -230 -44t-199 -122q-171 -157 -231 -397h1156q21 146 -17 277q-82 286 -479 286zM856 -20q-140 0 -234 26t-161 74q-146 102 -198 272
q-52 171 -20 347q31 177 101 311t177 233q105 99 251 155t286 56t234 -26t162 -74q145 -100 197 -273q53 -173 16 -364q-55 -321 -274 -526q-105 -99 -251 -155t-286 -56z" />
    <glyph glyph-name="Ohorn" unicode="&#x1a0;" horiz-adv-x="1706" 
d="M362 554q0 -78 16 -148q31 -139 146 -224q115 -86 323 -86q140 0 261 50t207 135q178 178 222 436q31 154 0 301t-146 234q-116 86 -343 86q-122 0 -242 -50t-207 -135q-178 -178 -222 -436q-15 -86 -15 -163zM856 -20q-140 0 -234 26t-161 74q-146 102 -198 272
q-52 171 -20 347q31 177 101 311t177 233q105 99 251 155t332 56t330 -88q38 10 77 40q73 56 91 161h123q-36 -201 -203 -270q100 -101 138 -251t9 -319t-99 -303t-177 -233q-105 -99 -251 -155t-286 -56z" />
    <glyph glyph-name="ohorn" unicode="&#x1a1;" horiz-adv-x="1230" 
d="M633 84q175 0 303 119t158 296q44 249 -110 359q-79 56 -204 56q-176 0 -304 -119t-159 -296q-41 -251 111 -359q80 -56 205 -56zM794 1018q168 0 284 -91q133 58 158 197h114q-33 -189 -207 -264q111 -144 73 -370t-201 -368t-391 -142t-348 147q-122 147 -82 377
t202 372t398 142z" />
    <glyph glyph-name="uni01A2" unicode="&#x1a2;" horiz-adv-x="2107" 
d="M342 554q0 -78 16 -148q31 -139 146 -224q115 -86 323 -86q140 0 261 50t207 135q178 178 222 436q31 154 0 301t-146 234q-116 86 -343 86q-122 0 -242 -50t-207 -135q-178 -178 -222 -436q-15 -86 -15 -163zM836 -20q-140 0 -234 26t-161 74q-146 102 -198 272
q-52 171 -20 347q31 177 101 311t177 233q105 99 251 155t315 56q267 0 425 -147q152 147 332 147t262 -119q84 -119 45 -339l-175 -996h-126l175 996q59 342 -188 342q-71 0 -137 -34t-112 -88q130 -200 77 -510t-272 -515q-105 -99 -251 -155t-286 -56z" />
    <glyph glyph-name="uni01A3" unicode="&#x1a3;" horiz-adv-x="1645" 
d="M633 84q175 0 303 119t158 296q44 249 -110 359q-79 56 -204 56q-176 0 -304 -119t-159 -296q-41 -251 111 -359q80 -56 205 -56zM794 1018q162 0 274 -84q130 84 294 84t220 -116t15 -345l-192 -1089h-120l192 1089q31 180 12 251q-19 70 -69 92q-32 14 -77 14
q-110 0 -198 -57q109 -145 71 -369t-201 -366t-391 -142t-348 147q-122 147 -82 377t202 372t398 142z" />
    <glyph glyph-name="uni01A4" unicode="&#x1a4;" horiz-adv-x="1614" 
d="M1236 1318h-470l-110 -625h470q157 1 255 83t124 230q25 148 -41 230t-228 82zM583 1318q-110 0 -154 -47t-60 -146h-126q27 149 97 217q48 47 84 62q77 30 179 30h653q192 0 300 -114t77 -315q-31 -200 -177 -314t-351 -114h-470l-101 -577h-126l231 1318h-56z" />
    <glyph glyph-name="uni01A5" unicode="&#x1a5;" horiz-adv-x="1243" 
d="M790 914q-164 0 -286 -117t-154 -296t54 -298t251 -119t287 117t153 296t-55 298t-250 119zM818 1018q148 0 255 -84q30 89 110 154t196 65l-22 -121q-162 0 -209 -177q102 -145 70 -365t-190 -366q-158 -144 -385 -144q-137 0 -225 72t-116 178l-134 -762h-119l269 1530
h119l-36 -205q61 101 165 163t252 62z" />
    <glyph glyph-name="uni01A6" unicode="&#x1a6;" horiz-adv-x="1342" 
d="M985 1116h-499l-103 -584h499q130 0 218 83t110 210t-34 209t-191 82zM1005 1232q178 0 268 -115t65 -285t-136 -278q-111 -110 -280 -133l253 -623h-133l-249 618h-431l-73 -416h-126l252 1434h126l-35 -202h499z" />
    <glyph glyph-name="uni01A7" unicode="&#x1a7;" horiz-adv-x="1267" 
d="M1244 1356q112 -98 86 -264q-26 -167 -158 -260t-398 -146q-266 -54 -370 -122q-102 -68 -122 -199t70 -200t266 -69q276 0 525 137l51 -106q-233 -147 -596 -147q-204 0 -333 93q-64 46 -95 122q-31 75 -18 173q26 192 168 286t397 145t359 117t125 184t-64 178t-261 60
q-99 0 -222 -29t-214 -72l-51 106q17 11 79 34q201 77 432 77q232 0 344 -98z" />
    <glyph glyph-name="uni01A8" unicode="&#x1a8;" horiz-adv-x="1000" 
d="M640 914q-142 0 -292 -77l-43 91q153 90 357 90t284 -72t61 -191t-115 -187t-288 -102q-190 -34 -263 -78t-88 -129t45 -130t202 -45q206 0 375 103l43 -91q-153 -116 -436 -116q-186 0 -276 70t-74 206q18 134 124 204t292 104t256 75t84 119t-46 118q-60 38 -202 38z
" />
    <glyph glyph-name="uni01A9" unicode="&#x1a9;" horiz-adv-x="1323" 
d="M425 1434h997l-20 -116h-818l340 -607l-540 -595h806l-20 -116h-1007l11 68l601 655l-361 644z" />
    <glyph glyph-name="uni01AA" unicode="&#x1aa;" horiz-adv-x="641" 
d="M474 1322q50 0 61 53q4 23 -9 39q-14 16 -36 15q-22 1 -39 -15t-21 -38t8 -38t36 -16zM454 1215q-66 1 -104 47t-28 118q12 72 64 114t123 42q72 0 110 -42t24 -119l-204 -1155q-12 -69 -9 -81t8 -23t34 -12h45l-18 -104h-45q-103 0 -129 53t-6 167l176 999
q-13 -4 -41 -4z" />
    <glyph glyph-name="uni01AB" unicode="&#x1ab;" horiz-adv-x="826" 
d="M595 84q43 0 101 12t87 28l-27 -155q-5 -26 -7 -37t-14 -48q-11 -38 -25 -60q-93 -154 -308 -154l19 104q138 0 185 96q19 39 33 114q-38 -4 -59 -4q-230 0 -253 192q-11 92 10 220l88 502h-211l18 104h211l53 299h120l-53 -299h309l-18 -104h-309l-79 -451
q-35 -200 -15 -265t71 -83q31 -11 73 -11z" />
    <glyph glyph-name="uni01AC" unicode="&#x1ac;" horiz-adv-x="1361" 
d="M670 1434h840l-20 -116h-510l-232 -1318h-126l232 1318h-204q-172 0 -206 -193h-134q54 309 360 309z" />
    <glyph glyph-name="uni01AD" unicode="&#x1ad;" horiz-adv-x="826" 
d="M602 84q49 0 108 19l24 -99q-60 -24 -166 -24t-168 50t-73 142t10 220l88 502h-211l18 104h211l24 136q18 100 48 152q84 148 303 148l-18 -104q-138 0 -183 -96q-19 -40 -30 -100l-24 -136h309l-18 -104h-309l-79 -451q-35 -200 -15 -265t71 -83q31 -11 80 -11z" />
    <glyph glyph-name="uni01AE" unicode="&#x1ae;" horiz-adv-x="1327" 
d="M714 0q-7 -35 -7 -74t33 -77t126 -38l-20 -116q-312 0 -258 305l232 1318h-510l20 116h1146l-20 -116h-510z" />
    <glyph glyph-name="Uhorn" unicode="&#x1af;" horiz-adv-x="1483" 
d="M740 96q210 0 339 132q128 132 169 366l148 840h95q118 8 174 101q21 35 29 81h127q-13 -75 -51 -133q-60 -92 -167 -134q-69 -27 -101 -27l-128 -728q-53 -300 -220 -457t-418 -157t-382 164q-130 164 -81 450l148 840h126l-148 -840q-41 -230 45 -364t296 -134z" />
    <glyph glyph-name="uhorn" unicode="&#x1b0;" horiz-adv-x="1266" 
d="M577 -20q-206 0 -299 122t-55 340l98 556h120l-98 -556q-29 -168 31 -263t221 -95t255 96t123 262l98 556h120q109 0 171 89q25 36 34 86h120q-38 -211 -244 -263q-37 -9 -100 -16l-157 -894h-120l33 187q-49 -93 -145 -150t-206 -57z" />
    <glyph glyph-name="uni01B1" unicode="&#x1b1;" horiz-adv-x="1689" 
d="M842 -20q-333 0 -476 191t-97 492q45 302 349 548q76 62 157 107h-368l20 116h539l-18 -103q-96 -41 -197 -127t-165 -160t-118 -178t-70 -204q-18 -102 -14 -186q7 -168 118 -274q110 -106 342 -106t399 156t211 403q28 195 -30 335q-78 190 -222 300q-34 26 -62 41
l18 103h539l-20 -116h-382q130 -91 224 -258q95 -167 66 -382q-30 -216 -132 -368t-268 -241t-343 -89z" />
    <glyph glyph-name="uni01B2" unicode="&#x1b2;" horiz-adv-x="1260" 
d="M461 1434l286 -1225q446 727 488 965q24 140 -126 140l21 120q283 0 237 -260q-27 -156 -175 -440t-432 -734h-96l-339 1434h136z" />
    <glyph glyph-name="uni01B3" unicode="&#x1b3;" horiz-adv-x="1457" 
d="M1310 1129l-448 -531l-105 -598h-126l105 598l-411 836h144l343 -703l399 472q108 131 204 181t221 50l-20 -116q-106 0 -165 -45t-141 -144z" />
    <glyph glyph-name="uni01B4" unicode="&#x1b4;" horiz-adv-x="1157" 
d="M128 -429q36 -1 56 7t37 24q43 37 64 66t43 65l157 267l-243 998h129l199 -856l377 646q60 97 83 116q72 62 128 83t130 21l-18 -118q-90 0 -158 -74q-24 -26 -53 -72l-614 -1033q-83 -141 -153 -192t-162 -51q-93 0 -151 36l62 92q51 -25 87 -25z" />
    <glyph glyph-name="uni01B5" unicode="&#x1b5;" horiz-adv-x="1374" 
d="M362 116h879l-20 -116h-1078l12 71l536 603h-276l21 116h358l470 528h-832l20 116h1031l-12 -71l-510 -573h284l-21 -116h-366z" />
    <glyph glyph-name="uni01B6" unicode="&#x1b6;" horiz-adv-x="1072" 
d="M123 0l10 61l379 398h-210l19 104h290l316 331h-611l18 104h799l-10 -60l-357 -375h220l-19 -104h-300l-338 -355h647l-18 -104h-835z" />
    <glyph glyph-name="uni01B7" unicode="&#x1b7;" horiz-adv-x="1217" 
d="M588 96q156 0 268 86t143 260t-67 252t-358 78l15 88l466 458h-668l20 116h871l-12 -68l-506 -499q419 -42 367 -426q-29 -217 -175 -339t-363 -122t-343 112q-62 55 -97 125l97 71q109 -192 342 -192z" />
    <glyph glyph-name="uni01B8" unicode="&#x1b8;" horiz-adv-x="1204" 
d="M601 96q230 0 410 195l91 -85q-193 -226 -521 -226q-206 0 -320 125t-77 336q45 252 258 360q117 60 265 72l-336 493l12 68h871l-20 -116h-680l316 -458l-15 -88q-259 0 -385 -78t-158 -253q-40 -259 156 -325q58 -20 133 -20z" />
    <glyph glyph-name="uni01B9" unicode="&#x1b9;" horiz-adv-x="1163" 
d="M511 -532q-150 0 -265 71q-116 71 -146 226q-16 78 2 169q16 91 49 159q33 67 73 113t94 82q146 98 348 117l-322 533l10 60h791l-18 -104h-619l307 -505l-16 -90q-189 0 -297 -33t-181 -110q-74 -77 -93 -193q-37 -212 56 -302q93 -89 224 -89q132 0 218 38t172 112
l76 -79q-179 -175 -463 -175z" />
    <glyph glyph-name="uni01BA" unicode="&#x1ba;" horiz-adv-x="937" 
d="M619 333q-31 14 -109 20t-133 6h-102l16 90l439 445h-602l18 104h791l-10 -60l-476 -484q135 0 190 -18q120 -38 174 -103q54 -66 38 -189q-41 -336 -541 -336q-163 0 -184 -116q-20 -120 197 -120q57 0 121 16l-18 -104q-45 -16 -127 -16q-158 0 -232 62t-60 165
q13 101 95 159t245 58t241 38t112 102q20 40 29 92t-1 91t-45 61t-66 37z" />
    <glyph glyph-name="uni01BB" unicode="&#x1bb;" horiz-adv-x="1229" 
d="M1076 1270q-62 68 -225 68t-287 -122q-50 -49 -83 -103l-118 46q37 67 92 122q56 55 108 89q130 84 315 84q186 0 292 -100t76 -262q-20 -110 -84 -204t-192 -219h176l-20 -116h-283l-477 -437h732l-20 -116h-930l16 92l499 461h-224l20 116h330l102 94q115 107 165 181
t64 148q18 110 -44 178z" />
    <glyph glyph-name="uni01BC" unicode="&#x1bc;" horiz-adv-x="1326" 
d="M858 920q114 0 200 -37t134 -101q104 -141 64 -332q-37 -204 -171 -337t-373 -133q-194 0 -302 61t-138 106l-13 19l80 78q12 -19 50 -48q131 -100 341 -100q160 0 266 98t134 256q31 147 -40 250q-71 104 -254 104q-184 0 -374 -79q-44 -18 -66 -31l-22 -12l149 636
h-174l20 116h970l-20 -116h-672l-108 -464q129 66 319 66z" />
    <glyph glyph-name="uni01BD" unicode="&#x1bd;" horiz-adv-x="974" 
d="M616 665q80 0 134 -16q54 -17 86 -43q69 -58 83 -143q15 -85 4 -136q-12 -102 -57 -168q-44 -67 -88 -101q-100 -78 -254 -78t-229 52q-74 52 -100 88l73 80q95 -116 265 -116q171 0 243 156q64 136 4 245q-41 76 -170 76q-170 0 -325 -114l106 447h-138l18 104h717
l-18 -104h-461l-62 -264q89 35 169 35z" />
    <glyph glyph-name="uni01BE" unicode="&#x1be;" horiz-adv-x="1111" 
d="M564 -24q166 0 267 72t123 194q28 154 -76 233t-308 86l35 196h-216l20 116h216l22 125h126l-22 -125h216l-20 -116h-216l-20 -111q319 -40 367 -270q29 -140 -48 -280q-132 -236 -476 -236q-144 0 -232 52q-89 52 -127 109q-38 56 -48 90l107 58q86 -193 310 -193z" />
    <glyph glyph-name="uni01BF" unicode="&#x1bf;" horiz-adv-x="1112" 
d="M742 940q-134 0 -242 -103t-139 -277l-82 -468q157 9 319 85q332 155 386 479q22 132 -42 208q-66 76 -200 76zM749 1044q190 0 289 -106t65 -302q-21 -127 -85 -232q-115 -190 -324 -290t-431 -114l-94 -532h-120l269 1530h120l-25 -143q58 89 147 139t189 50z" />
    <glyph glyph-name="uni01C0" unicode="&#x1c0;" horiz-adv-x="412" 
d="M143 0l252 1434h126l-252 -1434h-126z" />
    <glyph glyph-name="uni01C1" unicode="&#x1c1;" horiz-adv-x="682" 
d="M143 0l252 1434h126l-252 -1434h-126zM413 0l252 1434h126l-252 -1434h-126z" />
    <glyph glyph-name="uni01C2" unicode="&#x1c2;" horiz-adv-x="847" 
d="M599 632h269l-21 -116h-269l-90 -516h-126l90 516h-268l21 116h268l31 180h-267l20 116h268l89 506h126l-89 -506h269l-20 -116h-270z" />
    <glyph glyph-name="uni01C3" unicode="&#x1c3;" horiz-adv-x="462" 
d="M282 170q40 0 62 -26t16 -64t-36 -64q-28 -26 -68 -26t-62 26t-14 65q6 37 34 63t68 26zM258 316l187 1118h126l-207 -1118h-106z" />
    <glyph glyph-name="uni01C4" unicode="&#x1c4;" horiz-adv-x="2580" 
d="M2508 1847l-306 -311h-48l-198 311h97l137 -185l201 185h117zM1588 116h879l-20 -116h-1078l12 71l1109 1247h-832l20 116h1031l-12 -71zM615 116q357 0 538 245q107 145 144 356q31 154 0 296q-31 141 -147 223t-323 82h-326l-212 -1202h326zM595 0h-452l252 1434h452
q292 0 450 -155q185 -181 128 -562q-57 -343 -265 -530t-565 -187z" />
    <glyph glyph-name="uni01C5" unicode="&#x1c5;" horiz-adv-x="2348" 
d="M2340 1434l-306 -311h-48l-198 311h97l137 -185l201 185h117zM1399 0l10 61l794 833h-611l18 104h799l-10 -60l-794 -834h647l-18 -104h-835zM615 116q357 0 538 245q107 145 144 356q31 154 0 296q-31 141 -147 223t-323 82h-326l-212 -1202h326zM595 0h-452l252 1434
h452q292 0 450 -155q185 -181 128 -562q-57 -343 -265 -530t-565 -187z" />
    <glyph glyph-name="uni01C6" unicode="&#x1c6;" horiz-adv-x="2221" 
d="M2213 1434l-306 -311h-48l-198 311h97l137 -185l201 185h117zM1272 0l10 61l794 833h-611l18 104h799l-10 -60l-794 -834h647l-18 -104h-835zM618 84q164 0 288 117q122 117 154 296t-56 298q-86 119 -250 119t-286 -117t-154 -296t54 -298t250 -119zM595 -20
q-206 0 -322 146q-117 146 -83 375t192 373t384 144q137 0 225 -72t116 -178l132 748h119l-267 -1516h-119l36 205q-61 -101 -165 -163t-248 -62z" />
    <glyph glyph-name="uni01C7" unicode="&#x1c7;" horiz-adv-x="2011" 
d="M1470 96q166 0 243 89t106 253l175 996h126l-175 -996q-41 -232 -157 -345t-320 -113t-299 110q-47 55 -63 129l114 38q57 -161 250 -161zM521 1434l-232 -1318h738l-20 -116h-864l252 1434h126z" />
    <glyph glyph-name="uni01C8" unicode="&#x1c8;" horiz-adv-x="1550" 
d="M1002 -428q50 0 80 12t51 27q21 16 39 47t30 56q11 25 22 68q11 42 16 70t14 77l188 1069h120l-188 -1069q-34 -190 -72 -269q-39 -80 -78 -116q-84 -76 -227 -76q-91 0 -146 30l51 94q51 -20 100 -20zM1566 1373q38 1 59 -25t15 -62t-34 -60t-66 -25t-58 25t-14 62
t34 60q26 24 64 25zM521 1434l-232 -1318h738l-20 -116h-864l252 1434h126z" />
    <glyph glyph-name="uni01C9" unicode="&#x1c9;" horiz-adv-x="904" 
d="M356 -428q50 0 80 12t51 27q21 16 39 47t30 56q11 25 22 68q11 42 16 70t14 77l188 1069h120l-188 -1069q-34 -190 -72 -269q-39 -80 -78 -116q-84 -76 -227 -76q-91 0 -146 30l51 94q51 -20 100 -20zM920 1373q38 1 59 -25t15 -62t-34 -60t-66 -25t-58 25t-14 62t34 60
q26 24 64 25zM344 0q-103 0 -129 53t-6 167l229 1296h120l-229 -1296q-13 -75 -4 -95t37 -21h45l-18 -104h-45z" />
    <glyph glyph-name="uni01CA" unicode="&#x1ca;" horiz-adv-x="2382" 
d="M1821 96q166 0 243 89t106 253l175 996h126l-175 -996q-41 -232 -157 -345t-320 -113t-299 110q-47 55 -63 129l114 38q57 -161 250 -161zM163 0l252 1434h140l605 -1252l220 1252h126l-252 -1434h-141l-604 1252l-220 -1252h-126z" />
    <glyph glyph-name="uni01CB" unicode="&#x1cb;" horiz-adv-x="1869" 
d="M1301 -428q49 0 79 12t52 27q22 16 40 47t29 56t22 68q11 42 16 70t14 77l188 1069h120l-188 -1069q-34 -190 -72 -269q-39 -80 -78 -116q-84 -77 -227 -76q-91 0 -146 30l51 94q51 -20 100 -20zM1866 1373q38 1 58 -25t14 -62t-34 -60t-64 -25q-38 -1 -59 25t-15 62
t34 60t66 25zM163 0l252 1434h140l605 -1252l220 1252h126l-252 -1434h-141l-604 1252l-220 -1252h-126z" />
    <glyph glyph-name="uni01CC" unicode="&#x1cc;" horiz-adv-x="1564" 
d="M1016 -428q50 0 80 12t51 27q21 16 39 47t30 56q11 25 22 68q11 42 16 70t14 77l188 1069h120l-188 -1069q-34 -190 -72 -269q-39 -80 -78 -116q-84 -77 -227 -76q-91 0 -146 30l51 94q51 -20 100 -20zM1580 1373q38 1 59 -25t15 -62t-34 -60t-66 -25t-58 25t-14 62
t34 60q26 24 64 25zM757 1018q206 0 299 -122t55 -340l-98 -556h-120l98 556q29 168 -31 263t-221 95t-255 -96t-123 -262l-98 -556h-120l176 998h120l-33 -187q49 93 145 150t206 57z" />
    <glyph glyph-name="uni01CD" unicode="&#x1cd;" horiz-adv-x="1483" 
d="M1329 1847l-306 -311h-48l-198 311h97l137 -185l201 185h117zM972 1255l-409 -684h576zM494 455l-271 -455h-150l863 1434h116l358 -1434h-131l-111 455h-674z" />
    <glyph glyph-name="uni01CE" unicode="&#x1ce;" 
d="M618 84q164 0 288 117q122 117 154 296t-56 298q-86 119 -250 119t-286 -117t-154 -296t54 -298t250 -119zM595 -20q-206 0 -322 146q-117 146 -83 375t192 373t384 144q137 0 225 -72t116 -178l41 230h119l-176 -998h-119l36 205q-61 -101 -165 -163t-248 -62z
M1133 1434l-306 -311h-48l-198 311h97l137 -185l201 185h117z" />
    <glyph glyph-name="uni01CF" unicode="&#x1cf;" horiz-adv-x="446" 
d="M826 1847l-306 -311h-48l-198 311h97l137 -185l201 185h117zM163 0l252 1434h126l-252 -1434h-126z" />
    <glyph glyph-name="uni01D0" unicode="&#x1d0;" horiz-adv-x="391" 
d="M731 1434l-306 -311h-48l-198 311h97l137 -185l201 185h117zM143 0l175 998h120l-175 -998h-120z" />
    <glyph glyph-name="uni01D1" unicode="&#x1d1;" horiz-adv-x="1662" 
d="M1431 1847l-306 -311h-48l-198 311h97l137 -185l201 185h117zM362 554q0 -78 16 -148q31 -139 146 -224q115 -86 323 -86q140 0 261 50t207 135q178 178 222 436q31 154 0 301t-146 234q-116 86 -343 86q-122 0 -242 -50t-207 -135q-178 -178 -222 -436q-15 -86 -15 -163
zM856 -20q-140 0 -234 26t-161 74q-146 102 -198 272q-52 171 -20 347q31 177 101 311t177 233q105 99 251 155t286 56t234 -26t162 -74q145 -100 197 -273q53 -173 16 -364q-55 -321 -274 -526q-105 -99 -251 -155t-286 -56z" />
    <glyph glyph-name="uni01D2" unicode="&#x1d2;" horiz-adv-x="1227" 
d="M1146 1434l-306 -311h-48l-198 311h97l137 -185l201 185h117zM633 84q175 0 303 119t158 296q44 249 -110 359q-79 56 -204 56q-176 0 -304 -119t-159 -296q-41 -251 111 -359q80 -56 205 -56zM786 1018q228 0 349 -147t82 -377t-202 -372t-391 -142t-348 147
q-122 147 -82 377t202 372t390 142z" />
    <glyph glyph-name="uni01D3" unicode="&#x1d3;" horiz-adv-x="1433" 
d="M1319 1847l-306 -311h-48l-198 311h97l137 -185l201 185h117zM740 96q210 0 339 132q128 132 169 366l148 840h126l-148 -840q-53 -300 -220 -457t-418 -157t-382 164q-130 164 -81 450l148 840h126l-148 -840q-41 -230 45 -364t296 -134z" />
    <glyph glyph-name="uni01D4" unicode="&#x1d4;" horiz-adv-x="1150" 
d="M1109 1434l-306 -311h-48l-198 311h97l137 -185l201 185h117zM577 -20q-206 0 -299 122t-55 340l98 556h120l-98 -556q-29 -168 31 -263t221 -95t255 96t123 262l98 556h120l-176 -998h-120l33 187q-49 -93 -145 -150t-206 -57z" />
    <glyph glyph-name="uni01D5" unicode="&#x1d5;" horiz-adv-x="1433" 
d="M695 1817l18 104h686l-18 -104h-686zM1192 1728q38 0 58 -26t14 -61q-6 -37 -34 -61t-64 -24q-38 0 -59 26t-15 61q6 37 34 61t66 24zM850 1728q38 0 58 -26t14 -61q-6 -37 -34 -61t-64 -24q-38 0 -59 26t-15 61q6 37 34 61t66 24zM740 96q210 0 339 132q128 132 169 366
l148 840h126l-148 -840q-53 -300 -220 -457t-418 -157t-382 164q-130 164 -81 450l148 840h126l-148 -840q-41 -230 45 -364t296 -134z" />
    <glyph glyph-name="uni01D6" unicode="&#x1d6;" horiz-adv-x="1158" 
d="M495 1462l18 104h686l-18 -104h-686zM992 1373q38 1 58 -25t14 -62t-34 -60t-64 -25q-38 -1 -59 25t-15 62t34 60t66 25zM650 1373q38 1 58 -25t14 -62t-34 -60t-64 -25q-38 -1 -59 25t-15 62t34 60t66 25zM577 -20q-206 0 -299 122t-55 340l98 556h120l-98 -556
q-29 -168 31 -263t221 -95t255 96t123 262l98 556h120l-176 -998h-120l33 187q-49 -93 -145 -150t-206 -57z" />
    <glyph glyph-name="uni01D7" unicode="&#x1d7;" horiz-adv-x="1433" 
d="M740 96q210 0 339 132q128 132 169 366l148 840h126l-148 -840q-53 -300 -220 -457t-418 -157t-382 164q-130 164 -81 450l148 840h126l-148 -840q-41 -230 45 -364t296 -134zM958 1818l271 281h174l-304 -281h-141zM1190 1728q38 0 59 -26t15 -61q-6 -37 -34 -61
t-66 -24t-58 26t-14 61q6 37 34 61q26 24 64 24zM848 1728q38 0 59 -26t15 -61q-6 -37 -34 -61t-66 -24t-58 26t-14 61q6 37 34 61q26 24 64 24z" />
    <glyph glyph-name="uni01D8" unicode="&#x1d8;" horiz-adv-x="1163" 
d="M992 1373q38 1 58 -25t14 -62t-34 -60t-64 -25q-38 -1 -59 25t-15 62t34 60t66 25zM650 1373q38 1 58 -25t14 -62t-34 -60t-64 -25q-38 -1 -59 25t-15 62t34 60t66 25zM759 1463l271 281h174l-304 -281h-141zM577 -20q-206 0 -299 122t-55 340l98 556h120l-98 -556
q-29 -168 31 -263t221 -95t255 96t123 262l98 556h120l-176 -998h-120l33 187q-49 -93 -145 -150t-206 -57z" />
    <glyph glyph-name="uni01D9" unicode="&#x1d9;" horiz-adv-x="1433" 
d="M1192 1728q38 0 58 -26t14 -61q-6 -37 -34 -61t-64 -24q-38 0 -59 26t-15 61q6 37 34 61t66 24zM850 1728q38 0 58 -26t14 -61q-6 -37 -34 -61t-64 -24q-38 0 -59 26t-15 61q6 37 34 61t66 24zM740 96q210 0 339 132q128 132 169 366l148 840h126l-148 -840
q-53 -300 -220 -457t-418 -157t-382 164q-130 164 -81 450l148 840h126l-148 -840q-41 -230 45 -364t296 -134z" />
    <glyph glyph-name="uni01DA" unicode="&#x1da;" horiz-adv-x="1150" 
d="M992 1373q38 1 58 -25t14 -62t-34 -60t-64 -25q-38 -1 -59 25t-15 62t34 60t66 25zM650 1373q38 1 58 -25t14 -62t-34 -60t-64 -25q-38 -1 -59 25t-15 62t34 60t66 25zM577 -20q-206 0 -299 122t-55 340l98 556h120l-98 -556q-29 -168 31 -263t221 -95t255 96t123 262
l98 556h120l-176 -998h-120l33 187q-49 -93 -145 -150t-206 -57z" />
    <glyph glyph-name="uni01DB" unicode="&#x1db;" horiz-adv-x="1433" 
d="M740 96q210 0 339 132q128 132 169 366l148 840h126l-148 -840q-53 -300 -220 -457t-418 -157t-382 164q-130 164 -81 450l148 840h126l-148 -840q-41 -230 45 -364t296 -134zM941 2099l173 -281h-141l-206 281h174zM1190 1728q38 0 59 -26t15 -61q-6 -37 -34 -61
t-66 -24t-58 26t-14 61q6 37 34 61q26 24 64 24zM848 1728q38 0 59 -26t15 -61q-6 -37 -34 -61t-66 -24t-58 26t-14 61q6 37 34 61q26 24 64 24z" />
    <glyph glyph-name="uni01DC" unicode="&#x1dc;" horiz-adv-x="1150" 
d="M992 1373q38 1 58 -25t14 -62t-34 -60t-64 -25q-38 -1 -59 25t-15 62t34 60t66 25zM650 1373q38 1 58 -25t14 -62t-34 -60t-64 -25q-38 -1 -59 25t-15 62t34 60t66 25zM742 1744l173 -281h-141l-206 281h174zM577 -20q-206 0 -299 122t-55 340l98 556h120l-98 -556
q-29 -168 31 -263t221 -95t255 96t123 262l98 556h120l-176 -998h-120l33 187q-49 -93 -145 -150t-206 -57z" />
    <glyph glyph-name="uni01DD" unicode="&#x1dd;" horiz-adv-x="1152" 
d="M599 84q153 0 265 108t141 255h-684q-27 -139 38 -252q29 -51 91 -81t149 -30zM582 -20q-216 0 -318 148t-52 423h812q27 137 -42 252q-30 51 -92 81t-144 30q-198 0 -364 -96l-53 90q161 110 427 110q220 0 320 -143t68 -373q-34 -230 -190 -376t-372 -146z" />
    <glyph glyph-name="uni01DE" unicode="&#x1de;" horiz-adv-x="1492" 
d="M715 1817l18 104h686l-18 -104h-686zM1212 1728q38 0 58 -26t14 -61q-6 -37 -34 -61t-64 -24q-38 0 -59 26t-15 61q6 37 34 61t66 24zM870 1728q38 0 58 -26t14 -61q-6 -37 -34 -61t-64 -24q-38 0 -59 26t-15 61q6 37 34 61t66 24zM972 1255l-409 -684h576zM494 455
l-271 -455h-150l863 1434h116l358 -1434h-131l-111 455h-674z" />
    <glyph glyph-name="uni01DF" unicode="&#x1df;" 
d="M618 84q164 0 288 117q122 117 154 296t-56 298q-86 119 -250 119t-286 -117t-154 -296t54 -298t250 -119zM595 -20q-206 0 -322 146q-117 146 -83 375t192 373t384 144q137 0 225 -72t116 -178l41 230h119l-176 -998h-119l36 205q-61 -101 -165 -163t-248 -62zM541 1462
l18 104h686l-18 -104h-686zM1038 1373q38 1 58 -25t14 -62t-34 -60t-64 -25q-38 -1 -59 25t-15 62t34 60t66 25zM696 1373q38 1 58 -25t14 -62t-34 -60t-64 -25q-38 -1 -59 25t-15 62t34 60t66 25z" />
    <glyph glyph-name="uni01E0" unicode="&#x1e0;" horiz-adv-x="1492" 
d="M715 1817l18 104h686l-18 -104h-686zM1040 1728q38 0 59 -26t15 -61q-6 -37 -34 -61t-66 -24t-58 26t-14 61q6 37 34 61q26 24 64 24zM972 1255l-409 -684h576zM494 455l-271 -455h-150l863 1434h116l358 -1434h-131l-111 455h-674z" />
    <glyph glyph-name="uni01E1" unicode="&#x1e1;" 
d="M618 84q164 0 288 117q122 117 154 296t-56 298q-86 119 -250 119t-286 -117t-154 -296t54 -298t250 -119zM595 -20q-206 0 -322 146q-117 146 -83 375t192 373t384 144q137 0 225 -72t116 -178l41 230h119l-176 -998h-119l36 205q-61 -101 -165 -163t-248 -62zM541 1462
l18 104h686l-18 -104h-686zM866 1373q38 1 59 -25t15 -62t-34 -60t-66 -25t-58 25t-14 62t34 60q26 24 64 25z" />
    <glyph glyph-name="uni01E2" unicode="&#x1e2;" horiz-adv-x="2130" 
d="M1289 1536l18 104h686l-18 -104h-686zM1261 1218l-492 -581h390zM1312 791h756l-20 -116h-756l-99 -559h824l-20 -116h-950l91 521h-467l-442 -521h-156l1215 1434h941l-20 -116h-804z" />
    <glyph glyph-name="uni01E3" unicode="&#x1e3;" horiz-adv-x="1892" 
d="M790 1330l18 104h686l-18 -104h-686zM1477 914q-153 0 -265 -108t-141 -255h684q27 139 -38 252q-29 51 -91 81t-149 30zM486 84q198 0 306 118t130 235l19 111q-321 30 -519 -64q-118 -56 -138 -170t38 -172t164 -58zM745 1018q287 0 328 -197q78 93 186 145t232 52
q219 0 321 -148t52 -423h-812q-27 -137 42 -252q30 -51 92 -81t144 -30q193 0 362 99l55 -93q-179 -110 -435 -110q-140 0 -232 62t-130 177q-176 -239 -478 -239q-186 0 -273 112q-63 81 -41 214q52 307 537 339q127 8 262 -5q27 150 -21 212t-212 62t-332 -71l-38 96
q174 79 391 79z" />
    <glyph glyph-name="uni01E4" unicode="&#x1e4;" horiz-adv-x="1603" 
d="M852 96q109 0 229 26t203 75l36 204h-392l21 116h391l27 148h-392l20 116h518l-46 -264h220l-21 -116h-220l-46 -265q-223 -156 -559 -156t-499 214q-94 124 -108 326q-6 94 17 224t93 266q70 134 177 233q105 99 251 155t315 56q328 0 509 -168l-81 -90q-96 76 -198 109
q-103 33 -247 33q-286 0 -467 -181q-241 -241 -241 -603q0 -252 162 -372q116 -86 328 -86z" />
    <glyph glyph-name="uni01E5" unicode="&#x1e5;" horiz-adv-x="1232" 
d="M624 84q164 0 288 117q122 117 154 296t-56 298q-86 119 -250 119t-286 -117t-154 -296t54 -298t250 -119zM519 -532q-269 0 -414 113l66 95q160 -104 362 -104q244 0 355 172h-244l19 104h275q24 65 40 152l36 205q-61 -101 -165 -163t-248 -62q-206 0 -322 146
q-117 146 -83 375t192 373t384 144q137 0 225 -72t116 -178l40 230h120l-175 -998q-14 -88 -35 -152h178l-19 -104h-202q-144 -276 -501 -276z" />
    <glyph glyph-name="Gcaron" unicode="&#x1e6;" horiz-adv-x="1512" 
d="M1443 1847l-306 -311h-48l-198 311h97l137 -185l201 185h117zM852 96q109 0 229 26t203 75l83 468h-392l20 116h518l-113 -645q-223 -156 -559 -156t-499 214q-94 124 -108 326q-6 94 17 224t93 266q70 134 177 233q105 99 251 155t315 56q328 0 509 -168l-81 -90
q-96 76 -198 109q-103 33 -247 33q-286 0 -467 -181q-241 -241 -241 -603q0 -252 162 -372q116 -86 328 -86z" />
    <glyph glyph-name="gcaron" unicode="&#x1e7;" horiz-adv-x="1232" 
d="M1132 1434l-306 -311h-48l-198 311h97l137 -185l201 185h117zM624 84q164 0 288 117q122 117 154 296t-56 298q-86 119 -250 119t-286 -117t-154 -296t54 -298t250 -119zM519 -532q-269 0 -414 113l66 95q161 -104 359 -104t304 104t144 324l36 205q-61 -101 -165 -163
t-248 -62q-206 0 -322 146q-117 146 -83 375t192 373t384 144q137 0 225 -72t116 -178l40 230h120l-175 -998q-80 -532 -579 -532z" />
    <glyph glyph-name="uni01E8" unicode="&#x1e8;" horiz-adv-x="1297" 
d="M1209 1847l-306 -311h-48l-198 311h97l137 -185l201 185h117zM413 700l878 734h178l-746 -621l511 -813h-144l-460 733l-248 -205l-93 -528h-126l252 1434h126z" />
    <glyph glyph-name="uni01E9" unicode="&#x1e9;" horiz-adv-x="1014" 
d="M1099 1847l-306 -311h-48l-198 311h97l137 -185l201 185h117zM143 0l267 1516h120l-175 -989l608 471h179l-517 -401l367 -597h-136l-323 526l-206 -159l-64 -367h-120z" />
    <glyph glyph-name="uni01EA" unicode="&#x1ea;" horiz-adv-x="1662" 
d="M362 554q0 -78 16 -148q31 -139 146 -224q115 -86 323 -86q140 0 261 50t207 135q178 178 222 436q31 154 0 301t-146 234q-116 86 -343 86q-122 0 -242 -50t-207 -135q-178 -178 -222 -436q-15 -86 -15 -163zM1058 1454q140 0 234 -26t162 -74q145 -100 197 -273
q53 -173 16 -364q-49 -283 -228 -479t-451 -244q-159 -38 -175 -148q-9 -65 33 -88t84 -23h43l-20 -110q-120 -12 -190 46t-48 159q22 102 137 151l-25 -1q-322 0 -485 214q-94 124 -108 326q-6 94 17 224t93 266q70 134 177 233q105 99 251 155t286 56z" />
    <glyph glyph-name="uni01EB" unicode="&#x1eb;" horiz-adv-x="1227" 
d="M633 84q175 0 303 119t158 296q44 249 -110 359q-79 56 -204 56q-176 0 -304 -119t-159 -296q-41 -251 111 -359q80 -56 205 -56zM786 1018q228 0 349 -147t85 -362t-168 -351q-130 -136 -322 -168q-142 -42 -157 -144q-9 -65 33 -88t84 -23h43l-20 -110
q-120 -12 -190 46t-48 159q22 102 136 150q-219 4 -338 150t-79 375t202 371t390 142z" />
    <glyph glyph-name="uni01EC" unicode="&#x1ec;" horiz-adv-x="1662" 
d="M758 1536l18 104h686l-18 -104h-686zM362 554q0 -78 16 -148q31 -139 146 -224q115 -86 323 -86q140 0 261 50t207 135q178 178 222 436q31 154 0 301t-146 234q-116 86 -343 86q-122 0 -242 -50t-207 -135q-178 -178 -222 -436q-15 -86 -15 -163zM1058 1454
q140 0 234 -26t162 -74q145 -100 197 -273q53 -173 16 -364q-49 -283 -228 -479t-451 -244q-159 -38 -175 -148q-9 -65 33 -88t84 -23h43l-20 -110q-120 -12 -190 46t-48 159q22 102 137 151l-25 -1q-322 0 -485 214q-94 124 -108 326q-6 94 17 224t93 266q70 134 177 233
q105 99 251 155t286 56z" />
    <glyph glyph-name="uni01ED" unicode="&#x1ed;" horiz-adv-x="1227" 
d="M509 1330l18 104h686l-18 -104h-686zM633 84q175 0 303 119t158 296q44 249 -110 359q-79 56 -204 56q-176 0 -304 -119t-159 -296q-41 -251 111 -359q80 -56 205 -56zM786 1018q228 0 349 -147t85 -362t-168 -351q-130 -136 -322 -168q-142 -42 -157 -144q-9 -65 33 -88
t84 -23h43l-20 -110q-120 -12 -190 46t-48 159q22 102 136 150q-219 4 -338 150t-79 375t202 371t390 142z" />
    <glyph glyph-name="uni01EE" unicode="&#x1ee;" horiz-adv-x="1177" 
d="M1155 1847l-306 -311h-48l-198 311h97l137 -185l201 185h117zM568 96q156 0 268 86t143 260t-67 252t-358 78l15 88l466 458h-668l20 116h871l-12 -68l-506 -499q419 -42 367 -426q-29 -217 -175 -339t-363 -122t-343 112q-62 55 -97 125l97 71q109 -192 342 -192z" />
    <glyph glyph-name="uni01EF" unicode="&#x1ef;" horiz-adv-x="1100" 
d="M1085 1434l-306 -311h-48l-198 311h97l137 -185l201 185h117zM422 -428q300 0 414 232q32 64 46 150q16 88 -8 158t-66 105t-118 55q-74 20 -128 24t-131 3l16 90l475 505h-609l18 104h791l-10 -60l-512 -544q47 -4 89 -12t113 -38q70 -30 116 -74t74 -130t12 -191
t-56 -187q-75 -150 -213 -222t-298 -72q-283 0 -397 185l86 68q120 -149 296 -149z" />
    <glyph glyph-name="uni01F0" unicode="&#x1f0;" horiz-adv-x="464" 
d="M764 1434l-306 -311h-48l-198 311h97l137 -185l201 185h117zM-89 -428q49 0 79 12t52 27q22 16 40 47t29 56t22 68q11 42 16 70t14 77l188 1069h120l-188 -1069q-34 -190 -72 -269q-39 -80 -78 -116q-84 -76 -227 -76q-91 0 -146 30l51 94q51 -20 100 -20z" />
    <glyph glyph-name="uni01F1" unicode="&#x1f1;" horiz-adv-x="2553" 
d="M1561 116h879l-20 -116h-1078l12 71l1109 1247h-832l20 116h1031l-12 -71zM615 116q357 0 538 245q107 145 144 356q31 154 0 296q-31 141 -147 223t-323 82h-326l-212 -1202h326zM595 0h-452l252 1434h452q292 0 450 -155q185 -181 128 -562q-57 -343 -265 -530
t-565 -187z" />
    <glyph glyph-name="uni01F2" unicode="&#x1f2;" horiz-adv-x="2348" 
d="M1399 0l10 61l794 833h-611l18 104h799l-10 -60l-794 -834h647l-18 -104h-835zM615 116q357 0 538 245q107 145 144 356q31 154 0 296q-31 141 -147 223t-323 82h-326l-212 -1202h326zM595 0h-452l252 1434h452q292 0 450 -155q185 -181 128 -562q-57 -343 -265 -530
t-565 -187z" />
    <glyph glyph-name="uni01F3" unicode="&#x1f3;" horiz-adv-x="2224" 
d="M1275 0l10 61l794 833h-611l18 104h799l-10 -60l-794 -834h647l-18 -104h-835zM618 84q164 0 288 117q122 117 154 296t-56 298q-86 119 -250 119t-286 -117t-154 -296t54 -298t250 -119zM595 -20q-206 0 -322 146q-117 146 -83 375t192 373t384 144q137 0 225 -72
t116 -178l132 748h119l-267 -1516h-119l36 205q-61 -101 -165 -163t-248 -62z" />
    <glyph glyph-name="uni01F4" unicode="&#x1f4;" horiz-adv-x="1512" 
d="M1024 1536l271 281h174l-304 -281h-141zM852 96q109 0 229 26t203 75l83 468h-392l20 116h518l-113 -645q-223 -156 -559 -156t-499 214q-94 124 -108 326q-6 94 17 224t93 266q70 134 177 233q105 99 251 155t315 56q328 0 509 -168l-81 -90q-96 76 -198 109
q-103 33 -247 33q-286 0 -467 -181q-241 -241 -241 -603q0 -252 162 -372q116 -86 328 -86z" />
    <glyph glyph-name="uni01F5" unicode="&#x1f5;" horiz-adv-x="1232" 
d="M737 1153l271 281h174l-304 -281h-141zM624 84q164 0 288 117q122 117 154 296t-56 298q-86 119 -250 119t-286 -117t-154 -296t54 -298t250 -119zM519 -532q-269 0 -414 113l66 95q161 -104 359 -104t304 104t144 324l36 205q-61 -101 -165 -163t-248 -62
q-206 0 -322 146q-117 146 -83 375t192 373t384 144q137 0 225 -72t116 -178l40 230h120l-175 -998q-80 -532 -579 -532z" />
    <glyph glyph-name="uni01F6" unicode="&#x1f6;" horiz-adv-x="2106" 
d="M1551 84q161 0 255 96t123 262l98 556h120l-98 -556q-81 -462 -506 -462q-217 0 -313 121t-57 341l42 234h-827l-119 -676h-126l252 1434h126l-113 -642h827l113 642h126l-175 -992q-29 -168 31 -263t221 -95z" />
    <glyph glyph-name="uni01F7" unicode="&#x1f7;" horiz-adv-x="1106" 
d="M820 1358q-132 0 -240 -102t-139 -276l-80 -458q122 6 232 46q182 67 307 186q125 120 157 302q24 140 -40 221t-197 81zM830 1474q195 0 291 -110t62 -308q-21 -127 -85 -232q-115 -190 -324 -290t-431 -114l-74 -420h-126l252 1434h126l-26 -149q55 93 149 141t186 48z
" />
    <glyph glyph-name="uni01F8" unicode="&#x1f8;" horiz-adv-x="1417" 
d="M873 1817l173 -281h-141l-206 281h174zM163 0l252 1434h140l605 -1252l220 1252h126l-252 -1434h-141l-604 1252l-220 -1252h-126z" />
    <glyph glyph-name="uni01F9" unicode="&#x1f9;" horiz-adv-x="1148" 
d="M697 1434l173 -281h-141l-206 281h174zM757 1018q206 0 299 -122t55 -340l-98 -556h-120l98 556q29 168 -31 263t-221 95t-255 -96t-123 -262l-98 -556h-120l176 998h120l-33 -187q49 93 145 150t206 57z" />
    <glyph glyph-name="Aringacute" unicode="&#x1fa;" horiz-adv-x="1483" 
d="M972 1255l-409 -684h576zM494 455l-271 -455h-150l863 1434h116l358 -1434h-131l-111 455h-674zM1024 1619q44 -1 75 27t38 69t-15 69t-64 27q-44 1 -75 -27t-38 -69t15 -69q20 -28 64 -27zM1014 1536q-80 0 -122 52q-44 52 -32 123q12 70 66 122l243 225h174l-208 -175
q47 -20 71 -66q24 -47 14 -113q-12 -66 -69 -117t-137 -51z" />
    <glyph glyph-name="aringacute" unicode="&#x1fb;" 
d="M618 84q164 0 288 117q122 117 154 296t-56 298q-86 119 -250 119t-286 -117t-154 -296t54 -298t250 -119zM595 -20q-206 0 -322 146q-117 146 -83 375t192 373t384 144q137 0 225 -72t116 -178l41 230h119l-176 -998h-119l36 205q-61 -101 -165 -163t-248 -62zM846 1218
q44 0 74 28q31 28 38 68q8 40 -14 68t-66 28t-74 -28q-31 -28 -38 -68q-8 -40 14 -68t66 -28zM836 1135q-80 1 -124 53t-30 122q12 70 65 122l243 225h174l-208 -175q48 -20 72 -66t12 -112t-68 -118q-56 -51 -136 -51z" />
    <glyph glyph-name="AEacute" unicode="&#x1fc;" horiz-adv-x="2130" 
d="M1360 1536l271 281h174l-304 -281h-141zM1261 1218l-492 -581h390zM1312 791h756l-20 -116h-756l-99 -559h824l-20 -116h-950l91 521h-467l-442 -521h-156l1215 1434h941l-20 -116h-804z" />
    <glyph glyph-name="aeacute" unicode="&#x1fd;" horiz-adv-x="1892" 
d="M1063 1153l271 281h174l-304 -281h-141zM1477 914q-153 0 -265 -108t-141 -255h684q27 139 -38 252q-29 51 -91 81t-149 30zM486 84q198 0 306 118t130 235l19 111q-321 30 -519 -64q-118 -56 -138 -170t38 -172t164 -58zM745 1018q287 0 328 -197q78 93 186 145t232 52
q219 0 321 -148t52 -423h-812q-27 -137 42 -252q30 -51 92 -81t144 -30q193 0 362 99l55 -93q-179 -110 -435 -110q-140 0 -232 62t-130 177q-176 -239 -478 -239q-186 0 -273 112q-63 81 -41 214q52 307 537 339q127 8 262 -5q27 150 -21 212t-212 62t-332 -71l-38 96
q174 79 391 79z" />
    <glyph glyph-name="Oslashacute" unicode="&#x1fe;" horiz-adv-x="1662" 
d="M1023 1536l271 281h174l-304 -281h-141zM1056 1338q-130 0 -250 -50t-207 -135q-178 -178 -222 -436q-32 -178 3 -318t146 -218l751 1126q-91 31 -221 31zM855 96q132 0 253 50t207 135q178 178 222 436q32 181 -4 321t-150 218l-751 -1128q91 -32 223 -32zM840 -20
q-156 0 -276 46l-58 -87h-141l94 142q-138 93 -193 261q-56 168 -24 350t102 318q70 134 177 233q105 99 251 155t302 56t272 -45l57 86h139l-92 -139q141 -94 197 -262q57 -168 25 -352t-102 -318t-177 -233q-105 -99 -251 -155t-302 -56z" />
    <glyph glyph-name="oslashacute" unicode="&#x1ff;" horiz-adv-x="1227" 
d="M734 1153l271 281h174l-304 -281h-141zM780 914q-176 0 -304 -119t-159 -296q-40 -231 89 -343l494 742q-56 16 -120 16zM633 84q175 0 303 119t158 296q20 111 -4 201t-90 146l-497 -743q54 -19 130 -19zM794 1018q89 0 168 -28l46 69h134l-80 -120q96 -68 138 -183
t18 -257q-40 -235 -203 -377t-396 -142q-94 0 -178 30l-47 -71h-133l82 124q-94 69 -134 183t-16 253q41 235 203 377t398 142z" />
    <glyph glyph-name="uni0200" unicode="&#x200;" horiz-adv-x="1483" 
d="M1044 1817l173 -281h-141l-206 281h174zM774 1817l173 -281h-141l-206 281h174zM972 1255l-409 -684h576zM494 455l-271 -455h-150l863 1434h116l358 -1434h-131l-111 455h-674z" />
    <glyph glyph-name="uni0201" unicode="&#x201;" 
d="M844 1434l173 -281h-141l-206 281h174zM574 1434l173 -281h-141l-206 281h174zM618 84q164 0 288 117q122 117 154 296t-56 298q-86 119 -250 119t-286 -117t-154 -296t54 -298t250 -119zM595 -20q-206 0 -322 146q-117 146 -83 375t192 373t384 144q137 0 225 -72
t116 -178l41 230h119l-176 -998h-119l36 205q-61 -101 -165 -163t-248 -62z" />
    <glyph glyph-name="uni0202" unicode="&#x202;" horiz-adv-x="1483" 
d="M972 1255l-409 -684h576zM494 455l-271 -455h-150l863 1434h116l358 -1434h-131l-111 455h-674zM1026 1758q66 0 114 -16q140 -46 173 -206h-96q-41 131 -197 131t-241 -131h-104q78 152 223 201q62 21 128 21z" />
    <glyph glyph-name="uni0203" unicode="&#x203;" 
d="M618 84q164 0 288 117q122 117 154 296t-56 298q-86 119 -250 119t-286 -117t-154 -296t54 -298t250 -119zM595 -20q-206 0 -322 146q-117 146 -83 375t192 373t384 144q137 0 225 -72t116 -178l41 230h119l-176 -998h-119l36 205q-61 -101 -165 -163t-248 -62zM858 1434
q66 0 114 -16q140 -46 173 -206h-96q-41 131 -197 131t-241 -131h-104q78 152 223 201q62 21 128 21z" />
    <glyph glyph-name="uni0204" unicode="&#x204;" horiz-adv-x="1246" 
d="M934 1817l173 -281h-141l-206 281h174zM664 1817l173 -281h-141l-206 281h174zM428 791h756l-20 -116h-756l-99 -559h824l-20 -116h-950l252 1434h930l-20 -116h-804z" />
    <glyph glyph-name="uni0205" unicode="&#x205;" horiz-adv-x="1152" 
d="M814 1434l173 -281h-141l-206 281h174zM544 1434l173 -281h-141l-206 281h174zM737 914q-153 0 -265 -108t-141 -255h684q27 139 -38 252q-29 51 -91 81t-149 30zM754 1018q216 0 318 -148t52 -423h-812q-27 -137 42 -252q30 -51 92 -81t144 -30q198 0 364 96l53 -90
q-161 -110 -427 -110q-220 0 -320 143t-68 373q34 230 190 376t372 146z" />
    <glyph glyph-name="uni0206" unicode="&#x206;" horiz-adv-x="1246" 
d="M428 791h756l-20 -116h-756l-99 -559h824l-20 -116h-950l252 1434h930l-20 -116h-804zM938 1758q66 0 114 -16q140 -46 173 -206h-96q-41 131 -197 131t-241 -131h-104q78 152 223 201q62 21 128 21z" />
    <glyph glyph-name="uni0207" unicode="&#x207;" horiz-adv-x="1152" 
d="M737 914q-153 0 -265 -108t-141 -255h684q27 139 -38 252q-29 51 -91 81t-149 30zM754 1018q216 0 318 -148t52 -423h-812q-27 -137 42 -252q30 -51 92 -81t144 -30q198 0 364 96l53 -90q-161 -110 -427 -110q-220 0 -320 143t-68 373q34 230 190 376t372 146zM835 1434
q65 0 113 -16q140 -46 174 -206h-96q-40 131 -196 131t-242 -131h-104q78 152 223 201q62 21 128 21z" />
    <glyph glyph-name="uni0208" unicode="&#x208;" horiz-adv-x="437" 
d="M524 1817l173 -281h-141l-206 281h174zM254 1817l173 -281h-141l-206 281h174zM160 0l252 1434h126l-252 -1434h-126z" />
    <glyph glyph-name="uni0209" unicode="&#x209;" horiz-adv-x="437" 
d="M444 1434l173 -281h-141l-206 281h174zM174 1434l173 -281h-141l-206 281h174zM159 0l175 998h120l-175 -998h-120z" />
    <glyph glyph-name="uni020A" unicode="&#x20a;" horiz-adv-x="450" 
d="M163 0l252 1434h126l-252 -1434h-126zM523 1758q65 0 113 -16q140 -46 174 -206h-96q-40 131 -196 131t-242 -131h-104q78 152 223 201q62 21 128 21z" />
    <glyph glyph-name="uni020B" unicode="&#x20b;" horiz-adv-x="531" 
d="M206 0l175 998h120l-175 -998h-120zM494 1434q66 0 114 -16q140 -46 173 -206h-96q-41 131 -197 131t-241 -131h-104q78 152 223 201q62 21 128 21z" />
    <glyph glyph-name="uni020C" unicode="&#x20c;" horiz-adv-x="1662" 
d="M1134 1817l173 -281h-141l-206 281h174zM864 1817l173 -281h-141l-206 281h174zM362 554q0 -78 16 -148q31 -139 146 -224q115 -86 323 -86q140 0 261 50t207 135q178 178 222 436q31 154 0 301t-146 234q-116 86 -343 86q-122 0 -242 -50t-207 -135q-178 -178 -222 -436
q-15 -86 -15 -163zM856 -20q-140 0 -234 26t-161 74q-146 102 -198 272q-52 171 -20 347q31 177 101 311t177 233q105 99 251 155t286 56t234 -26t162 -74q145 -100 197 -273q53 -173 16 -364q-55 -321 -274 -526q-105 -99 -251 -155t-286 -56z" />
    <glyph glyph-name="uni020D" unicode="&#x20d;" horiz-adv-x="1227" 
d="M834 1434l173 -281h-141l-206 281h174zM564 1434l173 -281h-141l-206 281h174zM633 84q175 0 303 119t158 296q44 249 -110 359q-79 56 -204 56q-176 0 -304 -119t-159 -296q-41 -251 111 -359q80 -56 205 -56zM786 1018q228 0 349 -147t82 -377t-202 -372t-391 -142
t-348 147q-122 147 -82 377t202 372t390 142z" />
    <glyph glyph-name="uni020E" unicode="&#x20e;" horiz-adv-x="1662" 
d="M362 554q0 -78 16 -148q31 -139 146 -224q115 -86 323 -86q140 0 261 50t207 135q178 178 222 436q31 154 0 301t-146 234q-116 86 -343 86q-122 0 -242 -50t-207 -135q-178 -178 -222 -436q-15 -86 -15 -163zM856 -20q-140 0 -234 26t-161 74q-146 102 -198 272
q-52 171 -20 347q31 177 101 311t177 233q105 99 251 155t286 56t234 -26t162 -74q145 -100 197 -273q53 -173 16 -364q-55 -321 -274 -526q-105 -99 -251 -155t-286 -56zM1145 1758q65 0 113 -16q140 -46 174 -206h-96q-40 131 -196 131t-242 -131h-104q78 152 223 201
q62 21 128 21z" />
    <glyph glyph-name="uni020F" unicode="&#x20f;" horiz-adv-x="1227" 
d="M633 84q175 0 303 119t158 296q44 249 -110 359q-79 56 -204 56q-176 0 -304 -119t-159 -296q-41 -251 111 -359q80 -56 205 -56zM786 1018q228 0 349 -147t82 -377t-202 -372t-391 -142t-348 147q-122 147 -82 377t202 372t390 142zM875 1434q65 0 113 -16
q140 -46 174 -206h-96q-40 131 -196 131t-242 -131h-104q78 152 223 201q62 21 128 21z" />
    <glyph glyph-name="uni0210" unicode="&#x210;" horiz-adv-x="1341" 
d="M894 1817l173 -281h-141l-206 281h174zM624 1817l173 -281h-141l-206 281h174zM1020 1318h-499l-103 -584h499q129 0 217 83t110 210t-33 209q-56 82 -191 82zM1040 1434q178 0 268 -115t65 -285t-136 -278q-111 -110 -280 -133l253 -623h-133l-249 618h-431l-108 -618
h-126l252 1434h625z" />
    <glyph glyph-name="uni0211" unicode="&#x211;" horiz-adv-x="835" 
d="M674 1434l173 -281h-141l-206 281h174zM404 1434l173 -281h-141l-206 281h174zM739 914q-157 0 -253 -96t-125 -262l-98 -556h-120l175 998h120l-32 -187q57 95 150 151q92 56 204 56t198 -46l-77 -93q-62 35 -142 35z" />
    <glyph glyph-name="uni0212" unicode="&#x212;" horiz-adv-x="1341" 
d="M1020 1318h-499l-103 -584h499q129 0 217 83t110 210t-33 209q-56 82 -191 82zM1040 1434q178 0 268 -115t65 -285t-136 -278q-111 -110 -280 -133l253 -623h-133l-249 618h-431l-108 -618h-126l252 1434h625zM906 1758q66 0 114 -16q140 -46 173 -206h-96
q-41 131 -197 131t-241 -131h-104q78 152 223 201q62 21 128 21z" />
    <glyph glyph-name="uni0213" unicode="&#x213;" horiz-adv-x="874" 
d="M739 914q-157 0 -253 -96t-125 -262l-98 -556h-120l175 998h120l-32 -187q57 95 150 151q92 56 204 56t198 -46l-77 -93q-62 35 -142 35zM710 1434q66 0 114 -16q140 -46 173 -206h-96q-41 131 -197 131t-241 -131h-104q78 152 223 201q62 21 128 21z" />
    <glyph glyph-name="uni0214" unicode="&#x214;" horiz-adv-x="1433" 
d="M1004 1817l173 -281h-141l-206 281h174zM734 1817l173 -281h-141l-206 281h174zM740 96q210 0 339 132q128 132 169 366l148 840h126l-148 -840q-53 -300 -220 -457t-418 -157t-382 164q-130 164 -81 450l148 840h126l-148 -840q-41 -230 45 -364t296 -134z" />
    <glyph glyph-name="uni0215" unicode="&#x215;" horiz-adv-x="1150" 
d="M804 1434l173 -281h-141l-206 281h174zM534 1434l173 -281h-141l-206 281h174zM577 -20q-206 0 -299 122t-55 340l98 556h120l-98 -556q-29 -168 31 -263t221 -95t255 96t123 262l98 556h120l-176 -998h-120l33 187q-49 -93 -145 -150t-206 -57z" />
    <glyph glyph-name="uni0216" unicode="&#x216;" horiz-adv-x="1433" 
d="M740 96q210 0 339 132q128 132 169 366l148 840h126l-148 -840q-53 -300 -220 -457t-418 -157t-382 164q-130 164 -81 450l148 840h126l-148 -840q-41 -230 45 -364t296 -134zM1011 1758q65 0 113 -16q140 -46 174 -206h-96q-40 131 -196 131t-242 -131h-104
q78 152 223 201q62 21 128 21z" />
    <glyph glyph-name="uni0217" unicode="&#x217;" horiz-adv-x="1150" 
d="M577 -20q-206 0 -299 122t-55 340l98 556h120l-98 -556q-29 -168 31 -263t221 -95t255 96t123 262l98 556h120l-176 -998h-120l33 187q-49 -93 -145 -150t-206 -57zM818 1434q66 0 114 -16q140 -46 173 -206h-96q-41 131 -197 131t-241 -131h-104q78 152 223 201
q62 21 128 21z" />
    <glyph glyph-name="Scommaaccent" unicode="&#x218;" horiz-adv-x="1243" 
d="M354 -532l231 416h150l-262 -416h-119zM868 1338q-100 0 -182 -24t-144 -82t-80 -156t54 -164t309 -112q236 -46 334 -146t70 -285q-21 -129 -103 -219q-156 -170 -461 -170q-351 0 -537 160l84 98q180 -142 473 -142q163 0 277 70t137 203q24 133 -42 200
q-65 67 -298 114q-369 77 -419 269q-16 60 -6 136q22 172 166 269t386 97q171 0 282 -41q112 -41 152 -69l18 -13l-84 -99q-74 50 -180 78t-206 28z" />
    <glyph glyph-name="scommaaccent" unicode="&#x219;" horiz-adv-x="940" 
d="M176 -532l231 416h150l-262 -416h-119zM634 914q-253 0 -282 -160q-13 -75 43 -116q56 -40 228 -74t250 -103t59 -204t-136 -206t-311 -71q-249 0 -385 116l63 89q143 -101 340 -101q279 0 309 174q16 86 -42 130t-234 79q-176 33 -248 105t-55 188t119 187t300 71
q129 0 214 -30t120 -60l-63 -89q-116 75 -289 75z" />
    <glyph glyph-name="uni021A" unicode="&#x21a;" horiz-adv-x="1327" 
d="M323 -532l231 416h150l-262 -416h-119zM330 1434h1146l-20 -116h-510l-232 -1318h-126l232 1318h-510z" />
    <glyph glyph-name="uni021B" unicode="&#x21b;" horiz-adv-x="833" 
d="M214 -532l231 416h150l-262 -416h-119zM609 84q49 0 108 19l24 -99q-59 -24 -165 -24t-168 50t-74 142q-11 92 10 220l88 502h-211l18 104h211l53 299h120l-53 -299h309l-18 -104h-309l-79 -451q-35 -200 -15 -265t71 -83q31 -11 80 -11z" />
    <glyph glyph-name="uni021C" unicode="&#x21c;" horiz-adv-x="1115" 
d="M843 1337q-108 -1 -200 -57t-136 -155l-120 35q63 140 189 217t286 77q161 0 250 -89t73 -236t-116 -236q-101 -89 -212 -133q113 -18 175 -100t44 -243q-19 -162 -139 -277q-119 -116 -272 -171q-226 -81 -461 -89h-28l1 120q357 8 569 136q76 46 132 122t71 166
q31 175 -85 227q-116 53 -299 27l6 116q161 23 297 86q78 36 128 97q51 61 61 140q27 220 -214 220z" />
    <glyph glyph-name="uni021D" unicode="&#x21d;" horiz-adv-x="932" 
d="M664 914q-161 0 -277 -163l-94 62q77 107 169 156t220 49t199 -70q73 -70 61 -181t-96 -199t-179 -118q97 -21 149 -92q52 -70 40 -166t-46 -160q-36 -64 -84 -109q-48 -44 -112 -78q-202 -108 -491 -108l4 104q555 25 608 327q23 124 -59 178t-256 33l11 104
q140 4 254 79t135 191q12 69 -28 115t-128 46z" />
    <glyph glyph-name="uni021E" unicode="&#x21e;" horiz-adv-x="1405" 
d="M1302 1847l-306 -311h-48l-198 311h97l137 -185l201 185h117zM1255 792l113 642h126l-252 -1434h-126l119 676h-827l-119 -676h-126l252 1434h126l-113 -642h827z" />
    <glyph glyph-name="uni021F" unicode="&#x21f;" horiz-adv-x="1187" 
d="M1158 1847l-306 -311h-48l-198 311h97l137 -185l201 185h117zM757 1018q206 0 299 -122t55 -340l-98 -556h-120l98 556q29 168 -31 263t-221 95t-255 -96t-123 -262l-98 -556h-120l267 1516h120l-124 -705q49 93 145 150t206 57z" />
    <glyph glyph-name="uni0220" unicode="&#x220;" horiz-adv-x="1158" 
d="M815 1350q-161 0 -255 -96t-123 -262l-174 -992h-120l252 1434h120l-33 -187q49 93 145 150t206 57q206 0 299 -122t55 -340l-268 -1524h-120l268 1524q29 168 -31 263t-221 95z" />
    <glyph glyph-name="uni0221" unicode="&#x221;" horiz-adv-x="1265" 
d="M1189 -168q47 0 81 22t39 53q13 67 -69 67t-145 -77q-1 -25 23 -45t71 -20zM618 84q164 0 288 117q122 117 154 296t-56 298q-86 119 -250 119t-286 -117t-154 -296t54 -298t250 -119zM1254 88q92 0 135 -48t35 -128t-74 -137q-66 -58 -181 -58q-56 0 -99 23t-61 56
q-34 -38 -65 -92l-11 -18l-100 60q57 102 132 179q0 44 14 117l29 163q-61 -101 -165 -163t-248 -62q-206 0 -322 146q-117 146 -83 375t192 373t384 144q137 0 225 -72t116 -178l132 748h119l-261 -1483q65 55 157 55z" />
    <glyph glyph-name="uni0222" unicode="&#x222;" horiz-adv-x="1130" 
d="M582 96q150 0 254 90t130 237t-49 238t-225 91t-254 -90t-130 -237t49 -238t225 -91zM566 -20q-206 0 -308 121q-104 121 -76 323q18 126 102 234t196 166q-84 64 -110 152t-5 213q33 183 166 316l101 -68q-116 -111 -142 -255t28 -229t195 -85q140 0 227 86t113 232
t-49 253l115 66q92 -138 60 -316q-45 -259 -247 -381q90 -56 134 -156t26 -228q-28 -200 -174 -322t-352 -122z" />
    <glyph glyph-name="uni0223" unicode="&#x223;" horiz-adv-x="942" 
d="M482 84q111 0 189 68q77 68 97 180t-32 182q-52 72 -165 72t-190 -72t-97 -182q-20 -112 34 -180q53 -68 164 -68zM472 -20q-166 0 -248 96t-59 259q13 100 76 185t158 131q-133 99 -101 282q26 153 139 260l96 -68q-98 -95 -116 -197t26 -170t149 -68t170 66
q66 66 84 174q18 107 -39 199l114 64q72 -105 45 -260q-37 -210 -203 -299q67 -40 103 -121t23 -178q-22 -163 -137 -259q-114 -96 -280 -96z" />
    <glyph glyph-name="uni0224" unicode="&#x224;" horiz-adv-x="1374" 
d="M1155 -265h19l-20 -110q-120 -12 -190 46t-48 157q10 50 40 86t80 59q49 23 83 27h-976l12 71l1109 1247h-832l20 116h1031l-12 -71l-1109 -1247h879l-20 -116h-2q-39 -5 -89 -25q-102 -41 -116 -129q-9 -65 33 -88q41 -23 108 -23z" />
    <glyph glyph-name="uni0225" unicode="&#x225;" horiz-adv-x="1072" 
d="M892 -265h19l-20 -110q-120 -12 -190 46t-48 157q11 50 41 86t79 59t83 27h-733l10 61l794 833h-611l18 104h799l-10 -60l-794 -834h647l-18 -104h-2q-39 -5 -89 -25q-102 -41 -116 -129q-9 -65 33 -88q41 -23 108 -23z" />
    <glyph glyph-name="uni0226" unicode="&#x226;" horiz-adv-x="1483" 
d="M1040 1728q38 0 59 -26t15 -61q-6 -37 -34 -61t-66 -24t-58 26t-14 61q6 37 34 61q26 24 64 24zM972 1255l-409 -684h576zM494 455l-271 -455h-150l863 1434h116l358 -1434h-131l-111 455h-674z" />
    <glyph glyph-name="uni0227" unicode="&#x227;" 
d="M618 84q164 0 288 117q122 117 154 296t-56 298q-86 119 -250 119t-286 -117t-154 -296t54 -298t250 -119zM595 -20q-206 0 -322 146q-117 146 -83 375t192 373t384 144q137 0 225 -72t116 -178l41 230h119l-176 -998h-119l36 205q-61 -101 -165 -163t-248 -62zM866 1373
q38 1 59 -25t15 -62t-34 -60t-66 -25t-58 25t-14 62t34 60q26 24 64 25z" />
    <glyph glyph-name="uni0228" unicode="&#x228;" horiz-adv-x="1246" 
d="M374 -413l56 83q68 -34 124 -33q103 3 127 80q11 39 -11 59t-83 22q-61 1 -115 -11l113 213h-422l252 1434h930l-20 -116h-804l-93 -527h756l-20 -116h-756l-99 -559h824l-20 -116h-421l-66 -125q81 1 127 -39q45 -40 29 -114t-62 -116t-106 -54q-128 -24 -240 35z" />
    <glyph glyph-name="uni0229" unicode="&#x229;" horiz-adv-x="1152" 
d="M737 914q-153 0 -265 -108t-141 -255h684q27 139 -38 252q-29 51 -91 81t-149 30zM754 1018q216 0 318 -148t52 -423h-812q-27 -137 42 -252q30 -51 92 -81t144 -30q198 0 364 96l53 -90q-143 -96 -373 -108l-56 -107q81 1 127 -39q45 -40 29 -114t-62 -116t-106 -54
q-128 -25 -240 35l56 83q68 -34 124 -33q103 3 127 80q11 39 -11 59t-83 22q-61 1 -115 -11l103 196q-193 17 -279 157t-54 364t188 368q156 146 372 146z" />
    <glyph glyph-name="uni022A" unicode="&#x22a;" horiz-adv-x="1662" 
d="M807 1817l18 104h686l-18 -104h-686zM1304 1728q38 0 58 -26t14 -61q-6 -37 -34 -61t-64 -24q-38 0 -59 26t-15 61q6 37 34 61t66 24zM962 1728q38 0 58 -26t14 -61q-6 -37 -34 -61t-64 -24q-38 0 -59 26t-15 61q6 37 34 61t66 24zM362 554q0 -78 16 -148
q31 -139 146 -224q115 -86 323 -86q140 0 261 50t207 135q178 178 222 436q31 154 0 301t-146 234q-116 86 -343 86q-122 0 -242 -50t-207 -135q-178 -178 -222 -436q-15 -86 -15 -163zM856 -20q-140 0 -234 26t-161 74q-146 102 -198 272q-52 171 -20 347q31 177 101 311
t177 233q105 99 251 155t286 56t234 -26t162 -74q145 -100 197 -273q53 -173 16 -364q-55 -321 -274 -526q-105 -99 -251 -155t-286 -56z" />
    <glyph glyph-name="uni022B" unicode="&#x22b;" horiz-adv-x="1236" 
d="M532 1462l18 104h686l-18 -104h-686zM1028 1373q38 1 59 -25t15 -62t-34 -60t-66 -25t-58 25t-14 62t34 60q26 24 64 25zM686 1373q38 1 59 -25t15 -62t-34 -60t-66 -25t-58 25t-14 62t34 60q26 24 64 25zM633 84q175 0 303 119t158 296q44 249 -110 359q-79 56 -204 56
q-176 0 -304 -119t-159 -296q-41 -251 111 -359q80 -56 205 -56zM786 1018q228 0 349 -147t82 -377t-202 -372t-391 -142t-348 147q-122 147 -82 377t202 372t390 142z" />
    <glyph glyph-name="uni022C" unicode="&#x22c;" horiz-adv-x="1662" 
d="M807 1817l18 104h686l-18 -104h-686zM1000 1649q-18 -1 -34 -21t-22 -41l-5 -21h-116q15 121 111 172q40 21 81 21q42 0 77 -18t60 -50q25 -31 40 -49t38 -18t39 21t21 41l6 21h116q-14 -121 -110 -172q-40 -21 -82 -21t-72 14t-44 30q-14 15 -30 36t-23 30q-8 9 -21 17
t-30 8zM362 554q0 -78 16 -148q31 -139 146 -224q115 -86 323 -86q140 0 261 50t207 135q178 178 222 436q31 154 0 301t-146 234q-116 86 -343 86q-122 0 -242 -50t-207 -135q-178 -178 -222 -436q-15 -86 -15 -163zM856 -20q-140 0 -234 26t-161 74q-146 102 -198 272
q-52 171 -20 347q31 177 101 311t177 233q105 99 251 155t286 56t234 -26t162 -74q145 -100 197 -273q53 -173 16 -364q-55 -321 -274 -526q-105 -99 -251 -155t-286 -56z" />
    <glyph glyph-name="uni022D" unicode="&#x22d;" horiz-adv-x="1236" 
d="M532 1462l18 104h686l-18 -104h-686zM724 1294q-18 0 -34 -21t-22 -41l-5 -21h-116q15 121 111 172q40 21 81 21q42 0 77 -18t60 -50t40 -50t38 -17t39 21t21 41l6 21h116q-14 -121 -110 -172q-40 -21 -82 -21q-42 1 -72 15t-44 29t-30 35t-23 30q-8 10 -21 18t-30 8z
M633 84q175 0 303 119t158 296q44 249 -110 359q-79 56 -204 56q-176 0 -304 -119t-159 -296q-41 -251 111 -359q80 -56 205 -56zM786 1018q228 0 349 -147t82 -377t-202 -372t-391 -142t-348 147q-122 147 -82 377t202 372t390 142z" />
    <glyph glyph-name="uni022E" unicode="&#x22e;" horiz-adv-x="1662" 
d="M1130 1716q38 0 58 -26t14 -61q-6 -37 -34 -61t-64 -24q-38 0 -59 26t-15 61q6 37 34 61t66 24zM362 554q0 -78 16 -148q31 -139 146 -224q115 -86 323 -86q140 0 261 50t207 135q178 178 222 436q31 154 0 301t-146 234q-116 86 -343 86q-122 0 -242 -50t-207 -135
q-178 -178 -222 -436q-15 -86 -15 -163zM856 -20q-140 0 -234 26t-161 74q-146 102 -198 272q-52 171 -20 347q31 177 101 311t177 233q105 99 251 155t286 56t234 -26t162 -74q145 -100 197 -273q53 -173 16 -364q-55 -321 -274 -526q-105 -99 -251 -155t-286 -56z" />
    <glyph glyph-name="uni022F" unicode="&#x22f;" horiz-adv-x="1227" 
d="M858 1373q38 1 58 -25t14 -62t-34 -60t-64 -25q-38 -1 -59 25t-15 62t34 60t66 25zM633 84q175 0 303 119t158 296q44 249 -110 359q-79 56 -204 56q-176 0 -304 -119t-159 -296q-41 -251 111 -359q80 -56 205 -56zM786 1018q228 0 349 -147t82 -377t-202 -372t-391 -142
t-348 147q-122 147 -82 377t202 372t390 142z" />
    <glyph glyph-name="uni0230" unicode="&#x230;" horiz-adv-x="1662" 
d="M807 1817l18 104h686l-18 -104h-686zM1132 1728q38 0 59 -26t15 -61q-6 -37 -34 -61t-66 -24t-58 26t-14 61q6 37 34 61q26 24 64 24zM362 554q0 -78 16 -148q31 -139 146 -224q115 -86 323 -86q140 0 261 50t207 135q178 178 222 436q31 154 0 301t-146 234
q-116 86 -343 86q-122 0 -242 -50t-207 -135q-178 -178 -222 -436q-15 -86 -15 -163zM856 -20q-140 0 -234 26t-161 74q-146 102 -198 272q-52 171 -20 347q31 177 101 311t177 233q105 99 251 155t286 56t234 -26t162 -74q145 -100 197 -273q53 -173 16 -364
q-55 -321 -274 -526q-105 -99 -251 -155t-286 -56z" />
    <glyph glyph-name="uni0231" unicode="&#x231;" horiz-adv-x="1216" 
d="M512 1462l18 104h686l-18 -104h-686zM838 1373q38 1 58 -25t14 -62t-34 -60t-64 -25q-38 -1 -59 25t-15 62t34 60t66 25zM613 84q175 0 303 119t158 296q44 249 -110 359q-79 56 -204 56q-176 0 -304 -119t-159 -296q-41 -251 111 -359q80 -56 205 -56zM766 1018
q228 0 349 -147t82 -377t-202 -372t-391 -142t-348 147q-122 147 -82 377t202 372t390 142z" />
    <glyph glyph-name="uni0232" unicode="&#x232;" horiz-adv-x="1388" 
d="M621 1536l18 104h686l-18 -104h-686zM469 1434l343 -703l593 703h162l-705 -836l-105 -598h-126l105 598l-411 836h144z" />
    <glyph glyph-name="uni0233" unicode="&#x233;" horiz-adv-x="1079" 
d="M437 1330l18 104h686l-18 -104h-686zM128 -429q36 -1 56 7t37 24q43 37 64 66t43 65l157 267l-243 998h129l199 -856l499 856h141l-765 -1287q-83 -141 -153 -192t-162 -51q-93 0 -151 36l62 92q51 -25 87 -25z" />
    <glyph glyph-name="uni0234" unicode="&#x234;" horiz-adv-x="752" 
d="M522 69q46 -1 80 21t40 54q13 67 -69 67t-145 -77q-2 -25 22 -45t72 -20zM588 325q92 0 134 -48q43 -47 35 -127q-7 -80 -73 -138t-182 -58q-56 0 -99 23t-61 56q-30 -34 -65 -91l-11 -19l-100 60q57 102 132 179q0 49 13 117l219 1237h120l-220 -1246q66 55 158 55z" />
    <glyph glyph-name="uni0235" unicode="&#x235;" horiz-adv-x="1167" 
d="M1111 -168q47 0 81 22t39 53q13 67 -69 67t-145 -77q-1 -25 23 -45t71 -20zM1176 88q92 0 135 -48t35 -128t-74 -137q-66 -58 -181 -58q-56 0 -99 23t-61 56q-34 -38 -65 -92l-11 -18l-100 60q57 102 132 179q0 49 13 117l91 514q29 168 -31 263t-221 95t-255 -96
t-123 -262l-98 -556h-120l176 998h120l-33 -187q49 93 145 150t206 57q206 0 299 -122t55 -340l-92 -523q65 55 157 55z" />
    <glyph glyph-name="uni0236" unicode="&#x236;" horiz-adv-x="819" 
d="M520 69q46 -1 80 21t40 54q13 67 -69 67t-145 -77q-2 -25 22 -45t72 -20zM586 325q92 0 134 -48q43 -47 35 -127q-7 -80 -73 -138t-182 -58q-56 0 -99 23t-61 56q-30 -34 -65 -91l-11 -19l-100 60q57 102 132 179q0 49 13 117l109 615h-211l18 104h211l53 299h120
l-53 -299h309l-18 -104h-309l-110 -624q66 55 158 55z" />
    <glyph glyph-name="uni0237" unicode="&#x237;" horiz-adv-x="430" 
d="M-89 -428q49 0 79 12t52 27q22 16 40 47t29 56t22 68q11 42 16 70t14 77l188 1069h120l-188 -1069q-34 -190 -72 -269q-39 -80 -78 -116q-84 -76 -227 -76q-91 0 -146 30l51 94q51 -20 100 -20z" />
    <glyph glyph-name="uni0238" unicode="&#x238;" horiz-adv-x="2054" 
d="M618 84q164 0 288 117q122 117 154 296t-56 298q-86 119 -250 119t-286 -117t-154 -296t54 -298t250 -119zM1620 914q-164 0 -288 -117q-122 -117 -154 -296t56 -298q86 -119 250 -119t286 117t154 296t-54 298t-250 119zM595 -20q-206 0 -322 146q-117 146 -83 375
t192 373t384 144q137 0 225 -72t116 -178l132 748h119l-128 -723q61 101 165 163t248 62q206 0 322 -146q117 -146 83 -375t-192 -373t-384 -144q-137 0 -225 72t-116 178l-40 -230h-119l36 205q-61 -101 -165 -163t-248 -62z" />
    <glyph glyph-name="uni0239" unicode="&#x239;" horiz-adv-x="2054" 
d="M618 84q164 0 288 117q122 117 154 296t-56 298q-86 119 -250 119t-286 -117t-154 -296t54 -298t250 -119zM1620 914q-164 0 -288 -117q-122 -117 -154 -296t56 -298q86 -119 250 -119t286 117t154 296t-54 298t-250 119zM1643 1018q206 0 322 -146q117 -146 83 -375
t-192 -373t-384 -144q-137 0 -225 72t-116 178l-134 -762h-119l130 737q-61 -101 -165 -163t-248 -62q-206 0 -322 146q-117 146 -83 375t192 373t384 144q137 0 225 -72t116 -178l40 230h119l-36 -205q61 101 165 163t248 62z" />
    <glyph glyph-name="uni023A" unicode="&#x23a;" horiz-adv-x="1605" 
d="M876 571h263l-78 319zM972 1255l-409 -684h175l282 487zM494 455l-271 -455h-150l863 1434h116l56 -224l286 497h138l-383 -663l261 -1044h-131l-111 455h-359l-420 -729h-138l420 729h-177z" />
    <glyph glyph-name="uni023B" unicode="&#x23b;" horiz-adv-x="1412" 
d="M1066 1338q-140 0 -260 -50t-207 -135q-178 -178 -222 -436q-67 -376 140 -530l660 1144q-59 7 -111 7zM847 96q231 0 404 104l56 -104q-168 -116 -480 -116q-144 0 -265 46l-173 -300h-138l206 356q-137 95 -191 262t-24 349q32 183 102 317t177 233q105 99 251 155
t315 56q75 0 154 -12l153 265h138l-171 -296q89 -34 149 -87l-77 -90q-58 42 -134 69l-676 -1172q94 -35 224 -35z" />
    <glyph glyph-name="uni023C" unicode="&#x23c;" horiz-adv-x="1062" 
d="M781 914q-175 0 -303 -119t-160 -296q-40 -231 89 -343l433 755q-30 3 -59 3zM634 84q172 0 305 98l63 -90q-145 -112 -382 -112q-94 0 -176 30l-112 -195h-121l140 243q-97 68 -139 184t-18 257q42 235 204 377t397 142q57 0 102 -8l114 198h120l-130 -226
q85 -34 138 -97l-85 -71q-46 46 -108 71l-448 -781q60 -20 136 -20z" />
    <glyph glyph-name="uni023D" unicode="&#x23d;" horiz-adv-x="1278" 
d="M578 679l-99 -563h738l-20 -116h-864l119 679h-307l21 116h307l112 639h126l-113 -639h308l-21 -116h-307z" />
    <glyph glyph-name="uni023E" unicode="&#x23e;" horiz-adv-x="1343" 
d="M992 1318l-55 -308l178 308h-123zM1320 1434h202l-20 -116h-249l-376 -653l-117 -665h-126l62 351l-361 -625h-138l559 970l110 622h-510l20 116h806l158 273h138z" />
    <glyph glyph-name="uni023F" unicode="&#x23f;" horiz-adv-x="932" 
d="M446 -232q186 0 321 135l91 -79q-62 -71 -170 -122t-263 -51q-245 0 -329 186q-47 103 -5 259l64 89q146 -101 340 -101q279 0 309 174q16 86 -42 130t-234 79q-176 33 -248 105t-55 188t119 187t300 71q129 0 214 -30t120 -60l-63 -89q-116 75 -289 75q-253 0 -282 -160
q-13 -75 43 -116q56 -40 228 -74t250 -103t59 -204t-136 -206q-118 -71 -296 -71t-298 55q-22 -135 47 -201t205 -66z" />
    <glyph glyph-name="uni0240" unicode="&#x240;" horiz-adv-x="1074" 
d="M512 -349q-122 -1 -188 21q-118 38 -163 130q-45 91 -36 198l10 61l794 833h-611l18 104h799l-10 -60l-794 -834h647l-18 -104h-718q-20 -232 257 -232q186 0 321 135l91 -79q-63 -71 -171 -122t-228 -51z" />
    <glyph glyph-name="uni0241" unicode="&#x241;" horiz-adv-x="1126" 
d="M793 1454q81 0 149 -16t114 -42q100 -59 134 -151q34 -93 16 -173q-22 -144 -141 -260t-372 -150l-117 -662h-126l133 753q209 7 339 86t158 233q22 122 -54 194t-243 72q-224 0 -378 -193l-94 66q116 167 324 223q76 20 158 20z" />
    <glyph glyph-name="uni0242" unicode="&#x242;" horiz-adv-x="1126" 
d="M723 1018q81 0 149 -16t114 -42q100 -59 134 -151q34 -93 16 -173q-22 -144 -141 -260t-372 -150l-134 -758h-126l150 849q209 7 339 86t158 233q22 122 -54 194t-243 72q-224 0 -378 -193l-94 66q116 167 324 223q76 20 158 20z" />
    <glyph glyph-name="uni0243" unicode="&#x243;" horiz-adv-x="1453" 
d="M998 808q130 0 224 64t116 192t-44 191t-206 63h-483l-90 -510h483zM876 116q154 0 257 75t127 215t-46 213q-71 73 -236 73h-483l-40 -227h215l-20 -116h-216l-41 -233h483zM856 0h-609l61 349h-216l20 116h217l170 969h609q198 0 292 -105t65 -266q-20 -113 -96 -199
t-172 -119q90 -29 152 -114q62 -86 39 -227q-29 -180 -164 -292t-368 -112z" />
    <glyph glyph-name="uni0244" unicode="&#x244;" horiz-adv-x="1645" 
d="M846 96q210 0 339 132q128 132 169 366l21 122h-849l-21 -122q-41 -230 45 -364t296 -134zM842 -20q-251 0 -382 164q-130 164 -81 450l21 122h-189l20 116h190l106 602h126l-106 -602h849l106 602h126l-106 -602h190l-20 -116h-191l-21 -122q-53 -300 -220 -457
t-418 -157z" />
    <glyph glyph-name="uni0245" unicode="&#x245;" horiz-adv-x="1483" 
d="M1279 0l-307 1255l-749 -1255h-150l863 1434h116l358 -1434h-131z" />
    <glyph glyph-name="uni0246" unicode="&#x246;" horiz-adv-x="1292" 
d="M422 675l-99 -559h31l322 559h-254zM535 1318l-93 -527h301l304 527h-512zM881 791h317l-20 -116h-364l-322 -559h655l-20 -116h-702l-158 -274h-138l158 274h-110l252 1434h685l158 273h138l-158 -273h107l-20 -116h-154z" />
    <glyph glyph-name="uni0247" unicode="&#x247;" horiz-adv-x="1128" 
d="M369 150l171 297h-251q-31 -199 80 -297zM720 551h272q33 219 -94 311zM714 914q-152 0 -264 -108t-142 -255h291l203 353q-43 10 -88 10zM728 1018q68 0 130 -16l119 206h120l-142 -247q103 -64 142 -194t4 -320h-441l-200 -348q46 -15 107 -15q198 0 364 96l53 -90
q-161 -110 -427 -110q-81 0 -152 22l-107 -187h-121l134 234q-91 65 -127 181t-14 269q32 227 188 373t370 146z" />
    <glyph glyph-name="uni0248" unicode="&#x248;" horiz-adv-x="1215" 
d="M527 96q166 0 243 89t106 253l61 350h-270l21 116h270l93 530h126l-93 -530h270l-21 -116h-270l-61 -350q-41 -232 -157 -345t-320 -113t-299 110q-47 55 -63 129l114 38q57 -161 250 -161z" />
    <glyph glyph-name="uni0249" unicode="&#x249;" horiz-adv-x="641" 
d="M576 1373q38 1 58 -25t14 -62t-34 -60t-64 -25q-38 -1 -59 25t-15 62t34 60t66 25zM11 -428q49 0 79 12t52 27q22 16 40 47t29 56t22 68q11 42 16 70t14 77l119 677h-225l19 104h224l51 288h120l-51 -288h226l-19 -104h-225l-119 -677q-34 -190 -72 -269
q-39 -80 -78 -116q-84 -76 -227 -76q-91 0 -146 30l51 94q51 -20 100 -20z" />
    <glyph glyph-name="uni024A" unicode="&#x24a;" horiz-adv-x="1709" 
d="M342 554q0 -78 16 -148q31 -139 146 -224q115 -86 323 -86q140 0 261 50t207 135q178 178 222 436q31 154 0 301t-146 234q-116 86 -343 86q-122 0 -242 -50t-207 -135q-178 -178 -222 -436q-15 -86 -15 -163zM807 -20q-322 0 -485 214q-94 124 -108 326q-6 94 17 224
t93 266q70 134 177 233q105 99 251 155t286 56t234 -26t162 -74q145 -100 197 -273q53 -173 16 -364l-109 -605q-31 -178 -20 -226q10 -48 24 -76q27 -56 98 -55q70 0 132 20l17 -100q-63 -24 -156 -24q-156 1 -206 117t-10 344l28 154q-114 -136 -277 -211t-361 -75z" />
    <glyph glyph-name="uni024B" unicode="&#x24b;" horiz-adv-x="1257" 
d="M618 84q164 0 288 117q122 117 154 296t-56 298q-86 119 -250 119t-286 -117t-154 -296t54 -298t250 -119zM595 -20q-206 0 -322 146q-117 146 -83 375t192 373t384 144q137 0 225 -72t116 -178l40 230h120l-188 -1069q-31 -178 -20 -226q10 -47 24 -75q27 -55 98 -56
q70 0 132 20l17 -100q-63 -24 -156 -24q-156 0 -206 116t-10 345l50 276q-61 -101 -165 -163t-248 -62z" />
    <glyph glyph-name="uni024C" unicode="&#x24c;" horiz-adv-x="1437" 
d="M1116 1318h-499l-103 -584h499q129 0 217 83t110 210t-33 209q-56 82 -191 82zM1136 1434q178 0 268 -115t65 -285t-136 -278q-111 -110 -280 -133l253 -623h-133l-249 618h-431l-108 -618h-126l108 618h-246l21 116h246l123 700h625z" />
    <glyph glyph-name="uni024D" unicode="&#x24d;" horiz-adv-x="931" 
d="M835 914q-157 0 -253 -96t-125 -262l-11 -62h226l-19 -104h-226l-68 -390h-120l68 390h-226l19 104h225l89 504h120l-32 -187q57 95 150 151q92 56 204 56t198 -46l-77 -93q-62 35 -142 35z" />
    <glyph glyph-name="uni024E" unicode="&#x24e;" horiz-adv-x="1398" 
d="M691 998l131 -267l225 267h-356zM325 998l21 116h146l-157 320h144l156 -320h510l270 320h162l-270 -320h148l-21 -116h-225l-337 -400l-105 -598h-126l105 598l-197 400h-224z" />
    <glyph glyph-name="uni024F" unicode="&#x24f;" horiz-adv-x="1079" 
d="M488 492l82 -350l204 350h-286zM128 -429q36 -1 56 7t37 24q43 37 64 66t43 65l157 267l-120 492h-270l19 104h226l-98 402h129l93 -402h370l235 402h141l-239 -402h217l-19 -104h-260l-464 -781q-83 -141 -153 -192t-162 -51q-93 0 -151 36l62 92q51 -25 87 -25z" />
    <glyph glyph-name="uni0250" unicode="&#x250;" horiz-adv-x="1102" 
d="M799 914q-198 0 -306 -118t-130 -235l-19 -111q320 -30 518 64q118 56 139 170t-37 172t-165 58zM562 84q164 0 331 71l38 -96q-174 -79 -400 -79t-291 119q-64 119 -21 322l101 577h120l-35 -202q134 222 408 222q186 0 273 -112q63 -81 41 -214q-52 -307 -537 -339
q-127 -8 -262 5q-26 -150 22 -212t212 -62z" />
    <glyph glyph-name="uni0251" unicode="&#x251;" horiz-adv-x="1226" 
d="M618 84q164 0 288 117q122 117 154 296t-56 298q-86 119 -250 119t-286 -117t-154 -296t54 -298t250 -119zM595 -20q-206 0 -322 146q-117 146 -83 375t192 373t384 144q137 0 225 -72t116 -178l41 230h119l-176 -998h-119l36 205q-61 -101 -165 -163t-248 -62z" />
    <glyph glyph-name="uni0252" unicode="&#x252;" horiz-adv-x="1226" 
d="M792 914q-164 0 -288 -117q-122 -117 -154 -296t56 -298q86 -119 250 -119t286 117t154 296t-54 298t-250 119zM815 1018q206 0 322 -146q117 -146 83 -375t-192 -373t-384 -144q-137 0 -225 72t-116 178l-40 -230h-120l176 998h119l-36 -205q61 101 165 163t248 62z" />
    <glyph glyph-name="uni0253" unicode="&#x253;" horiz-adv-x="1226" 
d="M792 914q-164 0 -288 -117q-122 -117 -154 -296t56 -298q86 -119 250 -119t286 117t154 296t-54 298t-250 119zM708 1536q74 0 148 -30l-51 -94q-53 20 -101 20t-79 -12q-29 -12 -51 -27q-22 -16 -40 -47t-30 -56q-11 -25 -22 -68q-11 -42 -16 -70t-14 -77l-50 -282
q61 101 165 163t248 62q206 0 322 -146q117 -146 83 -375t-192 -373t-384 -144q-137 0 -225 72t-116 178l-40 -230h-120l189 1075q34 190 72 269q39 80 78 116t96 56q56 20 130 20z" />
    <glyph glyph-name="uni0254" unicode="&#x254;" horiz-adv-x="1060" 
d="M611 914q-172 0 -305 -98l-63 90q145 112 375 112t350 -147q122 -147 82 -377t-202 -372t-396 -142t-346 133l85 71q97 -100 273 -100t304 119t159 296q41 251 -111 359q-80 56 -205 56z" />
    <glyph glyph-name="uni0255" unicode="&#x255;" horiz-adv-x="1100" 
d="M822 331q-188 0 -350 -195q78 -52 199 -52t199 36t91 107q17 93 -95 103q-18 2 -44 1zM833 439q119 -1 187 -51t57 -161q-19 -187 -271 -235q-66 -12 -142 -12q-156 0 -260 63q-71 -113 -105 -203l-12 -31l-103 35q44 130 137 268q-131 150 -89 386t204 378t396 142
t345 -133l-85 -71q-97 100 -273 100q-175 0 -303 -119t-160 -295t42 -288q195 227 435 227z" />
    <glyph glyph-name="uni0256" unicode="&#x256;" horiz-adv-x="1236" 
d="M618 84q164 0 288 117q122 117 154 296t-56 298q-86 119 -250 119t-286 -117t-154 -296t54 -298t250 -119zM1202 -428q50 0 111 20l17 -100q-63 -24 -156 -24q-156 0 -206 116t-10 345l50 276q-61 -101 -165 -163t-248 -62q-206 0 -322 146q-117 146 -83 375t192 373
t384 144q137 0 225 -72t116 -178l132 748h119l-279 -1587q-31 -178 -20 -226q10 -47 24 -75q13 -28 41 -42t78 -14z" />
    <glyph glyph-name="uni0257" unicode="&#x257;" horiz-adv-x="1295" 
d="M618 84q164 0 288 117q122 117 154 296t-56 298q-86 119 -250 119t-286 -117t-154 -296t54 -298t250 -119zM1536 1536q74 0 148 -30l-51 -94q-53 20 -101 20t-79 -12q-29 -12 -51 -27q-22 -16 -40 -47t-30 -56q-11 -25 -22 -68q-11 -42 -16 -70t-14 -77l-189 -1075h-119
l36 205q-61 -101 -165 -163t-248 -62q-206 0 -322 146q-117 146 -83 375t192 373t384 144q137 0 225 -72t116 -178l53 307q34 190 72 269q39 80 78 116t96 56q56 20 130 20z" />
    <glyph glyph-name="uni0258" unicode="&#x258;" horiz-adv-x="1138" 
d="M728 914q-175 0 -278 -107t-132 -256h692q28 139 -40 252q-30 51 -92 81t-150 30zM581 84q171 0 275 104t135 259h-820q42 275 195 423t372 148q149 0 246 -68q194 -135 144 -451q-38 -239 -184 -379t-373 -140q-275 0 -387 143l86 79q101 -118 311 -118z" />
    <glyph glyph-name="uni0259" unicode="&#x259;" horiz-adv-x="1152" 
d="M599 84q153 0 265 108t141 255h-684q-27 -139 38 -252q29 -51 91 -81t149 -30zM582 -20q-216 0 -318 148t-52 423h812q27 137 -42 252q-30 51 -92 81t-144 30q-198 0 -364 -96l-53 90q161 110 427 110q220 0 320 -143t68 -373q-34 -230 -190 -376t-372 -146z" />
    <glyph glyph-name="uni025A" unicode="&#x25a;" horiz-adv-x="1357" 
d="M594 84q164 0 264 114t124 321l-666 -93q-47 -342 278 -342zM721 914q-99 0 -177 -28t-165 -81l-55 93q83 56 177 88t257 32t255 -98t105 -263l241 35q-39 -57 -50 -81q-50 -124 85 -128l-20 -112q-46 1 -72 11q-70 28 -84 54q-31 63 -10 116l-95 -14q-39 -276 -175 -417
t-356 -141q-222 0 -322 137t-57 411l789 111q-19 275 -271 275z" />
    <glyph glyph-name="uni025B" unicode="&#x25b;" horiz-adv-x="977" 
d="M513 -20q-71 0 -125 10q-118 23 -187 99q-68 76 -45 209q16 93 88 158t165 82q-66 23 -108 82t-27 145q20 121 130 187t276 66t288 -91q32 -24 51 -50l-76 -64q-63 64 -179 90q-48 11 -101 11q-117 0 -187 -44t-82 -109q-21 -122 130 -161q54 -14 194 -18l-18 -104
q-222 -4 -315 -48q-93 -45 -109 -136q-28 -158 141 -199q45 -11 103 -11q122 0 209 32t130 62l61 -84q-69 -70 -262 -102q-74 -12 -145 -12z" />
    <glyph glyph-name="uni025C" unicode="&#x25c;" horiz-adv-x="994" 
d="M715 132q92 48 112 162q14 81 -42 121q-57 40 -132 51q-76 10 -184 12l18 104q139 4 185 14q95 22 143 62q49 39 60 104q11 66 -44 109t-164 43t-195 -34t-128 -67l-63 83q93 78 255 109q67 13 138 13q162 0 252 -71t69 -193q-15 -86 -79 -145t-136 -82q88 -17 136 -82
t32 -153q-31 -173 -162 -242q-130 -70 -314 -70t-303 82q-29 20 -46 44l81 72q60 -60 192 -84q54 -10 141 -10q86 0 178 48z" />
    <glyph glyph-name="uni025D" unicode="&#x25d;" horiz-adv-x="1128" 
d="M715 132q92 48 112 162q14 81 -42 121q-57 40 -132 51q-76 10 -184 12l18 104q139 4 185 14q95 22 143 62q49 39 60 104q11 66 -44 109t-164 43t-195 -34t-128 -67l-63 83q93 78 255 109q67 13 138 13q162 0 252 -71q112 -89 55 -243l180 42q-1 -2 -9 -15t-13 -21
t-13 -25q-8 -15 -12 -27t-6 -28t0 -27q14 -60 129 -60l-20 -112h-13q-67 0 -109 23q-41 23 -57 42q-39 45 -26 122l-120 -31q-52 -42 -112 -60q88 -17 136 -82t32 -153q-31 -173 -162 -242q-130 -70 -314 -70t-303 82q-29 20 -46 44l81 72q60 -60 192 -84q54 -10 141 -10
q86 0 178 48z" />
    <glyph glyph-name="uni025E" unicode="&#x25e;" horiz-adv-x="1053" 
d="M570 84q84 0 144 20t108 70q48 48 57 108q10 60 -4 94q-25 63 -108 85q-83 21 -205 23l18 104q230 3 307 87q33 36 40 76q12 67 -28 115t-184 48t-255 -116t-144 -299q-38 -179 18 -297q26 -56 90 -87q62 -31 146 -31zM749 1018q158 0 239 -72t61 -183q-14 -79 -69 -141
t-133 -88q176 -68 154 -242q-10 -81 -52 -143q-42 -61 -104 -97q-125 -71 -279 -72q-275 0 -356 211q-43 112 -14 308q40 239 187 379t366 140z" />
    <glyph glyph-name="uni025F" unicode="&#x25f;" horiz-adv-x="492" 
d="M-99 -428q49 0 79 12t52 27q22 16 40 47t29 56t22 68q11 42 16 70t14 77l12 71h-187l18 104h188l157 894h120l-157 -894h188l-18 -104h-189l-12 -71q-34 -190 -72 -269q-39 -80 -78 -116q-84 -76 -227 -76q-91 0 -146 30l51 94q51 -20 100 -20z" />
    <glyph glyph-name="uni0260" unicode="&#x260;" horiz-adv-x="1272" 
d="M624 84q164 0 288 117q122 117 154 296t-56 298q-86 119 -250 119t-286 -117t-154 -296t54 -298t250 -119zM519 -532q-269 0 -414 113l66 95q161 -104 359 -104t304 104t144 324l36 205q-61 -101 -165 -163t-248 -62q-206 0 -322 146q-117 146 -83 375t192 373t384 144
q137 0 225 -72t116 -178l54 307q34 190 72 269q39 80 78 116q84 77 228 76q72 0 146 -30l-51 -94q-54 20 -102 20t-78 -12t-52 -27q-22 -16 -40 -47t-29 -56t-22 -68q-11 -42 -16 -70t-14 -77l-189 -1075q-80 -532 -579 -532z" />
    <glyph glyph-name="uni0261" unicode="&#x261;" horiz-adv-x="1232" 
d="M624 84q164 0 288 117q122 117 154 296t-56 298q-86 119 -250 119t-286 -117t-154 -296t54 -298t250 -119zM519 -532q-269 0 -414 113l66 95q161 -104 359 -104t304 104t144 324l36 205q-61 -101 -165 -163t-248 -62q-206 0 -322 146q-117 146 -83 375t192 373t384 144
q137 0 225 -72t116 -178l40 230h120l-175 -998q-80 -532 -579 -532z" />
    <glyph glyph-name="uni0262" unicode="&#x262;" horiz-adv-x="1096" 
d="M589 -20q-139 0 -239 66t-140 186q-42 119 -16 267q41 231 197 375q155 144 383 144t359 -115l-71 -80q-116 92 -294 92q-178 -1 -300 -119t-154 -300t43 -297q75 -116 241 -116t282 72l57 322h-266l18 102h386l-85 -482q-146 -117 -401 -117z" />
    <glyph glyph-name="uni0263" unicode="&#x263;" horiz-adv-x="1126" 
d="M490 -420q30 0 51 34t29 74t3 102q-5 60 -22 89q-35 -35 -63 -89t-39 -96q-10 -40 0 -77q11 -37 41 -37zM471 -532q-67 0 -106 41q-38 41 -38 88q-1 48 5 99q26 143 164 304l-259 998h135l217 -873l523 873h145l-609 -998q66 -171 42 -304q-40 -228 -219 -228z" />
    <glyph glyph-name="uni0264" unicode="&#x264;" horiz-adv-x="1120" 
d="M596 176q-37 -35 -45 -73q-7 -38 22 -38t37 41t-14 70zM558 -40q-56 0 -94 34t-24 111t103 158l-306 735h135l255 -637l479 637h145l-564 -735q49 -81 35 -159t-62 -111q-46 -33 -102 -33z" />
    <glyph glyph-name="uni0265" unicode="&#x265;" horiz-adv-x="1150" 
d="M577 -20q-206 0 -299 122t-55 340l98 556h120l-98 -556q-29 -168 31 -263t221 -95t255 96t123 262l98 556h120l-267 -1530h-120l124 719q-49 -93 -145 -150t-206 -57z" />
    <glyph glyph-name="uni0266" unicode="&#x266;" horiz-adv-x="1151" 
d="M708 1536q74 0 148 -30l-51 -94q-53 20 -101 20t-79 -12q-29 -12 -51 -27q-22 -16 -40 -47t-30 -56q-11 -25 -22 -68q-11 -42 -16 -70t-14 -77l-46 -264q49 93 145 150t206 57q206 0 299 -122t55 -340l-98 -556h-120l98 556q29 168 -31 263t-221 95t-255 -96t-123 -262
l-98 -556h-120l189 1075q34 190 72 269q39 80 78 116t96 56q56 20 130 20z" />
    <glyph glyph-name="uni0267" unicode="&#x267;" horiz-adv-x="1151" 
d="M708 1536q74 0 148 -30l-51 -94q-53 20 -101 20t-79 -12q-29 -12 -51 -27q-22 -16 -40 -47t-30 -56q-11 -25 -22 -68q-11 -42 -16 -70t-14 -77l-46 -264q49 93 145 150t206 57q206 0 299 -122t55 -340l-111 -627q-34 -190 -72 -269q-39 -80 -78 -116q-84 -76 -228 -76
q-72 0 -146 30l51 94q53 -20 101 -20t79 12q29 12 51 27q22 16 40 47t30 56q11 25 22 68q11 42 16 70t14 77l111 627q29 168 -31 263t-221 95t-255 -96t-123 -262l-98 -556h-120l189 1075q34 190 72 269q39 80 78 116t96 56q56 20 130 20z" />
    <glyph glyph-name="uni0268" unicode="&#x268;" horiz-adv-x="610" 
d="M546 1373q38 1 59 -25t15 -62t-34 -60t-66 -25t-58 25t-14 62t34 60q26 24 64 25zM132 542l18 104h210l62 352h120l-62 -352h210l-18 -104h-210l-95 -542h-120l95 542h-210z" />
    <glyph glyph-name="uni0269" unicode="&#x269;" horiz-adv-x="497" 
d="M350 0q-103 0 -129 53t-6 167l137 778h120l-137 -778q-12 -69 -9 -81t8 -23t34 -12h45l-18 -104h-45z" />
    <glyph glyph-name="uni026A" unicode="&#x26a;" horiz-adv-x="397" 
d="M143 0l175 998h120l-175 -998h-120z" />
    <glyph glyph-name="uni026B" unicode="&#x26b;" horiz-adv-x="637" 
d="M582 883q23 1 39 21t21 41l6 21h116q-14 -121 -110 -172q-40 -21 -82 -21t-64 10l-99 -563q-13 -75 -4 -95t37 -21h45l-18 -104h-45q-103 0 -129 53t-6 167l116 659q-24 29 -47 29q-24 0 -40 -21t-22 -41l-5 -21h-116q15 121 111 172q40 21 78 21q39 0 64 -10l90 508h120
l-107 -602q28 -31 51 -31z" />
    <glyph glyph-name="uni026C" unicode="&#x26c;" horiz-adv-x="597" 
d="M403 814h16l15 87q-79 -3 -86 -44q-4 -19 10 -31t45 -12zM449 0q-103 0 -129 53t-6 167l85 480h-16q-80 0 -126 42q-45 42 -37 115q17 150 234 157l89 502h120l-124 -702h146l-20 -114h-146l-85 -480q-13 -75 -4 -95t37 -21h45l-18 -104h-45z" />
    <glyph glyph-name="uni026D" unicode="&#x26d;" horiz-adv-x="443" 
d="M388 -428q50 0 111 20l17 -100q-63 -24 -156 -24q-156 0 -206 116t-10 345l281 1587h120l-280 -1587q-31 -178 -20 -226q10 -47 24 -75q13 -28 41 -42t78 -14z" />
    <glyph glyph-name="uni026E" unicode="&#x26e;" horiz-adv-x="1279" 
d="M578 -428q298 0 414 232q32 64 48 150q16 88 -9 158t-67 105t-117 55t-129 24t-130 3l16 90l475 505h-609l-119 -674q-13 -75 -4 -95t37 -21h45l-18 -104h-45q-103 0 -129 53t-6 167l229 1296h120l-92 -518h791l-10 -60l-512 -544q47 -4 89 -12t113 -38t117 -74t73 -130
q28 -86 12 -191q-17 -105 -57 -187q-75 -150 -212 -222q-138 -72 -298 -72q-283 0 -397 185l86 68q119 -149 295 -149z" />
    <glyph glyph-name="uni026F" unicode="&#x26f;" horiz-adv-x="1744" 
d="M1210 -20q-270 0 -319 227q-40 -80 -102 -131q-116 -96 -251 -96q-192 0 -274 116t-40 347l97 555h120l-97 -555q-64 -359 212 -359q142 0 226 97t114 262l97 555h120l-97 -555q-64 -359 212 -359q142 0 226 97t114 262l97 555h120l-175 -998h-120l29 167
q-38 -79 -123 -133t-186 -54z" />
    <glyph glyph-name="uni0270" unicode="&#x270;" horiz-adv-x="1744" 
d="M1210 -20q-270 0 -319 227q-40 -80 -102 -131q-116 -96 -251 -96q-192 0 -274 116t-40 347l97 555h120l-97 -555q-32 -152 17 -256q48 -103 193 -103q144 0 228 97t114 262l97 555h120l-97 -555q-32 -152 17 -256q48 -103 193 -103q144 0 228 97t114 262l97 555h120
l-269 -1530h-120l123 699q-38 -79 -123 -133t-186 -54z" />
    <glyph glyph-name="uni0271" unicode="&#x271;" horiz-adv-x="1744" 
d="M718 1018q270 0 319 -227q40 80 102 131q116 96 251 96q192 0 274 -116t40 -347l-191 -1087h-120l191 1087q32 152 -17 256q-48 103 -193 103q-144 0 -228 -97t-114 -262l-97 -555h-120l97 555q32 152 -17 256q-48 103 -193 103q-144 0 -228 -97t-114 -262l-97 -555h-120
l175 998h120l-29 -167q38 79 123 133t186 54z" />
    <glyph glyph-name="uni0272" unicode="&#x272;" horiz-adv-x="1180" 
d="M789 1018q206 0 299 -122t55 -340l-98 -556h-120l98 556q29 168 -31 263t-221 95t-255 -96t-123 -262l-110 -627q-34 -190 -72 -269q-39 -80 -78 -116q-84 -76 -227 -76q-91 0 -146 30l51 94q51 -20 100 -20t79 12t52 27q22 16 40 47t29 56t22 68q11 42 16 70t14 77
l188 1069h120l-33 -187q49 93 145 150t206 57z" />
    <glyph glyph-name="uni0273" unicode="&#x273;" horiz-adv-x="1178" 
d="M757 1018q206 0 299 -122t55 -340l-111 -627q-31 -178 -20 -226q10 -47 24 -75q27 -56 98 -56q70 0 132 20l17 -100q-63 -24 -156 -24q-156 0 -206 116t-10 345l112 627q29 168 -31 263t-221 95t-255 -96t-123 -262l-98 -556h-120l176 998h120l-33 -187q49 93 145 150
t206 57z" />
    <glyph glyph-name="uni0274" unicode="&#x274;" horiz-adv-x="1123" 
d="M143 0l175 998h91l496 -793l139 793h120l-175 -998h-91l-496 793l-139 -793h-120z" />
    <glyph glyph-name="uni0275" unicode="&#x275;" horiz-adv-x="1227" 
d="M784 914q-166 0 -286 -100q-122 -100 -168 -258h771q13 160 -69 259t-248 99zM625 84q170 0 293 104t165 264h-772q-16 -160 64 -264t250 -104zM786 1018q228 0 349 -147t82 -377t-202 -372t-391 -142t-348 147q-122 147 -82 377t202 372t390 142z" />
    <glyph glyph-name="uni0276" unicode="&#x276;" horiz-adv-x="1557" 
d="M780 914q-176 0 -304 -119t-159 -296q-41 -251 111 -359q80 -56 200 -56q121 0 224 57l126 721q-79 52 -198 52zM619 -20q-221 0 -343 147t-82 377t202 372t398 142q112 0 204 -42l4 22h636l-18 -103h-515l-57 -327h489l-19 -103h-489l-63 -362h515l-18 -103h-636l2 14
q-100 -34 -210 -34z" />
    <glyph glyph-name="uni0277" unicode="&#x277;" horiz-adv-x="1412" 
d="M463 84q95 0 156 92t90 206q30 114 46 211h120q-29 -165 -30 -224q-1 -58 1 -101q3 -71 35 -127q32 -57 106 -57q222 0 293 396q21 91 -2 197t-121 171q-98 66 -285 66q-314 0 -458 -192q-75 -101 -100 -242q-71 -396 149 -396zM455 -20q-89 0 -151 40t-90 110
q-61 152 -19 350q44 246 211 392q166 146 466 146t435 -148t94 -375q-41 -228 -142 -372q-101 -143 -280 -143q-104 0 -158 66t-60 206q-94 -272 -306 -272z" />
    <glyph glyph-name="uni0278" unicode="&#x278;" horiz-adv-x="1378" 
d="M1178 312q52 82 70 178q18 98 6 166q-42 245 -339 258l-147 -830q156 8 290 99q70 47 120 129zM384 686q-52 -82 -69 -178q-19 -98 -7 -166q42 -245 340 -258l147 830q-155 -8 -289 -99q-70 -47 -122 -129zM750 -20l-90 -512h-120l90 512q-155 6 -279 82
q-123 76 -159 242q-18 84 1 194t67 199q85 160 237 237q151 77 316 84l88 498h120l-88 -498q125 -4 234 -57q110 -53 170 -165q60 -111 31 -297q-54 -307 -314 -441q-139 -72 -304 -78z" />
    <glyph glyph-name="uni0279" unicode="&#x279;" horiz-adv-x="864" 
d="M309 84q157 0 253 96t125 262l98 556h120l-175 -998h-120l32 187q-57 -95 -150 -151q-92 -56 -204 -56t-198 46l77 93q62 -35 142 -35z" />
    <glyph glyph-name="uni027A" unicode="&#x27a;" horiz-adv-x="872" 
d="M309 84q157 0 253 96t125 262l189 1074h120l-266 -1516h-120l32 187q-57 -95 -150 -151q-92 -56 -204 -56t-198 46l77 93q62 -35 142 -35z" />
    <glyph glyph-name="uni027B" unicode="&#x27b;" horiz-adv-x="895" 
d="M288 -20q-112 0 -198 46l77 93q62 -35 142 -35q157 0 253 96t125 262l98 556h120l-188 -1069q-31 -178 -20 -226q10 -47 24 -75q27 -56 98 -56q70 0 132 20l17 -100q-63 -24 -156 -24q-156 0 -206 116t-10 345l46 258q-57 -95 -150 -151q-92 -56 -204 -56z" />
    <glyph glyph-name="uni027C" unicode="&#x27c;" horiz-adv-x="835" 
d="M739 914q-157 0 -253 -96t-125 -262l-192 -1088h-120l269 1530h120l-32 -187q57 95 150 151q92 56 204 56t198 -46l-77 -93q-62 35 -142 35z" />
    <glyph glyph-name="uni027D" unicode="&#x27d;" horiz-adv-x="829" 
d="M754 1018q112 0 198 -46l-77 -93q-62 35 -142 35q-157 0 -253 -96t-125 -262l-98 -556q-27 -130 -15 -190t86 -59q76 0 156 75l51 -97q-99 -97 -228 -97t-167 83t-3 285l175 998h120l-32 -187q57 95 150 151q92 56 204 56z" />
    <glyph glyph-name="uni027E" unicode="&#x27e;" horiz-adv-x="831" 
d="M750 914q-160 0 -262 -104t-136 -302l-89 -508h-120l89 508q90 510 536 510q113 0 186 -39l-75 -90q-53 25 -129 25z" />
    <glyph glyph-name="uni027F" unicode="&#x27f;" horiz-adv-x="872" 
d="M444 1018q92 0 151 -17q137 -39 195 -151q71 -137 33 -342l-183 -1040h-120l183 1040q36 202 -23 304t-231 102q-77 0 -139 -25l-43 90q85 39 177 39z" />
    <glyph glyph-name="uni0280" unicode="&#x280;" horiz-adv-x="1074" 
d="M813 895h-393l-69 -392h393q69 0 124 57t69 139q13 82 -21 139t-103 57zM831 998q113 0 179 -86t46 -213t-97 -203q-78 -76 -190 -92l209 -404h-131l-203 400h-311l-70 -400h-120l175 998h513z" />
    <glyph glyph-name="uni0281" unicode="&#x281;" horiz-adv-x="1052" 
d="M674 103q69 0 123 57t69 139q14 82 -20 139t-103 57h-393l-69 -392h393zM656 0h-513l175 998h120l-70 -400h303l343 400h139l-351 -404q97 -16 149 -98t33 -210t-114 -208q-95 -78 -214 -78z" />
    <glyph glyph-name="uni0282" unicode="&#x282;" horiz-adv-x="938" 
d="M650 1018q129 0 214 -30t120 -60l-63 -89q-116 75 -289 75q-253 0 -282 -160q-13 -75 43 -116q56 -40 228 -74t250 -103t59 -204t-136 -206t-292 -71t-295 52l-18 -103q-31 -178 -20 -226q10 -47 24 -75q27 -56 98 -56q70 0 132 20l17 -100q-63 -24 -156 -24
q-156 0 -206 116t-12 334q38 216 52 289q205 -123 383 -123q279 0 309 174q16 86 -42 130t-234 79q-176 33 -248 105t-55 188t119 187t300 71z" />
    <glyph glyph-name="uni0283" unicode="&#x283;" horiz-adv-x="590" 
d="M796 1432q-48 0 -78 -12t-52 -27q-22 -16 -40 -47t-29 -56t-22 -68q-11 -42 -16 -70t-14 -77l-202 -1146q-34 -190 -72 -269q-39 -80 -78 -116q-84 -76 -228 -76q-71 0 -145 30l51 94q53 -20 101 -20t78 12t52 27q22 16 40 47t29 56t22 68q11 42 16 70t14 77l202 1146
q34 190 72 269q39 80 78 116q84 76 228 76q72 0 146 -30l-51 -94q-54 20 -102 20z" />
    <glyph glyph-name="uni0284" unicode="&#x284;" horiz-adv-x="758" 
d="M816 1432q-48 0 -78 -12t-52 -27q-22 -16 -40 -47t-29 -56t-22 -68q-11 -42 -16 -70t-14 -77l-171 -971h217l-18 -104h-218l-12 -71q-34 -190 -72 -269q-39 -80 -78 -116q-84 -76 -228 -76q-71 0 -145 30l51 94q53 -20 101 -20t78 12t52 27q22 16 40 47t29 56t22 68
q11 42 16 70t14 77l12 71h-216l18 104h217l171 971q34 190 72 269q39 80 78 116q84 76 228 76q72 0 146 -30l-51 -94q-54 20 -102 20z" />
    <glyph glyph-name="uni0285" unicode="&#x285;" horiz-adv-x="611" 
d="M300 914q-50 0 -111 -20l-17 100q63 24 156 24q156 0 206 -116t10 -345l-111 -628q-31 -178 -20 -226q10 -47 24 -75q27 -55 98 -56q70 0 132 20l17 -100q-63 -24 -156 -24q-156 0 -206 116t-10 345l111 628q31 178 20 226q-10 47 -24 75q-13 28 -41 42t-78 14z" />
    <glyph glyph-name="uni0286" unicode="&#x286;" horiz-adv-x="870" 
d="M462 69q46 -1 80 21t40 54q13 67 -69 67t-145 -77q-2 -25 22 -45t72 -20zM528 325q92 0 134 -48q43 -47 35 -127q-7 -80 -73 -138t-182 -58q-56 0 -99 23t-61 56q-30 -34 -65 -91l-11 -19l-100 60q57 102 132 179q0 49 13 117l141 796q34 190 72 269q39 80 78 116
q84 76 228 76q72 0 146 -30l-51 -94q-53 20 -101 20t-79 -12q-29 -12 -51 -27q-22 -16 -40 -47t-30 -56q-11 -25 -22 -68q-11 -42 -16 -70t-14 -77l-142 -805q66 55 158 55z" />
    <glyph glyph-name="uni0287" unicode="&#x287;" horiz-adv-x="735" 
d="M369 1213q-49 0 -108 -19l-24 99q59 24 165 24t168 -50q62 -49 74 -141q11 -92 -10 -221l-88 -502h211l-18 -104h-211l-53 -299h-120l53 299h-309l18 104h309l79 451q35 200 15 265t-71 83q-31 11 -80 11z" />
    <glyph glyph-name="uni0288" unicode="&#x288;" horiz-adv-x="826" 
d="M511 -428q49 0 108 19l24 -99q-59 -24 -165 -24t-168 50t-74 142q-11 92 10 220l179 1014h-211l18 104h211l53 299h120l-53 -299h309l-18 -104h-309l-170 -963q-35 -200 -15 -265t71 -83q31 -11 80 -11z" />
    <glyph glyph-name="uni0289" unicode="&#x289;" horiz-adv-x="1279" 
d="M660 84q162 0 256 96t122 262l9 50h-630l-9 -50q-30 -168 30 -263t222 -95zM642 -20q-206 0 -299 122t-55 340l9 50h-168l19 104h167l71 402h120l-71 -402h630l71 402h120l-71 -402h170l-19 -104h-169l-87 -492h-120l33 187q-49 -93 -145 -150t-206 -57z" />
    <glyph glyph-name="uni028A" unicode="&#x28a;" horiz-adv-x="1179" 
d="M587 84q165 0 281 112t143 268q28 133 -20 257q-48 125 -182 188l15 89h407l-18 -104h-262q98 -64 148 -179t34 -233q-30 -220 -176 -361t-367 -141q-220 0 -334 139t-79 345q23 134 109 250t207 180h-246l18 104h407l-15 -89q-219 -89 -316 -303q-105 -236 3 -406
q34 -52 96 -84q64 -32 147 -32z" />
    <glyph glyph-name="uni028B" unicode="&#x28b;" horiz-adv-x="1082" 
d="M751 66q-130 -86 -264 -86t-187 43q-54 43 -69 75q-14 32 -25 79t6 145l119 676h120l-119 -676q-19 -105 3 -153q39 -85 161 -85q152 0 292 153t177 377q21 130 -29 200t-189 70l18 114q203 0 277 -114t43 -268q-28 -172 -116 -318t-218 -232z" />
    <glyph glyph-name="uni028C" unicode="&#x28c;" horiz-adv-x="1074" 
d="M778 998l243 -998h-129l-199 856l-499 -856h-141l593 998h132z" />
    <glyph glyph-name="uni028D" unicode="&#x28d;" horiz-adv-x="1580" 
d="M702 998l121 -793l399 793h124l181 -998h-128l-138 824l-415 -824h-106l-125 824l-428 -824h-134l531 998h118z" />
    <glyph glyph-name="uni028E" unicode="&#x28e;" horiz-adv-x="1079" 
d="M1134 1427q-36 1 -54 -7q-20 -8 -38 -24q-43 -37 -64 -66t-43 -65l-157 -267l243 -998h-129l-199 856l-499 -856h-141l765 1287q83 141 153 192t162 51q93 0 151 -36l-62 -92q-52 25 -88 25z" />
    <glyph glyph-name="uni028F" unicode="&#x28f;" horiz-adv-x="1090" 
d="M375 998l262 -483l432 483h152l-534 -580l-73 -418h-120l73 418l-330 580h138z" />
    <glyph glyph-name="uni0290" unicode="&#x290;" horiz-adv-x="1110" 
d="M123 0l10 61l794 833h-611l18 104h799l-10 -60l-794 -834h647l-18 -104q-29 -169 -7 -248q31 -111 239 -111l-20 -114q-222 -1 -298 111t-31 362h-718z" />
    <glyph glyph-name="uni0291" unicode="&#x291;" horiz-adv-x="1131" 
d="M908 104q153 0 167 83q5 27 -11 44t-64 17q-46 0 -100 -40t-100 -104h108zM1032 358q76 0 120 -47q45 -47 38 -127t-75 -132t-225 -52h-165q-54 -75 -100 -161l-16 -30l-113 46q45 84 89 145h-462l10 61l794 833h-611l18 104h799l-10 -60l-794 -834h323q135 189 252 234
q52 20 128 20z" />
    <glyph glyph-name="uni0292" unicode="&#x292;" horiz-adv-x="1122" 
d="M422 -428q300 0 414 232q32 64 46 150q16 88 -8 158t-66 105t-118 55q-74 20 -128 24t-131 3l16 90l475 505h-609l18 104h791l-10 -60l-512 -544q47 -4 89 -12t113 -38q70 -30 116 -74t74 -130t12 -191t-56 -187q-75 -150 -213 -222t-298 -72q-283 0 -397 185l86 68
q120 -149 296 -149z" />
    <glyph glyph-name="uni0293" unicode="&#x293;" horiz-adv-x="1046" 
d="M354 -428q162 0 254 76q-37 117 -96 162q-58 45 -148 45t-135 -39t-57 -102q-12 -62 44 -102q54 -40 138 -40zM362 -532q-160 0 -242 72t-70 179q12 106 97 173q83 67 217 67t212 -61t123 -178q83 92 103 207t-4 185t-66 105t-118 55q-74 20 -128 24t-131 3l16 90
l475 505h-609l18 104h791l-10 -60l-512 -544q47 -4 89 -12t113 -38q70 -30 116 -74t74 -130t11 -196q-40 -223 -195 -350q17 -71 29 -151l-107 -31q-12 80 -21 122q-111 -66 -271 -66z" />
    <glyph glyph-name="uni0294" unicode="&#x294;" horiz-adv-x="1126" 
d="M793 1454q81 0 149 -16t114 -42q100 -59 134 -151q34 -93 16 -173q-22 -144 -141 -260t-372 -150l-117 -662h-126l133 753q209 7 339 86t158 233q22 122 -54 194t-243 72q-224 0 -378 -193l-94 66q116 167 324 223q76 20 158 20z" />
    <glyph glyph-name="uni0295" unicode="&#x295;" horiz-adv-x="1111" 
d="M799 1338q-166 0 -267 -72t-123 -194q-29 -154 75 -233t309 -86l-133 -753h-126l118 668q-320 40 -368 270q-29 140 49 280q132 236 476 236q144 0 232 -52q89 -52 127 -109q38 -56 48 -90l-107 -58q-86 193 -310 193z" />
    <glyph glyph-name="uni0296" unicode="&#x296;" horiz-adv-x="1111" 
d="M564 96q166 0 267 72t123 194q28 154 -76 233t-308 86l133 753h126l-118 -668q319 -40 367 -270q29 -140 -48 -280q-132 -236 -476 -236q-144 0 -232 52q-89 52 -127 109q-38 56 -48 90l107 58q86 -193 310 -193z" />
    <glyph glyph-name="uni0297" unicode="&#x297;" horiz-adv-x="1161" 
d="M614 -318q101 0 177 28t156 90l62 -84q-160 -138 -420 -138q-317 0 -417 296q-54 159 -14 424q71 392 288 580q162 140 403 140t367 -160l-81 -68q-57 64 -129 94t-183 30t-206 -50t-161 -136q-133 -173 -178 -430q-82 -464 166 -583q69 -33 170 -33z" />
    <glyph glyph-name="uni0298" unicode="&#x298;" horiz-adv-x="1226" 
d="M572 499q0 55 39 94t94 39t94 -39t39 -94t-39 -94t-94 -39t-94 39t-39 94zM290 499q0 -171 122 -293t293 -122t293 122t122 293t-122 293t-293 122t-293 -122t-122 -293zM186 499q0 105 41 201t111 166t166 111t201 41t201 -41t166 -111t111 -166t41 -201t-41 -201
t-111 -166t-166 -111t-201 -41t-201 41t-166 111t-111 166t-41 201z" />
    <glyph glyph-name="uni0299" unicode="&#x299;" horiz-adv-x="1110" 
d="M810 578q75 0 126 47q50 47 62 112t-20 111t-112 46h-446l-56 -316h446zM727 104q91 0 148 56t71 130q14 76 -22 130q-35 54 -132 54h-446l-65 -370h446zM884 998q143 0 197 -83t40 -169q-25 -154 -161 -223q124 -75 105 -242q-12 -108 -103 -195q-91 -86 -253 -86h-566
l175 998h566z" />
    <glyph glyph-name="uni029A" unicode="&#x29a;" horiz-adv-x="1021" 
d="M638 914q-110 0 -174 -46t-72 -96q-10 -50 4 -83q24 -58 99 -78q75 -21 183 -23l-18 -104q-260 -2 -341 -92q-36 -40 -46 -99q-18 -105 45 -157t167 -52q198 0 285 113t120 302q42 261 -76 361q-66 54 -176 54zM512 -20q-90 0 -142 11q-110 24 -175 98q-64 75 -42 204
q33 187 242 256q-150 69 -124 215q20 114 120 184t270 70q203 0 295 -144t54 -375q-63 -387 -313 -483q-94 -36 -185 -36z" />
    <glyph glyph-name="uni029B" unicode="&#x29b;" horiz-adv-x="1139" 
d="M589 -20q-139 0 -239 66t-140 186q-42 119 -16 267q41 231 197 375t381 144q160 0 274 -55q32 126 111 188t230 62l-18 -103q-111 0 -159 -42t-73 -164l-75 -81q-116 92 -294 92q-178 -1 -300 -119t-154 -300t43 -297q75 -116 241 -116t282 72l57 322h-266l18 102h386
l-85 -482q-146 -117 -401 -117z" />
    <glyph glyph-name="uni029C" unicode="&#x29c;" horiz-adv-x="1159" 
d="M1006 576l74 422h120l-175 -998h-120l83 472h-642l-83 -472h-120l175 998h120l-74 -422h642z" />
    <glyph glyph-name="uni029D" unicode="&#x29d;" horiz-adv-x="432" 
d="M448 1373q38 1 59 -25t15 -62t-34 -60t-66 -25t-58 25t-14 62t34 60q26 24 64 25zM-54 -417q48 -1 82 21t40 47q-20 33 -54 53t-67 21q-80 0 -91 -60q-6 -37 18 -59t72 -23zM-58 -532q-114 0 -164 59t-36 137t72 126t151 49q44 -1 84 -17t60 -44l215 1220h120l-219 -1246
q-11 -62 -24 -86q39 -67 63 -144l7 -25l-110 -54q-15 59 -35 102q-70 -77 -184 -77z" />
    <glyph glyph-name="uni029E" unicode="&#x29e;" horiz-adv-x="1014" 
d="M843 471l-608 -471h-179l517 401l-367 597h136l323 -526l206 159l64 367h120l-270 -1530h-120z" />
    <glyph glyph-name="uni029F" unicode="&#x29f;" horiz-adv-x="895" 
d="M438 998l-157 -894h579l-18 -104h-699l175 998h120z" />
    <glyph glyph-name="uni02A0" unicode="&#x2a0;" horiz-adv-x="1246" 
d="M618 84q164 0 288 117q122 117 154 296t-56 298q-86 119 -250 119t-286 -117t-154 -296t54 -298t250 -119zM1538 1536q74 0 147 -30l-51 -94q-54 20 -102 20t-78 -12t-52 -27q-22 -16 -40 -47t-29 -56t-22 -68q-11 -42 -16 -70t-14 -77l-190 -1075h-119l36 205
q-61 -101 -165 -163t-248 -62q-206 0 -322 146q-117 146 -83 375t192 373t384 144q137 0 225 -72t116 -178l54 307q34 190 72 269q39 80 78 116t96 56t131 20z" />
    <glyph glyph-name="uni02A1" unicode="&#x2a1;" horiz-adv-x="1091" 
d="M804 1454q98 0 182 -34q82 -34 124 -90q84 -112 60 -268q-17 -104 -68 -174q-52 -70 -104 -110q-120 -92 -319 -120l-39 -220h207l-21 -116h-207l-57 -322h-126l57 322h-207l21 116h206l56 315q424 17 477 321q20 116 -44 190t-242 74t-318 -148q-31 -33 -53 -67l-88 77
q34 57 92 106q57 50 109 78t128 50q76 20 174 20z" />
    <glyph glyph-name="uni02A2" unicode="&#x2a2;" horiz-adv-x="1098" 
d="M789 1338q-153 0 -251 -76t-122 -214t74 -213q100 -75 293 -82l-55 -315h207l-21 -116h-207l-56 -322h-126l57 322h-208l21 116h207l39 220q-205 33 -299 164q-44 62 -54 162q-4 42 4 78q26 159 154 275q128 117 364 117q137 0 223 -55q126 -81 170 -207l-108 -59
q-74 205 -306 205z" />
    <glyph glyph-name="uni02A3" unicode="&#x2a3;" horiz-adv-x="2004" 
d="M1110 108l749 786h-611zM618 84q164 0 288 117q122 117 154 296t-56 298q-86 119 -250 119t-286 -117t-154 -296t54 -298t250 -119zM595 -20q-206 0 -322 146q-117 146 -83 375t192 373t384 144q137 0 225 -72t116 -178l132 748h119l-91 -518h798l-10 -60l-794 -834h647
l-18 -104h-918l36 205q-61 -101 -165 -163t-248 -62z" />
    <glyph glyph-name="uni02A4" unicode="&#x2a4;" horiz-adv-x="2077" 
d="M618 84q164 0 288 117q122 117 154 296t-56 298q-86 119 -250 119t-286 -117t-154 -296t54 -298t250 -119zM595 -20q-206 0 -322 146q-117 146 -83 375t192 373t384 144q137 0 225 -72t116 -178l132 748h119l-91 -518h790l-10 -60l-512 -544q47 -4 89 -12t113 -38
t117 -74t73 -130q28 -86 12 -191q-17 -105 -57 -187q-75 -150 -212 -222q-138 -72 -298 -72q-283 0 -397 185l86 68q119 -149 295 -149q298 0 414 232q32 64 48 150q16 88 -9 158t-67 105t-117 55t-129 24t-130 3l16 90l475 505h-609l-157 -894h-119l36 205
q-61 -101 -165 -163t-248 -62z" />
    <glyph glyph-name="uni02A5" unicode="&#x2a5;" horiz-adv-x="2049" 
d="M1840 104q153 0 167 83q5 27 -11 44t-64 17q-46 0 -100 -40t-100 -104h108zM1110 108l749 786h-611zM618 84q164 0 288 117q122 117 154 296t-56 298q-86 119 -250 119t-286 -117t-154 -296t54 -298t250 -119zM595 -20q-206 0 -322 146q-117 146 -83 375t192 373t384 144
q137 0 225 -72t116 -178l132 748h119l-91 -518h798l-10 -60l-794 -834h323q135 189 252 234q52 20 128 20t120 -47q45 -47 38 -127t-75 -132t-225 -52h-165q-54 -75 -100 -161l-16 -30l-113 46q45 84 89 145h-545l36 205q-61 -101 -165 -163t-248 -62z" />
    <glyph glyph-name="uni02A6" unicode="&#x2a6;" horiz-adv-x="1405" 
d="M1099 914q-253 0 -282 -160q-13 -75 43 -116q56 -40 228 -74t250 -103t59 -204t-136 -206t-311 -71q-249 0 -385 116l63 89q143 -101 340 -101q279 0 309 174q15 86 -43 130t-232 79q-176 33 -248 105t-57 182q11 82 61 141h-213l-157 -895h-120l157 895h-211l18 103h211
l53 299h120l-53 -299h374q77 20 161 20q148 0 233 -30t120 -60l-63 -89q-116 75 -289 75z" />
    <glyph glyph-name="uni02A7" unicode="&#x2a7;" horiz-adv-x="986" 
d="M602 84q48 0 107 19l140 791h-304l-79 -451q-35 -200 -15 -265t71 -83q32 -11 80 -11zM1252 1432q-48 0 -78 -12t-52 -27q-22 -16 -40 -47t-29 -56t-22 -68q-11 -42 -16 -70t-14 -77l-202 -1146q-34 -190 -72 -269q-39 -80 -78 -116q-84 -77 -228 -76q-71 0 -145 30
l51 94q53 -20 101 -20t78 12t52 27q22 16 40 47t29 56t22 68q11 42 16 70t14 77l11 62q-52 -11 -110 -11q-230 0 -253 192q-11 92 10 220l88 502h-211l18 104h211l53 299h120l-53 -299h304l14 77q34 190 72 269q39 80 78 116q84 77 228 76q72 0 146 -30l-51 -94
q-54 20 -102 20z" />
    <glyph glyph-name="uni02A8" unicode="&#x2a8;" horiz-adv-x="1720" 
d="M1254 84q189 0 282 72q58 44 44 90t-95 53q-162 15 -445 -147q85 -68 214 -68zM1216 -20q-163 0 -281 104q-164 -104 -355 -104q-230 0 -253 192q-11 92 10 220l88 502h-211l18 104h211l53 299h120l-53 -299h309l-18 -104h-309l-79 -451q-35 -200 -15 -265t71 -83
q31 -11 76 -11q137 0 273 76q-91 140 -53 357t200 359t396 142t345 -133l-85 -71q-97 100 -273 100q-175 0 -303 -119t-158 -289t37 -279q307 192 521 179q130 -8 178 -82t1 -164t-173 -136q-126 -44 -288 -44z" />
    </font>
</defs>
</svg>
